%TF.GenerationSoftware,KiCad,Pcbnew,(6.0.2)*%
%TF.CreationDate,2022-10-23T11:46:50-05:00*%
%TF.ProjectId,REF1451,52454631-3435-4312-9e6b-696361645f70,rev?*%
%TF.SameCoordinates,Original*%
%TF.FileFunction,Paste,Bot*%
%TF.FilePolarity,Positive*%
%FSLAX46Y46*%
G04 Gerber Fmt 4.6, Leading zero omitted, Abs format (unit mm)*
G04 Created by KiCad (PCBNEW (6.0.2)) date 2022-10-23 11:46:50*
%MOMM*%
%LPD*%
G01*
G04 APERTURE LIST*
%ADD10R,1.530000X6.250000*%
%ADD11R,1.530000X9.000000*%
G04 APERTURE END LIST*
D10*
%TO.C,J3*%
X116659000Y-62620000D03*
X119177000Y-62620000D03*
X121702000Y-62620000D03*
X124229000Y-62620000D03*
X126748000Y-62620000D03*
X129267000Y-62620000D03*
X131790000Y-62620000D03*
X134309000Y-62620000D03*
X136828000Y-62620000D03*
X139356000Y-62620000D03*
X141881000Y-62620000D03*
X144402000Y-62620000D03*
X146926000Y-62620000D03*
X149446000Y-62620000D03*
X151966000Y-62620000D03*
X154485000Y-62620000D03*
X157003000Y-62620000D03*
X159527000Y-62620000D03*
X162053000Y-62620000D03*
X164571000Y-62620000D03*
X167091000Y-62620000D03*
X169610000Y-62620000D03*
X172140000Y-62620000D03*
X174666000Y-62620000D03*
X177185000Y-62620000D03*
%TD*%
D11*
%TO.C,J5*%
X116705000Y-125369000D03*
X119223000Y-125383000D03*
X121748000Y-125371000D03*
X124275000Y-125365000D03*
X126794000Y-125379000D03*
X129313000Y-125365000D03*
X131836000Y-125354000D03*
X134355000Y-125340000D03*
X136874000Y-125368000D03*
X139402000Y-125368000D03*
X141927000Y-125359000D03*
X144448000Y-125351000D03*
X146972000Y-125335000D03*
X149492000Y-125308000D03*
X152012000Y-125320000D03*
X154531000Y-125306000D03*
X157049000Y-125372000D03*
X159573000Y-125366000D03*
X162099000Y-125356000D03*
X164617000Y-125352000D03*
X167137000Y-125337000D03*
X169656000Y-125337000D03*
X172186000Y-125321000D03*
X174712000Y-125320000D03*
X177231000Y-125379000D03*
%TD*%
M02*
