M48
; DRILL file {KiCad (6.0.2)} date Sat Oct 22 16:22:01 2022
; FORMAT={-:-/ absolute / metric / decimal}
; #@! TF.CreationDate,2022-10-22T16:22:01-05:00
; #@! TF.GenerationSoftware,Kicad,Pcbnew,(6.0.2)
; #@! TF.FileFunction,Plated,1,2,PTH
FMAT,2
METRIC
; #@! TA.AperFunction,Plated,PTH,ViaDrill
T1C0.400
; #@! TA.AperFunction,Plated,PTH,ComponentDrill
T2C1.000
; #@! TA.AperFunction,Plated,PTH,ComponentDrill
T3C4.450
%
G90
G05
T1
X101.212Y-82.728
X104.646Y-100.831
X105.79Y-82.357
X105.841Y-95.428
X106.064Y-92.888
X106.267Y-100.867
X106.398Y-83.998
X107.541Y-95.391
X107.912Y-85.903
X107.963Y-99.238
X108.185Y-91.419
X108.49Y-79.852
X108.519Y-81.187
X108.552Y-100.874
X108.619Y-84.971
X108.884Y-87.808
X108.885Y-89.078
X109.311Y-80.468
X109.417Y-97.085
X110.069Y-85.647
X110.078Y-104.088
X110.262Y-98.573
X110.919Y-93.083
X111.258Y-76.62
X112.428Y-86.102
X112.488Y-75.035
X113.236Y-92.16
X113.651Y-89.887
X115.364Y-110.865
X115.624Y-105.297
X115.665Y-90.364
X116.955Y-69.143
X116.959Y-88.149
X117.173Y-96.088
X117.19Y-107.514
X117.275Y-120.261
X117.381Y-86.291
X117.825Y-99.692
X117.954Y-75.994
X118.059Y-115.799
X118.081Y-110.08
X118.164Y-100.853
X118.209Y-79.829
X118.402Y-111.542
X119.435Y-98.573
X119.782Y-84.086
X119.797Y-106.048
X120.076Y-108.28
X120.126Y-73.484
X120.184Y-74.59
X120.775Y-71.56
X120.928Y-81.707
X120.964Y-95.363
X120.966Y-98.664
X121.047Y-115.056
X121.256Y-74.566
X121.343Y-83.157
X121.348Y-92.607
X121.49Y-73.544
X121.535Y-104.084
X121.677Y-91.245
X121.737Y-107.597
X121.799Y-70.98
X122.24Y-86.538
X122.241Y-95.967
X122.243Y-90.364
X122.734Y-72.959
X122.908Y-74.581
X123.108Y-77.558
X123.428Y-70.153
X123.513Y-103.015
X124.263Y-75.341
X124.449Y-112.433
X124.653Y-78.165
X125.014Y-72.414
X125.212Y-106.498
X125.349Y-120.158
X125.469Y-80.602
X125.505Y-90.348
X125.51Y-99.904
X125.819Y-93.65
X125.976Y-83.998
X125.98Y-98.919
X126.22Y-97.48
X126.239Y-113.849
X126.289Y-118.163
X126.48Y-96.15
X126.493Y-74.236
X126.493Y-79.222
X126.827Y-70.313
X126.923Y-101.84
X126.963Y-119.279
X127.061Y-81.776
X127.755Y-89.705
X127.934Y-99.98
X128.644Y-83.998
X128.727Y-70.513
X128.862Y-85.167
X128.879Y-101.087
X128.906Y-104.539
X129.021Y-120.222
X129.16Y-69.121
X129.531Y-92.591
X129.752Y-70.855
X129.883Y-107.54
X130.036Y-82.428
X130.285Y-96.587
X130.535Y-109.872
X130.611Y-92.745
X132.25Y-73.877
X132.577Y-109.872
X132.577Y-111.526
X132.636Y-96.37
X132.824Y-112.654
X132.913Y-79.966
X133.156Y-118.647
X133.222Y-81.096
X133.281Y-87.947
X133.549Y-108.904
X133.962Y-70.763
X133.986Y-103.909
X134.298Y-99.278
X134.321Y-102.597
X134.489Y-119.703
X134.494Y-106.8
X134.565Y-105.722
X134.944Y-79.065
X135.044Y-92.52
X135.073Y-103.606
X135.314Y-99.614
X135.541Y-102.659
X135.912Y-98.455
X136.169Y-112.439
X136.409Y-104.507
X136.828Y-69.12
X136.966Y-117.784
X137.246Y-94.735
X138.05Y-120.418
X138.076Y-99.622
X138.084Y-73.144
X138.579Y-107.632
X138.669Y-98.45
X139.218Y-108.9
X139.218Y-114.984
X140.099Y-81.544
X140.155Y-98.462
X140.479Y-106.143
X140.507Y-108.837
X140.752Y-68.983
X140.793Y-120.366
X140.962Y-90.221
X141.041Y-119.128
X141.155Y-98.61
X141.213Y-115.584
X141.284Y-84.057
X142.23Y-119.162
X142.295Y-95.93
X142.389Y-92.502
X142.532Y-109.957
X142.788Y-97.02
X143.693Y-93.673
X144.016Y-111.439
X144.389Y-119.363
X144.526Y-78.65
X144.883Y-116.034
X145.258Y-72.476
X145.623Y-94.843
X145.624Y-105.915
X145.814Y-108.831
X146.402Y-69.314
X146.61Y-119.816
X148.069Y-116.22
X148.171Y-105.047
X148.324Y-101.201
X148.324Y-102.201
X148.424Y-103.356
X149.169Y-116.312
X149.446Y-69.842
X149.706Y-107.802
X149.733Y-106.251
X149.736Y-103.525
X149.827Y-97.938
X150.179Y-92.237
X150.709Y-120.411
X150.918Y-97.656
X151.403Y-96.726
X151.51Y-110.551
X151.735Y-91.473
X152.319Y-112.066
X152.781Y-87.896
X153.212Y-101.706
X153.222Y-100.705
X153.276Y-106.475
X153.385Y-113.511
X153.51Y-108.551
X153.522Y-107.488
X153.666Y-103.906
X153.932Y-76.027
X153.946Y-102.408
X154.256Y-81.106
X154.576Y-90.623
X154.646Y-98.632
X154.711Y-100.002
X155.292Y-105.301
X155.945Y-112.482
X156.147Y-69.139
X156.308Y-100.426
X156.676Y-117.547
X156.841Y-119.79
X157.066Y-87.719
X157.176Y-74.828
X157.315Y-106.858
X157.893Y-119.604
X158.713Y-98.482
X158.811Y-105.688
X159.527Y-69.115
X159.712Y-94.989
X159.772Y-116.89
X159.849Y-120.265
X160.05Y-113.487
X160.076Y-107.184
X161.277Y-120.253
X161.706Y-69.107
X162.824Y-112.871
X163.012Y-97.055
X163.393Y-88.669
X164.024Y-120.223
X164.541Y-69.113
X167.457Y-69.122
X167.569Y-120.235
X168.294Y-76.081
X168.297Y-119.105
X169.77Y-69.102
X171.671Y-120.153
X173.44Y-120.396
X175.227Y-69.17
X176.966Y-119.923
T2
X130.129Y-86.384
X131.514Y-89.224
X132.899Y-86.384
X134.284Y-89.224
X135.669Y-86.384
X137.054Y-89.224
X138.439Y-86.384
X139.824Y-89.224
X141.209Y-86.384
X142.594Y-89.224
X143.979Y-86.384
X145.364Y-89.224
X146.749Y-86.384
X148.134Y-89.224
X149.519Y-86.384
X150.904Y-89.224
X152.289Y-86.384
X153.674Y-89.224
X155.059Y-86.384
X156.444Y-89.224
X157.829Y-86.384
X159.214Y-89.224
X160.599Y-86.384
X161.984Y-89.224
X163.369Y-86.384
X190.205Y-91.084
X190.245Y-84.734
X194.691Y-91.087
X194.73Y-84.735
T3
X102.177Y-116.61
X106.028Y-62.798
X188.459Y-62.837
X191.634Y-116.655
T0
M30
