%TF.GenerationSoftware,KiCad,Pcbnew,(6.0.2)*%
%TF.CreationDate,2022-10-23T13:50:21-05:00*%
%TF.ProjectId,REF1451,52454631-3435-4312-9e6b-696361645f70,rev?*%
%TF.SameCoordinates,Original*%
%TF.FileFunction,Paste,Top*%
%TF.FilePolarity,Positive*%
%FSLAX46Y46*%
G04 Gerber Fmt 4.6, Leading zero omitted, Abs format (unit mm)*
G04 Created by KiCad (PCBNEW (6.0.2)) date 2022-10-23 13:50:21*
%MOMM*%
%LPD*%
G01*
G04 APERTURE LIST*
%ADD10R,0.700000X2.270000*%
%ADD11R,2.270000X0.700000*%
%ADD12R,1.700000X1.630000*%
%ADD13R,1.630000X1.710000*%
%ADD14R,1.530000X6.250000*%
%ADD15R,2.000000X0.750000*%
%ADD16R,0.750000X2.000000*%
%ADD17R,1.630000X1.700000*%
%ADD18R,1.530000X9.000000*%
G04 APERTURE END LIST*
D10*
%TO.C,U2*%
X137360500Y-110675000D03*
X138629500Y-110674000D03*
X139939500Y-110673000D03*
X141209500Y-110673000D03*
D11*
X143072500Y-108768000D03*
X143075500Y-107538000D03*
X143073500Y-106231000D03*
X143074500Y-104960000D03*
X143076500Y-103728000D03*
X143073500Y-102417000D03*
X143074500Y-101149000D03*
X143074500Y-99878000D03*
X143074500Y-98610000D03*
D10*
X141249500Y-96704000D03*
X139979500Y-96705000D03*
X138669500Y-96703000D03*
X137398500Y-96701000D03*
X136087500Y-96704000D03*
X134821500Y-96701000D03*
X133590500Y-96703000D03*
D11*
X131644500Y-98609000D03*
X131644500Y-99881000D03*
X131643500Y-101149000D03*
X131644500Y-102420000D03*
X131645500Y-103727000D03*
X131644500Y-104959000D03*
X131647500Y-106228000D03*
X131644500Y-107540000D03*
X131643500Y-108771000D03*
D10*
X133548500Y-110675000D03*
X134779500Y-110672000D03*
X136050500Y-110673000D03*
%TD*%
D12*
%TO.C,C2*%
X109882400Y-107603100D03*
X113100400Y-107603100D03*
%TD*%
D13*
%TO.C,R1*%
X170349600Y-101804000D03*
X170342600Y-105031000D03*
%TD*%
D12*
%TO.C,C1*%
X111180400Y-72674100D03*
X114398400Y-72674100D03*
%TD*%
D14*
%TO.C,J2*%
X116659000Y-62620000D03*
X119177000Y-62620000D03*
X121702000Y-62620000D03*
X124229000Y-62620000D03*
X126748000Y-62620000D03*
X129267000Y-62620000D03*
X131790000Y-62620000D03*
X134309000Y-62620000D03*
X136828000Y-62620000D03*
X139356000Y-62620000D03*
X141881000Y-62620000D03*
X144402000Y-62620000D03*
X146926000Y-62620000D03*
X149446000Y-62620000D03*
X151966000Y-62620000D03*
X154485000Y-62620000D03*
X157003000Y-62620000D03*
X159527000Y-62620000D03*
X162053000Y-62620000D03*
X164571000Y-62620000D03*
X167091000Y-62620000D03*
X169610000Y-62620000D03*
X172140000Y-62620000D03*
X174666000Y-62620000D03*
X177185000Y-62620000D03*
%TD*%
D15*
%TO.C,U3*%
X99595000Y-90348000D03*
X99595000Y-91618000D03*
X99595000Y-92888000D03*
X99595000Y-94158000D03*
X99595000Y-95428000D03*
X99595000Y-96698000D03*
X99595000Y-97968000D03*
X99595000Y-99238000D03*
X99595000Y-100508000D03*
D16*
X101560000Y-102473000D03*
X102830000Y-102473000D03*
X104100000Y-102473000D03*
X105370000Y-102473000D03*
X106640000Y-102473000D03*
X107910000Y-102473000D03*
X109180000Y-102473000D03*
X110450000Y-102473000D03*
X111720000Y-102473000D03*
X112990000Y-102473000D03*
X114260000Y-102473000D03*
X115530000Y-102473000D03*
X116800000Y-102473000D03*
X118070000Y-102473000D03*
X119340000Y-102473000D03*
X120610000Y-102473000D03*
X121880000Y-102473000D03*
D15*
X123845000Y-100508000D03*
X123845000Y-99238000D03*
X123845000Y-97968000D03*
X123845000Y-96698000D03*
X123845000Y-95428000D03*
X123845000Y-94158000D03*
X123845000Y-92888000D03*
X123845000Y-91618000D03*
X123845000Y-90348000D03*
X123845000Y-89078000D03*
X123845000Y-87808000D03*
X123845000Y-86538000D03*
X123845000Y-85268000D03*
X123845000Y-83998000D03*
X123845000Y-82728000D03*
X123845000Y-81458000D03*
X123845000Y-80188000D03*
D16*
X121880000Y-78223000D03*
X120610000Y-78223000D03*
X119340000Y-78223000D03*
X118070000Y-78223000D03*
X116800000Y-78223000D03*
X115530000Y-78223000D03*
X114260000Y-78223000D03*
X112990000Y-78223000D03*
X111720000Y-78223000D03*
X110450000Y-78223000D03*
X109180000Y-78223000D03*
X107910000Y-78223000D03*
X106640000Y-78223000D03*
X105370000Y-78223000D03*
X104100000Y-78223000D03*
X102830000Y-78223000D03*
X101560000Y-78223000D03*
D15*
X99595000Y-80188000D03*
X99595000Y-81458000D03*
X99595000Y-82728000D03*
X99595000Y-83998000D03*
X99595000Y-85268000D03*
X99595000Y-86538000D03*
X99595000Y-87808000D03*
X99595000Y-89078000D03*
%TD*%
D10*
%TO.C,U1*%
X157189500Y-110675000D03*
X158458500Y-110674000D03*
X159768500Y-110673000D03*
X161038500Y-110673000D03*
D11*
X162901500Y-108768000D03*
X162904500Y-107538000D03*
X162902500Y-106231000D03*
X162903500Y-104960000D03*
X162905500Y-103728000D03*
X162902500Y-102417000D03*
X162903500Y-101149000D03*
X162903500Y-99878000D03*
X162903500Y-98610000D03*
D10*
X161078500Y-96704000D03*
X159808500Y-96705000D03*
X158498500Y-96703000D03*
X157227500Y-96701000D03*
X155916500Y-96704000D03*
X154650500Y-96701000D03*
X153419500Y-96703000D03*
D11*
X151473500Y-98609000D03*
X151473500Y-99881000D03*
X151472500Y-101149000D03*
X151473500Y-102420000D03*
X151474500Y-103727000D03*
X151473500Y-104959000D03*
X151476500Y-106228000D03*
X151473500Y-107540000D03*
X151472500Y-108771000D03*
D10*
X153377500Y-110675000D03*
X154608500Y-110672000D03*
X155879500Y-110673000D03*
%TD*%
D17*
%TO.C,C3*%
X167796900Y-101795400D03*
X167796900Y-105013400D03*
%TD*%
D18*
%TO.C,J4*%
X116705000Y-125369000D03*
X119223000Y-125383000D03*
X121748000Y-125371000D03*
X124275000Y-125365000D03*
X126794000Y-125379000D03*
X129313000Y-125365000D03*
X131836000Y-125354000D03*
X134355000Y-125340000D03*
X136874000Y-125368000D03*
X139402000Y-125368000D03*
X141927000Y-125359000D03*
X144448000Y-125351000D03*
X146972000Y-125335000D03*
X149492000Y-125308000D03*
X152012000Y-125320000D03*
X154531000Y-125306000D03*
X157049000Y-125372000D03*
X159573000Y-125366000D03*
X162099000Y-125356000D03*
X164617000Y-125352000D03*
X167137000Y-125337000D03*
X169656000Y-125337000D03*
X172186000Y-125321000D03*
X174712000Y-125320000D03*
X177231000Y-125379000D03*
%TD*%
M02*
