M48
; DRILL file {KiCad (6.0.2)} date Sun Oct 23 13:50:23 2022
; FORMAT={-:-/ absolute / metric / decimal}
; #@! TF.CreationDate,2022-10-23T13:50:23-05:00
; #@! TF.GenerationSoftware,Kicad,Pcbnew,(6.0.2)
; #@! TF.FileFunction,Plated,1,2,PTH
FMAT,2
METRIC
; #@! TA.AperFunction,Plated,PTH,ViaDrill
T1C0.400
; #@! TA.AperFunction,Plated,PTH,ComponentDrill
T2C1.000
; #@! TA.AperFunction,Plated,PTH,ComponentDrill
T3C4.450
%
G90
G05
T1
X100.624Y-76.898
X101.323Y-81.312
X101.477Y-75.81
X102.488Y-82.18
X102.519Y-76.614
X103.226Y-91.981
X103.904Y-76.617
X104.618Y-84.916
X104.644Y-100.85
X105.688Y-100.867
X106.148Y-76.07
X107.488Y-83.405
X107.547Y-74.653
X108.473Y-89.078
X109.463Y-104.342
X109.67Y-76.599
X110.332Y-99.238
X110.582Y-105.113
X110.783Y-98.094
X110.866Y-76.542
X111.013Y-81.312
X111.343Y-100.847
X111.799Y-85.735
X112.241Y-92.993
X112.616Y-91.981
X113.163Y-82.691
X113.572Y-87.931
X113.847Y-79.841
X114.588Y-87.757
X114.967Y-115.43
X115.175Y-93.502
X115.734Y-76.605
X115.971Y-66.787
X116.064Y-91.589
X116.823Y-68.832
X117.205Y-120.191
X117.726Y-85.856
X118.462Y-90.59
X118.558Y-83.823
X118.932Y-76.608
X119.798Y-113.694
X119.933Y-116.942
X120.327Y-117.989
X120.465Y-73.136
X120.475Y-85.242
X120.476Y-75.936
X120.61Y-104.079
X120.908Y-84.138
X121.41Y-67.303
X121.527Y-86.973
X121.788Y-80.684
X121.872Y-84.588
X121.901Y-89.91
X122.071Y-119.792
X123.192Y-76.641
X124.204Y-74.579
X125.471Y-74.217
X125.516Y-120.485
X126.02Y-112.057
X126.079Y-69.746
X126.298Y-93.866
X126.48Y-104.484
X126.507Y-105.533
X126.681Y-81.884
X126.793Y-69.014
X126.921Y-72.236
X127.029Y-94.605
X127.205Y-111.919
X127.251Y-66.618
X127.356Y-80.025
X127.411Y-115.43
X127.543Y-119.775
X128.338Y-76.058
X128.417Y-78.288
X128.77Y-107.801
X128.869Y-120.215
X129.121Y-115.938
X129.212Y-99.881
X129.221Y-98.609
X129.502Y-96.577
X129.526Y-66.355
X129.721Y-105.698
X129.857Y-107.495
X129.887Y-102.42
X130.195Y-119.466
X130.458Y-96.006
X130.588Y-97.481
X131.073Y-79.027
X131.437Y-66.76
X131.518Y-116.129
X132.159Y-71.703
X132.199Y-73.981
X132.39Y-110.93
X133.241Y-66.327
X133.381Y-104.952
X133.623Y-102.117
X133.623Y-106.419
X133.709Y-98.756
X133.786Y-100.965
X133.793Y-119.934
X134.001Y-84.202
X134.06Y-108.382
X134.155Y-112.718
X134.335Y-99.737
X134.369Y-103.096
X134.869Y-107.39
X134.965Y-118.065
X135.236Y-100.888
X135.856Y-81.123
X136.133Y-117.806
X136.334Y-112.754
X136.443Y-101.61
X136.462Y-105.555
X136.794Y-80.087
X136.839Y-66.372
X137.218Y-98.659
X137.35Y-120.267
X137.505Y-118.485
X138.281Y-93.518
X138.288Y-66.319
X138.443Y-90.609
X139.073Y-119.29
X139.313Y-98.465
X139.354Y-87.701
X139.713Y-108.921
X139.737Y-106.569
X139.762Y-114.707
X140.043Y-107.902
X140.727Y-115.432
X140.738Y-106.284
X140.821Y-66.825
X140.956Y-74.107
X141.329Y-98.61
X142.179Y-110.172
X142.205Y-95.439
X142.3Y-115.157
X142.437Y-84.752
X143.132Y-96.983
X143.607Y-66.372
X143.804Y-117.183
X145.347Y-84.853
X145.576Y-119.649
X146.091Y-118.446
X146.269Y-93.095
X147.078Y-119.244
X147.565Y-116.861
X147.693Y-100.6
X147.766Y-66.349
X148.182Y-102.504
X148.218Y-120.447
X148.339Y-109.717
X148.634Y-105.017
X149.075Y-104.023
X149.288Y-102.515
X149.414Y-98.461
X149.681Y-111.721
X149.706Y-106.919
X149.925Y-110.41
X150.048Y-66.608
X150.107Y-119.963
X150.385Y-94.363
X150.434Y-95.847
X151.409Y-97.643
X151.882Y-81.884
X152.058Y-67.894
X152.413Y-110.799
X152.941Y-114.241
X153.189Y-66.194
X153.19Y-115.25
X153.209Y-107.54
X153.225Y-105.821
X153.275Y-91.584
X153.314Y-69.466
X153.507Y-102.528
X153.584Y-74.107
X153.736Y-104.411
X154.286Y-107.746
X154.608Y-101.565
X154.822Y-100.538
X154.887Y-90.01
X155.435Y-106.976
X155.511Y-66.366
X156.24Y-69.697
X156.771Y-66.427
X156.999Y-108.924
X157.107Y-120.215
X157.211Y-100.103
X158.01Y-98.768
X158.692Y-107.46
X158.777Y-66.769
X159.308Y-105.957
X159.451Y-115.051
X159.633Y-99.41
X159.807Y-69.495
X159.964Y-67.794
X160.176Y-115.749
X160.333Y-79.027
X160.485Y-76.058
X161.081Y-66.361
X161.142Y-102.358
X161.329Y-78.258
X162.099Y-119.477
X162.454Y-115.749
X163.346Y-96.814
X163.615Y-66.379
X164.62Y-70.986
X164.664Y-99.692
X164.671Y-106.076
X167.379Y-66.348
X168.397Y-120.445
X170.876Y-120.387
X172.04Y-66.39
X175.615Y-66.367
X175.886Y-120.37
X177.185Y-69.263
X177.231Y-119.947
T2
X130.129Y-86.384
X131.514Y-89.224
X132.899Y-86.384
X134.284Y-89.224
X135.669Y-86.384
X137.054Y-89.224
X138.439Y-86.384
X139.824Y-89.224
X141.209Y-86.384
X142.594Y-89.224
X143.979Y-86.384
X145.364Y-89.224
X146.749Y-86.384
X148.134Y-89.224
X149.519Y-86.384
X150.904Y-89.224
X152.289Y-86.384
X153.674Y-89.224
X155.059Y-86.384
X156.444Y-89.224
X157.829Y-86.384
X159.214Y-89.224
X160.599Y-86.384
X161.984Y-89.224
X163.369Y-86.384
X190.205Y-91.084
X190.245Y-84.734
X194.691Y-91.087
X194.73Y-84.735
T3
X102.177Y-116.61
X106.028Y-62.798
X188.459Y-62.837
X191.634Y-116.655
T0
M30
