%TF.GenerationSoftware,KiCad,Pcbnew,(6.0.2)*%
%TF.CreationDate,2022-10-22T16:21:59-05:00*%
%TF.ProjectId,REF1451,52454631-3435-4312-9e6b-696361645f70,rev?*%
%TF.SameCoordinates,Original*%
%TF.FileFunction,Copper,L2,Bot*%
%TF.FilePolarity,Positive*%
%FSLAX46Y46*%
G04 Gerber Fmt 4.6, Leading zero omitted, Abs format (unit mm)*
G04 Created by KiCad (PCBNEW (6.0.2)) date 2022-10-22 16:21:59*
%MOMM*%
%LPD*%
G01*
G04 APERTURE LIST*
%TA.AperFunction,NonConductor*%
%ADD10C,0.000001*%
%TD*%
%TA.AperFunction,ComponentPad*%
%ADD11C,4.680000*%
%TD*%
%TA.AperFunction,SMDPad,CuDef*%
%ADD12R,1.530000X9.000000*%
%TD*%
%TA.AperFunction,ComponentPad*%
%ADD13R,1.590000X1.590000*%
%TD*%
%TA.AperFunction,ComponentPad*%
%ADD14R,1.600000X1.600000*%
%TD*%
%TA.AperFunction,ComponentPad*%
%ADD15C,1.600000*%
%TD*%
%TA.AperFunction,ViaPad*%
%ADD16C,0.800000*%
%TD*%
%TA.AperFunction,Conductor*%
%ADD17C,0.250000*%
%TD*%
%TA.AperFunction,Conductor*%
%ADD18C,0.500000*%
%TD*%
G04 APERTURE END LIST*
D10*
X177741200Y-61396700D02*
G75*
G03*
X177741200Y-61396700I0J0D01*
G01*
D11*
%TO.P,Hole4,1*%
%TO.N,N/C*%
X191634000Y-116655000D03*
%TD*%
D12*
%TO.P,J3,26,Pin_1*%
%TO.N,/GND*%
X116659000Y-63995000D03*
%TO.P,J3,27,Pin_2*%
X119177000Y-63995000D03*
%TO.P,J3,28,Pin_3*%
%TO.N,/AD0*%
X121702000Y-63995000D03*
%TO.P,J3,29,Pin_4*%
%TO.N,/AD1*%
X124229000Y-63995000D03*
%TO.P,J3,30,Pin_5*%
%TO.N,/AD2*%
X126748000Y-63995000D03*
%TO.P,J3,31,Pin_6*%
%TO.N,/GND*%
X129267000Y-63995000D03*
%TO.P,J3,32,Pin_7*%
%TO.N,/AD3*%
X131790000Y-63995000D03*
%TO.P,J3,33,Pin_8*%
%TO.N,/ALE_L*%
X134309000Y-63995000D03*
%TO.P,J3,34,Pin_9*%
%TO.N,/VCC*%
X136828000Y-63995000D03*
%TO.P,J3,35,Pin_10*%
%TO.N,/ALE_H*%
X139356000Y-63995000D03*
%TO.P,J3,36,Pin_11*%
%TO.N,/AD4*%
X141881000Y-63995000D03*
%TO.P,J3,37,Pin_12*%
%TO.N,/AD5*%
X144402000Y-63995000D03*
%TO.P,J3,38,Pin_13*%
%TO.N,/12V_Rear*%
X146926000Y-63995000D03*
%TO.P,J3,39,Pin_14*%
%TO.N,/12V_2_Rear*%
X149446000Y-63995000D03*
%TO.P,J3,40,Pin_15*%
%TO.N,/AD6*%
X151966000Y-63995000D03*
%TO.P,J3,41,Pin_16*%
%TO.N,/AD7*%
X154485000Y-63995000D03*
%TO.P,J3,42,Pin_17*%
%TO.N,/VCC*%
X157003000Y-63995000D03*
%TO.P,J3,43,Pin_18*%
%TO.N,/CIC_14*%
X159527000Y-63995000D03*
%TO.P,J3,44,Pin_19*%
%TO.N,/{slash}INT1*%
X162053000Y-63995000D03*
%TO.P,J3,45,Pin_20*%
%TO.N,/{slash}NMI*%
X164571000Y-63995000D03*
%TO.P,J3,46,Pin_21*%
%TO.N,/VIDEO_SYNC*%
X167091000Y-63995000D03*
%TO.P,J3,47,Pin_22*%
%TO.N,/GND*%
X169610000Y-63995000D03*
%TO.P,J3,48,Pin_23*%
X172140000Y-63995000D03*
%TO.P,J3,49,Pin_24*%
%TO.N,/RAUDIO*%
X174666000Y-63995000D03*
%TO.P,J3,50,Pin_25*%
%TO.N,/GND*%
X177185000Y-63995000D03*
%TD*%
D11*
%TO.P,Hole2,1*%
%TO.N,N/C*%
X102177000Y-116610000D03*
%TD*%
%TO.P,Hole1,1*%
%TO.N,N/C*%
X106028000Y-62798000D03*
%TD*%
%TO.P,Hole3,1*%
%TO.N,N/C*%
X188459000Y-62837000D03*
%TD*%
D13*
%TO.P,SW1,1,1*%
%TO.N,/GND*%
X190205000Y-91084000D03*
X190245000Y-84734000D03*
%TO.P,SW1,2,2*%
%TO.N,/Button*%
X194691000Y-91087000D03*
X194730000Y-84735000D03*
%TD*%
D12*
%TO.P,J5,26,Pin_25*%
%TO.N,/GND*%
X116705000Y-125369000D03*
%TO.P,J5,27,Pin_24*%
X119223000Y-125383000D03*
%TO.P,J5,28,Pin_23*%
%TO.N,/AD0*%
X121748000Y-125371000D03*
%TO.P,J5,29,Pin_22*%
%TO.N,/AD1*%
X124275000Y-125365000D03*
%TO.P,J5,30,Pin_21*%
%TO.N,/AD2*%
X126794000Y-125379000D03*
%TO.P,J5,31,Pin_20*%
%TO.N,/GND*%
X129313000Y-125365000D03*
%TO.P,J5,32,Pin_19*%
%TO.N,/AD3*%
X131836000Y-125354000D03*
%TO.P,J5,33,Pin_18*%
%TO.N,/ALE_L*%
X134355000Y-125340000D03*
%TO.P,J5,34,Pin_17*%
%TO.N,/VCC*%
X136874000Y-125368000D03*
%TO.P,J5,35,Pin_16*%
%TO.N,/ALE_H*%
X139402000Y-125368000D03*
%TO.P,J5,36,Pin_15*%
%TO.N,/AD4*%
X141927000Y-125359000D03*
%TO.P,J5,37,Pin_14*%
%TO.N,/AD5*%
X144448000Y-125351000D03*
%TO.P,J5,38,Pin_13*%
%TO.N,/12V_Rear*%
X146972000Y-125335000D03*
%TO.P,J5,39,Pin_12*%
%TO.N,/12V_2_Rear*%
X149492000Y-125308000D03*
%TO.P,J5,40,Pin_11*%
%TO.N,/AD6*%
X152012000Y-125320000D03*
%TO.P,J5,41,Pin_10*%
%TO.N,/AD7*%
X154531000Y-125306000D03*
%TO.P,J5,42,Pin_9*%
%TO.N,/VCC*%
X157049000Y-125372000D03*
%TO.P,J5,43,Pin_8*%
%TO.N,/CIC_14*%
X159573000Y-125366000D03*
%TO.P,J5,44,Pin_7*%
%TO.N,/{slash}INT1*%
X162099000Y-125356000D03*
%TO.P,J5,45,Pin_6*%
%TO.N,/{slash}NMI*%
X164617000Y-125352000D03*
%TO.P,J5,46,Pin_5*%
%TO.N,/VIDEO_SYNC*%
X167137000Y-125337000D03*
%TO.P,J5,47,Pin_4*%
%TO.N,/GND*%
X169656000Y-125337000D03*
%TO.P,J5,48,Pin_3*%
X172186000Y-125321000D03*
%TO.P,J5,49,Pin_2*%
%TO.N,/RAUDIO*%
X174712000Y-125320000D03*
%TO.P,J5,50,Pin_1*%
%TO.N,/GND*%
X177231000Y-125379000D03*
%TD*%
D14*
%TO.P,J1,1,1*%
%TO.N,N/C*%
X163369000Y-86383700D03*
D15*
%TO.P,J1,2,2*%
X160599000Y-86383700D03*
%TO.P,J1,3,3*%
X157829000Y-86383700D03*
%TO.P,J1,4,4*%
X155059000Y-86383700D03*
%TO.P,J1,5,5*%
X152289000Y-86383700D03*
%TO.P,J1,6,6*%
X149519000Y-86383700D03*
%TO.P,J1,7,7*%
X146749000Y-86383700D03*
%TO.P,J1,8,8*%
X143979000Y-86383700D03*
%TO.P,J1,9,9*%
X141209000Y-86383700D03*
%TO.P,J1,10,10*%
X138439000Y-86383700D03*
%TO.P,J1,11,11*%
X135669000Y-86383700D03*
%TO.P,J1,12,12*%
X132899000Y-86383700D03*
%TO.P,J1,13,13*%
X130129000Y-86383700D03*
%TO.P,J1,14,P14*%
X161984000Y-89223700D03*
%TO.P,J1,15,P15*%
X159214000Y-89223700D03*
%TO.P,J1,16,P16*%
X156444000Y-89223700D03*
%TO.P,J1,17,P17*%
X153674000Y-89223700D03*
%TO.P,J1,18,P18*%
X150904000Y-89223700D03*
%TO.P,J1,19,P19*%
X148134000Y-89223700D03*
%TO.P,J1,20,P20*%
X145364000Y-89223700D03*
%TO.P,J1,21,P21*%
X142594000Y-89223700D03*
%TO.P,J1,22,P22*%
X139824000Y-89223700D03*
%TO.P,J1,23,P23*%
X137054000Y-89223700D03*
%TO.P,J1,24,P24*%
X134284000Y-89223700D03*
%TO.P,J1,25,P25*%
X131514000Y-89223700D03*
%TD*%
D16*
%TO.N,/A18*%
X151509900Y-110551400D03*
X153510400Y-108550900D03*
%TO.N,/A16*%
X120075900Y-108279600D03*
X108184900Y-91419500D03*
X139218300Y-108899700D03*
X139218300Y-114983700D03*
%TO.N,/A15*%
X120965700Y-98664100D03*
X125211900Y-106498400D03*
X141212800Y-115583900D03*
X140506600Y-108837400D03*
%TO.N,/A12*%
X117189800Y-107514400D03*
X144883500Y-116034000D03*
X144016000Y-111439300D03*
X108885000Y-89078000D03*
%TO.N,/A7*%
X127755100Y-89704700D03*
X149706000Y-107802500D03*
X153521900Y-107488200D03*
X134494400Y-106800200D03*
%TO.N,/A6*%
X145813900Y-108831300D03*
X149169500Y-116311900D03*
X129530900Y-92591300D03*
X134565200Y-105721700D03*
%TO.N,/A5*%
X160049700Y-113487500D03*
X132577300Y-109871600D03*
X130534900Y-109871600D03*
X121343500Y-83156900D03*
X135073500Y-103606100D03*
X158811100Y-105687600D03*
X148069100Y-116220100D03*
X145623600Y-105914700D03*
%TO.N,/A4*%
X148171500Y-105046900D03*
X155292300Y-105301100D03*
%TO.N,/A3*%
X149736300Y-103525000D03*
X153665600Y-103906100D03*
%TO.N,/A2*%
X141284200Y-84056700D03*
X121489900Y-73544100D03*
X138084100Y-73143600D03*
X108489700Y-79852500D03*
X153945700Y-102408000D03*
X148424200Y-103355900D03*
X154575700Y-90622600D03*
%TO.N,/A1*%
X120184000Y-74590100D03*
X148324200Y-102200900D03*
X112488000Y-75035100D03*
X163392600Y-88668900D03*
X163012200Y-97054600D03*
X153212200Y-101705900D03*
%TO.N,/A0*%
X148324200Y-101200700D03*
X153222100Y-100705400D03*
X110918600Y-93083400D03*
X135541300Y-102659400D03*
X130284900Y-96587400D03*
X107912500Y-85903000D03*
X125510300Y-99903700D03*
X120964200Y-95362700D03*
%TO.N,/AD0*%
X115364100Y-110864600D03*
X104645600Y-100831300D03*
X156308500Y-100426000D03*
X156675800Y-117546800D03*
%TO.N,/AD1*%
X127060800Y-81775900D03*
X121799400Y-70979700D03*
X106266600Y-100866600D03*
X129752100Y-70854700D03*
%TO.N,/AD2*%
X159712300Y-94989300D03*
X126827200Y-70313400D03*
X121535500Y-104083900D03*
X128727300Y-70513500D03*
X126493500Y-79222000D03*
X157176300Y-74828200D03*
X125469300Y-80602400D03*
X126493500Y-74235500D03*
%TO.N,/GND*%
X138669500Y-98450000D03*
X171671200Y-120153500D03*
X123428200Y-70153300D03*
X142389200Y-92501800D03*
X129020600Y-120222500D03*
X159772000Y-116890100D03*
X116954800Y-69143400D03*
X176965800Y-119923300D03*
X158712500Y-98482200D03*
X117275200Y-120261300D03*
X129160000Y-69120900D03*
X169769800Y-69102000D03*
X125504600Y-90348000D03*
%TO.N,/AD3*%
X128906300Y-104539100D03*
X132824300Y-112654200D03*
X154710600Y-100002100D03*
X152318700Y-112065900D03*
%TO.N,/AD4*%
X143692700Y-93673500D03*
X142294600Y-95930500D03*
%TO.N,/AD5*%
X144526500Y-78649500D03*
X118164200Y-100852900D03*
X145623200Y-94843300D03*
X123108500Y-77557900D03*
%TO.N,/AD6*%
X151402800Y-96726000D03*
%TO.N,/AD7*%
X117381400Y-86290700D03*
X124262900Y-75341200D03*
X154646300Y-98632000D03*
X153932400Y-76026900D03*
%TO.N,/Chip_Enable*%
X128878800Y-101086500D03*
X149827300Y-97938000D03*
X150179400Y-92236800D03*
X122240200Y-86538000D03*
%TO.N,/A10*%
X134298100Y-99278300D03*
X109416700Y-97085200D03*
X150918000Y-97655700D03*
X151735300Y-91473100D03*
X106063700Y-92888000D03*
X133281500Y-87947000D03*
%TO.N,/Output_Enable*%
X135314000Y-99613700D03*
X135044500Y-92520200D03*
X119435300Y-98572700D03*
X110262200Y-98572700D03*
X123512600Y-103015400D03*
X105790000Y-82356600D03*
%TO.N,/A11*%
X134321200Y-102596900D03*
X108618800Y-84970700D03*
X157066100Y-87718900D03*
X140098500Y-81543800D03*
X160075500Y-107184200D03*
X115624200Y-105296600D03*
X138075800Y-99622300D03*
X133985900Y-103908600D03*
%TO.N,/A9*%
X168297400Y-119104700D03*
X119797100Y-106048300D03*
X110069200Y-85647300D03*
X157892700Y-119603700D03*
X122908300Y-74581200D03*
X168294500Y-76080900D03*
X113650900Y-89887200D03*
X116958500Y-88149500D03*
X157314700Y-106858100D03*
%TO.N,/A8*%
X121737100Y-107597300D03*
X153385100Y-113511300D03*
X108519200Y-81187100D03*
X149733500Y-106251000D03*
%TO.N,/A13*%
X130035600Y-82428100D03*
X125976200Y-83998000D03*
X152781400Y-87895800D03*
X153275600Y-106475500D03*
X129883200Y-107540000D03*
X128644500Y-83998000D03*
%TO.N,/A14*%
X140961500Y-90220900D03*
X142531600Y-109957500D03*
X138578700Y-107632100D03*
%TO.N,/{slash}write*%
X120775200Y-71560000D03*
X110078300Y-104088100D03*
X121046600Y-115056400D03*
X133155600Y-118647300D03*
X132577300Y-111525600D03*
X133549400Y-108903900D03*
%TO.N,/VCC*%
X138050400Y-120417900D03*
X155945100Y-112482300D03*
X132912600Y-79965600D03*
X128862500Y-85166600D03*
X136828000Y-69120200D03*
X156840900Y-119790100D03*
X136168900Y-112438900D03*
X154256200Y-81105700D03*
X156147300Y-69139400D03*
X136965900Y-117784300D03*
%TO.N,/AD8*%
X107962700Y-99238000D03*
X136408500Y-104506900D03*
X132249700Y-73876800D03*
X140479400Y-106142600D03*
X141155500Y-98610000D03*
X142229800Y-119162300D03*
X118401700Y-111542300D03*
%TO.N,/AD9*%
X107541200Y-95391000D03*
X121677400Y-91245100D03*
X145258300Y-72475700D03*
X126480000Y-96149600D03*
X105840900Y-95428000D03*
X144389500Y-119363100D03*
X142788000Y-97019800D03*
%TO.N,/AD10*%
X112428000Y-86101600D03*
X141041300Y-119127900D03*
X125013900Y-72413900D03*
X140155300Y-98462500D03*
X124449400Y-112432700D03*
%TO.N,/AD11*%
X108884100Y-87808000D03*
X121347800Y-92607100D03*
X126220200Y-97479500D03*
X140752100Y-68983000D03*
X137246500Y-94735100D03*
X113235800Y-92159700D03*
X140793400Y-120365800D03*
%TO.N,/AD12*%
X134488800Y-119703200D03*
X101212400Y-82728000D03*
X133962300Y-70763500D03*
X135912300Y-98454900D03*
X118058900Y-115798900D03*
%TO.N,/AD13*%
X122240600Y-95967400D03*
X125348500Y-120157600D03*
X125979600Y-98918800D03*
X117954100Y-75994100D03*
X120125600Y-73484000D03*
X118208500Y-79828800D03*
X117173100Y-96087800D03*
%TO.N,/AD14*%
X127933800Y-99980300D03*
X126963300Y-119279500D03*
X132635500Y-96370100D03*
X133221600Y-81096100D03*
%TO.N,/AD15*%
X126289100Y-118163500D03*
X126922600Y-101840100D03*
X120928400Y-81706600D03*
%TO.N,/ALE_L*%
X115664700Y-90363700D03*
X125818700Y-93650500D03*
X109310900Y-80468200D03*
X130611000Y-92745300D03*
X122243200Y-90363700D03*
%TO.N,/ALE_H*%
X117824700Y-99691600D03*
X134943600Y-79065400D03*
X124653100Y-78165200D03*
%TO.N,/{slash}read_top*%
X106397800Y-83998000D03*
X122734000Y-72958600D03*
%TO.N,/12V_Front*%
X146402100Y-69314000D03*
X146610300Y-119815600D03*
%TO.N,/12V_2_Front*%
X149446000Y-69842400D03*
X150708600Y-120410800D03*
%TO.N,/CIC_15*%
X159527000Y-69115400D03*
X159849000Y-120264900D03*
%TO.N,/CIC_11*%
X161706100Y-69107400D03*
X161276700Y-120252600D03*
%TO.N,/{slash}COLD_RESET*%
X162823700Y-112870900D03*
X108552400Y-100873600D03*
X164023800Y-120223100D03*
X164540700Y-69113200D03*
X118080500Y-110080200D03*
%TO.N,/EEPROM_DAT*%
X167569200Y-120234700D03*
X167457000Y-69122000D03*
%TO.N,/LAUDIO*%
X173440200Y-120396500D03*
X175227200Y-69170000D03*
%TO.N,/{slash}read_bottom*%
X119781700Y-84085600D03*
X126238900Y-113849400D03*
%TO.N,/Button*%
X111258000Y-76619900D03*
X121256500Y-74565600D03*
%TD*%
D17*
%TO.N,/A18*%
X151509900Y-110551400D02*
X153510400Y-108550900D01*
%TO.N,/A16*%
X116916500Y-108279600D02*
X120075900Y-108279600D01*
X112978400Y-104341500D02*
X116916500Y-108279600D01*
X139218300Y-108899700D02*
X139218300Y-114983700D01*
X108184900Y-91419500D02*
X112978400Y-96213000D01*
X112978400Y-96213000D02*
X112978400Y-104341500D01*
%TO.N,/A15*%
X120965700Y-98664100D02*
X125211900Y-102910300D01*
X125211900Y-102910300D02*
X125211900Y-106498400D01*
X140506600Y-114877700D02*
X141212800Y-115583900D01*
X140506600Y-108837400D02*
X140506600Y-114877700D01*
%TO.N,/A12*%
X108885000Y-89078000D02*
X113428600Y-93621600D01*
X113428600Y-104155100D02*
X116787900Y-107514400D01*
X144016000Y-111439300D02*
X144883500Y-112306800D01*
X144883500Y-112306800D02*
X144883500Y-116034000D01*
X116787900Y-107514400D02*
X117189800Y-107514400D01*
X113428600Y-93621600D02*
X113428600Y-104155100D01*
%TO.N,/A7*%
X129012700Y-93115300D02*
X127755100Y-91857700D01*
X130954200Y-103260000D02*
X130954200Y-99311600D01*
X129012700Y-97370100D02*
X129012700Y-93115300D01*
X153207600Y-107802500D02*
X153521900Y-107488200D01*
X127755100Y-91857700D02*
X127755100Y-89704700D01*
X130954200Y-99311600D02*
X129012700Y-97370100D01*
X149706000Y-107802500D02*
X153207600Y-107802500D01*
X134494400Y-106800200D02*
X130954200Y-103260000D01*
%TO.N,/A6*%
X147800800Y-111436100D02*
X147800800Y-114926400D01*
X134565200Y-105721700D02*
X131404300Y-102560800D01*
X129530900Y-97251700D02*
X129530900Y-92591300D01*
X147800800Y-114926400D02*
X149169500Y-116295100D01*
X149169500Y-116295100D02*
X149169500Y-116311900D01*
X145813900Y-108831300D02*
X145813900Y-109449200D01*
X145813900Y-109449200D02*
X147800800Y-111436100D01*
X131404300Y-99125100D02*
X129530900Y-97251700D01*
X131404300Y-102560800D02*
X131404300Y-99125100D01*
%TO.N,/A5*%
X127731000Y-103346900D02*
X129603900Y-101474000D01*
X160534600Y-113972400D02*
X160534600Y-117198600D01*
X127662400Y-93674800D02*
X124761800Y-90774200D01*
X124761800Y-86575200D02*
X121343500Y-83156900D01*
X135332600Y-106998600D02*
X134796300Y-107534900D01*
X132577300Y-108809500D02*
X132577300Y-109871600D01*
X133851900Y-107534900D02*
X132577300Y-108809500D01*
X135073500Y-105018700D02*
X135332600Y-105277800D01*
X158619500Y-116763000D02*
X158619500Y-105879200D01*
X129603900Y-101474000D02*
X129603900Y-99871100D01*
X145623600Y-105914700D02*
X145623600Y-107615600D01*
X127662400Y-97929600D02*
X127662400Y-93674800D01*
X130534900Y-109871600D02*
X128055800Y-107392500D01*
X128055800Y-107392500D02*
X128055800Y-105411400D01*
X160108200Y-117625000D02*
X159481500Y-117625000D01*
X134796300Y-107534900D02*
X133851900Y-107534900D01*
X129603900Y-99871100D02*
X127662400Y-97929600D01*
X135073500Y-103606100D02*
X135073500Y-105018700D01*
X149915800Y-115396100D02*
X149915800Y-116658300D01*
X148774700Y-117038600D02*
X148069100Y-116333000D01*
X146539000Y-109537700D02*
X148321400Y-111320100D01*
X160534600Y-117198600D02*
X160108200Y-117625000D01*
X160049700Y-113487500D02*
X160534600Y-113972400D01*
X149535500Y-117038600D02*
X148774700Y-117038600D01*
X145623600Y-107615600D02*
X146539000Y-108531000D01*
X128055800Y-105411400D02*
X127731000Y-105086600D01*
X148321400Y-113801700D02*
X149915800Y-115396100D01*
X135332600Y-105277800D02*
X135332600Y-106998600D01*
X146539000Y-108531000D02*
X146539000Y-109537700D01*
X159481500Y-117625000D02*
X158619500Y-116763000D01*
X148321400Y-111320100D02*
X148321400Y-113801700D01*
X127731000Y-105086600D02*
X127731000Y-103346900D01*
X149915800Y-116658300D02*
X149535500Y-117038600D01*
X124761800Y-90774200D02*
X124761800Y-86575200D01*
X158619500Y-105879200D02*
X158811100Y-105687600D01*
X148069100Y-116333000D02*
X148069100Y-116220100D01*
%TO.N,/A4*%
X150121800Y-111649400D02*
X152751300Y-114278900D01*
X148339400Y-105214800D02*
X148339400Y-108791700D01*
X153690300Y-114278900D02*
X154697100Y-113272100D01*
X152751300Y-114278900D02*
X153690300Y-114278900D01*
X148171500Y-105046900D02*
X148339400Y-105214800D01*
X148339400Y-108791700D02*
X150121800Y-110574100D01*
X154697100Y-105896300D02*
X155292300Y-105301100D01*
X150121800Y-110574100D02*
X150121800Y-111649400D01*
X154697100Y-113272100D02*
X154697100Y-105896300D01*
%TO.N,/A3*%
X153284500Y-103525000D02*
X149736300Y-103525000D01*
X153665600Y-103906100D02*
X153284500Y-103525000D01*
%TO.N,/A2*%
X141284200Y-84056700D02*
X141284200Y-76343700D01*
X153702600Y-102651100D02*
X153945700Y-102408000D01*
X147599100Y-100860100D02*
X147599100Y-102501200D01*
X108489700Y-79852500D02*
X108489700Y-77973400D01*
X148348100Y-103250200D02*
X148424200Y-103250200D01*
X148424200Y-103250200D02*
X149023300Y-102651100D01*
X108489700Y-77973400D02*
X113727800Y-72735300D01*
X120681100Y-72735300D02*
X121489900Y-73544100D01*
X147599100Y-102501200D02*
X148348100Y-103250200D01*
X150057800Y-100475600D02*
X147983600Y-100475600D01*
X148424200Y-103250200D02*
X148424200Y-103355900D01*
X141284200Y-76343700D02*
X138084100Y-73143600D01*
X149023300Y-102651100D02*
X153702600Y-102651100D01*
X154575700Y-95957700D02*
X150057800Y-100475600D01*
X154575700Y-90622600D02*
X154575700Y-95957700D01*
X147983600Y-100475600D02*
X147599100Y-100860100D01*
X113727800Y-72735300D02*
X120681100Y-72735300D01*
%TO.N,/A1*%
X163392600Y-88668900D02*
X163392600Y-96674200D01*
X120184000Y-74816400D02*
X120184000Y-74590100D01*
X153212200Y-101705900D02*
X152717200Y-102200900D01*
X112488000Y-75035100D02*
X114172200Y-76719300D01*
X163392600Y-96674200D02*
X163012200Y-97054600D01*
X114172200Y-76719300D02*
X118281100Y-76719300D01*
X152717200Y-102200900D02*
X148324200Y-102200900D01*
X118281100Y-76719300D02*
X120184000Y-74816400D01*
%TO.N,/A0*%
X131955400Y-98997300D02*
X131955400Y-99303100D01*
X134753700Y-101871800D02*
X135541300Y-102659400D01*
X134524100Y-101871800D02*
X134753700Y-101871800D01*
X107912500Y-85903000D02*
X107912500Y-90077300D01*
X131955400Y-99303100D02*
X134524100Y-101871800D01*
X150653300Y-101200700D02*
X148324200Y-101200700D01*
X151148600Y-100705400D02*
X150653300Y-101200700D01*
X120964200Y-95722600D02*
X125145300Y-99903700D01*
X120964200Y-95362700D02*
X120964200Y-95722600D01*
X130284900Y-97326800D02*
X131955400Y-98997300D01*
X125145300Y-99903700D02*
X125510300Y-99903700D01*
X153222100Y-100705400D02*
X151148600Y-100705400D01*
X107912500Y-90077300D02*
X110918600Y-93083400D01*
X130284900Y-96587400D02*
X130284900Y-97326800D01*
%TO.N,/AD0*%
X156308500Y-100426000D02*
X156560000Y-100677500D01*
X104128800Y-100314500D02*
X104128800Y-79787900D01*
X121743000Y-125371000D02*
X121743000Y-120545900D01*
X114678900Y-110864600D02*
X104645600Y-100831300D01*
X123164700Y-68845100D02*
X121718000Y-68845100D01*
X115364100Y-110864600D02*
X114678900Y-110864600D01*
X124153300Y-69833700D02*
X123164700Y-68845100D01*
X124153300Y-70453700D02*
X124153300Y-69833700D01*
X122504100Y-70254600D02*
X123127900Y-70878400D01*
X156560000Y-100677500D02*
X156560000Y-107895200D01*
X113662100Y-70254600D02*
X122504100Y-70254600D01*
X121743000Y-120545900D02*
X121743000Y-118457200D01*
X104645600Y-100831300D02*
X104128800Y-100314500D01*
X123127900Y-70878400D02*
X123728600Y-70878400D01*
X104128800Y-79787900D02*
X113662100Y-70254600D01*
X123728600Y-70878400D02*
X124153300Y-70453700D01*
X156675800Y-108011000D02*
X156675800Y-117546800D01*
X156560000Y-107895200D02*
X156675800Y-108011000D01*
X115364100Y-112078300D02*
X115364100Y-110864600D01*
X121718000Y-64020000D02*
X121718000Y-68845100D01*
X121743000Y-118457200D02*
X115364100Y-112078300D01*
%TO.N,/AD1*%
X115664500Y-110139500D02*
X115100500Y-110139500D01*
X116089200Y-111128200D02*
X116089200Y-110564200D01*
X121799400Y-70979700D02*
X121654600Y-70834900D01*
X104600100Y-79953200D02*
X104600100Y-99200100D01*
X124603400Y-70640200D02*
X124603400Y-69197500D01*
X121654600Y-70834900D02*
X113718400Y-70834900D01*
X124270000Y-125365000D02*
X124270000Y-120539900D01*
X106266600Y-101305600D02*
X106266600Y-100866600D01*
X122148200Y-71328500D02*
X123915100Y-71328500D01*
X115100500Y-110139500D02*
X106266600Y-101305600D01*
X104600100Y-99200100D02*
X106266600Y-100866600D01*
X113718400Y-70834900D02*
X104600100Y-79953200D01*
X116089200Y-110564200D02*
X115664500Y-110139500D01*
X127355100Y-73644800D02*
X127355100Y-81481600D01*
X124270000Y-120539900D02*
X124270000Y-119309000D01*
X123915100Y-71328500D02*
X124603400Y-70640200D01*
X129752100Y-70854700D02*
X129752100Y-71247800D01*
X121799400Y-70979700D02*
X122148200Y-71328500D01*
X124245000Y-64014000D02*
X124245000Y-68839100D01*
X129752100Y-71247800D02*
X127355100Y-73644800D01*
X124603400Y-69197500D02*
X124245000Y-68839100D01*
X124270000Y-119309000D02*
X116089200Y-111128200D01*
X127355100Y-81481600D02*
X127060800Y-81775900D01*
%TO.N,/AD2*%
X121535500Y-104083900D02*
X121535400Y-104083900D01*
X158997400Y-76649300D02*
X158997400Y-87380600D01*
X121007000Y-80602400D02*
X125469300Y-80602400D01*
X126764000Y-70250200D02*
X126827200Y-70313400D01*
X126789000Y-125379000D02*
X126789000Y-120553900D01*
X157176300Y-74828200D02*
X158997400Y-76649300D01*
X158997400Y-87380600D02*
X158048200Y-88329800D01*
X125648200Y-113414700D02*
X125513800Y-113549100D01*
X125648200Y-108196600D02*
X125648200Y-113414700D01*
X118673300Y-98878100D02*
X118673300Y-96967400D01*
X158048200Y-93325200D02*
X159712300Y-94989300D01*
X121535400Y-101740200D02*
X118673300Y-98878100D01*
X121535500Y-104083900D02*
X125648200Y-108196600D01*
X125513800Y-113549100D02*
X125513800Y-119278700D01*
X128727300Y-71526700D02*
X126493500Y-73760500D01*
X118673300Y-96967400D02*
X119047500Y-96593200D01*
X158048200Y-88329800D02*
X158048200Y-93325200D01*
X128727300Y-70513500D02*
X128727300Y-71526700D01*
X125513800Y-119278700D02*
X126789000Y-120553900D01*
X126493500Y-74235500D02*
X126493500Y-79222000D01*
X126493500Y-73760500D02*
X126493500Y-74235500D01*
X126764000Y-64028000D02*
X126764000Y-70250200D01*
X121535400Y-104083900D02*
X121535400Y-101740200D01*
X119047500Y-82561900D02*
X121007000Y-80602400D01*
X119047500Y-96593200D02*
X119047500Y-82561900D01*
D18*
%TO.N,/GND*%
X172156000Y-63970000D02*
X172156000Y-68920100D01*
X128917700Y-69120900D02*
X127677300Y-70361300D01*
X116954800Y-68968100D02*
X116675000Y-68968100D01*
X159194700Y-116312800D02*
X159772000Y-116890100D01*
X142389200Y-92501800D02*
X138669500Y-96221500D01*
X122954300Y-69679400D02*
X121435000Y-69679400D01*
X129308000Y-120414900D02*
X129213000Y-120414900D01*
X190205000Y-86019100D02*
X190205000Y-91084000D01*
X116700000Y-125369000D02*
X116700000Y-120418900D01*
X172181000Y-125321000D02*
X172181000Y-120370900D01*
X159661300Y-99431000D02*
X159661300Y-106383500D01*
X129213000Y-120414900D02*
X129020600Y-120222500D01*
X172156000Y-68920100D02*
X172140000Y-68936100D01*
X127677300Y-70361300D02*
X127677300Y-71374300D01*
X172140000Y-68936100D02*
X169626000Y-68936100D01*
X121435000Y-69679400D02*
X119193000Y-67437400D01*
X177201000Y-72312500D02*
X177201000Y-64028000D01*
X119218000Y-120432900D02*
X119204000Y-120418900D01*
X116954800Y-68968100D02*
X116954800Y-69143400D01*
X169651000Y-120386900D02*
X169667000Y-120370900D01*
X159194700Y-106850100D02*
X159194700Y-116312800D01*
X119218000Y-125383000D02*
X119218000Y-120432900D01*
X127677300Y-71374300D02*
X125626900Y-73424700D01*
X169626000Y-63986000D02*
X169626000Y-68936100D01*
X119193000Y-65269500D02*
X119193000Y-67437400D01*
X190245000Y-85356500D02*
X190245000Y-85979100D01*
X116675000Y-64018000D02*
X116675000Y-68968100D01*
X169667000Y-120370900D02*
X171671200Y-120370900D01*
X117275200Y-120418900D02*
X117275200Y-120261300D01*
X125126100Y-84350100D02*
X125504600Y-84728600D01*
X125626900Y-73424700D02*
X125626900Y-79557500D01*
X125626900Y-79557500D02*
X126362100Y-80292700D01*
X177226000Y-119923300D02*
X176965800Y-119923300D01*
X158712500Y-98482200D02*
X159661300Y-99431000D01*
X117275200Y-120418900D02*
X116700000Y-120418900D01*
X190205000Y-91084000D02*
X190205000Y-92329100D01*
X159661300Y-106383500D02*
X159194700Y-106850100D01*
X125126100Y-82178700D02*
X125126100Y-84350100D01*
X190245000Y-85356500D02*
X177201000Y-72312500D01*
X126362100Y-80942700D02*
X125126100Y-82178700D01*
X117662300Y-68968100D02*
X116954800Y-68968100D01*
X138669500Y-96221500D02*
X138669500Y-98450000D01*
X126362100Y-80292700D02*
X126362100Y-80942700D01*
X129308000Y-125365000D02*
X129308000Y-120414900D01*
X171671200Y-120370900D02*
X171671200Y-120153500D01*
X169626000Y-68958200D02*
X169769800Y-69102000D01*
X177226000Y-119923300D02*
X177226000Y-125379000D01*
X169626000Y-68936100D02*
X169626000Y-68958200D01*
X190245000Y-85979100D02*
X190205000Y-86019100D01*
X129283000Y-64014000D02*
X129283000Y-68997900D01*
X129283000Y-68997900D02*
X129160000Y-69120900D01*
X129160000Y-69120900D02*
X128917700Y-69120900D01*
X169651000Y-125337000D02*
X169651000Y-120386900D01*
X190245000Y-84734000D02*
X190245000Y-85356500D01*
X125504600Y-84728600D02*
X125504600Y-90348000D01*
X177226000Y-105308100D02*
X177226000Y-119923300D01*
X171671200Y-120370900D02*
X172181000Y-120370900D01*
X119193000Y-67437400D02*
X117662300Y-68968100D01*
X123428200Y-70153300D02*
X122954300Y-69679400D01*
X119193000Y-64032000D02*
X119193000Y-65269500D01*
X190205000Y-92329100D02*
X177226000Y-105308100D01*
X119204000Y-120418900D02*
X117275200Y-120418900D01*
D17*
%TO.N,/AD3*%
X128562600Y-97556600D02*
X130504100Y-99498100D01*
X152318700Y-112065900D02*
X154247000Y-110137600D01*
X127019200Y-82885000D02*
X127019200Y-91758400D01*
X131806000Y-64003000D02*
X131806000Y-69830500D01*
X130504100Y-103874400D02*
X129817600Y-104560900D01*
X154247000Y-110137600D02*
X154247000Y-104350200D01*
X128562600Y-93301800D02*
X128562600Y-97556600D01*
X154247000Y-104350200D02*
X154710600Y-103886600D01*
X131831000Y-125354000D02*
X131831000Y-112654200D01*
X127019200Y-91758400D02*
X128562600Y-93301800D01*
X127805200Y-73831300D02*
X127805200Y-82099000D01*
X131806000Y-69830500D02*
X127805200Y-73831300D01*
X131831000Y-106574300D02*
X129817600Y-104560900D01*
X130504100Y-99498100D02*
X130504100Y-103874400D01*
X154710600Y-103886600D02*
X154710600Y-100002100D01*
X131831000Y-112654200D02*
X132824300Y-112654200D01*
X128928100Y-104560900D02*
X128906300Y-104539100D01*
X127805200Y-82099000D02*
X127019200Y-82885000D01*
X129817600Y-104560900D02*
X128928100Y-104560900D01*
X131831000Y-112654200D02*
X131831000Y-106574300D01*
%TO.N,/AD4*%
X143256700Y-108244200D02*
X142330700Y-107318200D01*
X143256700Y-110257900D02*
X143256700Y-108244200D01*
X142330700Y-97588100D02*
X142023800Y-97281200D01*
X141922000Y-120533900D02*
X142954900Y-119501000D01*
X142330700Y-107318200D02*
X142330700Y-97588100D01*
X141467100Y-87735700D02*
X142358100Y-86844700D01*
X141922000Y-125359000D02*
X141922000Y-120533900D01*
X142023800Y-96201300D02*
X142294600Y-95930500D01*
X143692700Y-94532400D02*
X143692700Y-93673500D01*
X142838200Y-110676400D02*
X143256700Y-110257900D01*
X143692700Y-91924900D02*
X141467100Y-89699300D01*
X142358100Y-86844700D02*
X142358100Y-69294200D01*
X141467100Y-89699300D02*
X141467100Y-87735700D01*
X142954900Y-118861900D02*
X142838200Y-118745200D01*
X141897000Y-64008000D02*
X141897000Y-68833100D01*
X142294600Y-95930500D02*
X143692700Y-94532400D01*
X142358100Y-69294200D02*
X141897000Y-68833100D01*
X143692700Y-93673500D02*
X143692700Y-91924900D01*
X142954900Y-119501000D02*
X142954900Y-118861900D01*
X142838200Y-118745200D02*
X142838200Y-110676400D01*
X142023800Y-97281200D02*
X142023800Y-96201300D01*
%TO.N,/AD5*%
X146007300Y-73091300D02*
X144526500Y-74572100D01*
X118597300Y-96406800D02*
X118597300Y-82375500D01*
X144418000Y-64000000D02*
X144418000Y-70383800D01*
X144188500Y-107902800D02*
X143998200Y-107712500D01*
X143998200Y-96468300D02*
X145623200Y-94843300D01*
X144209300Y-90750000D02*
X145623200Y-92163900D01*
X145623200Y-92163900D02*
X145623200Y-94843300D01*
X145608600Y-119360300D02*
X145608600Y-111390900D01*
X118164200Y-99005600D02*
X118164200Y-96839900D01*
X144526500Y-74572100D02*
X144526500Y-78649500D01*
X118549800Y-100467300D02*
X118549800Y-99391200D01*
X144443000Y-120525900D02*
X145608600Y-119360300D01*
X146007300Y-71973100D02*
X146007300Y-73091300D01*
X118164200Y-100852900D02*
X118549800Y-100467300D01*
X144443000Y-125351000D02*
X144443000Y-120525900D01*
X118164200Y-96839900D02*
X118597300Y-96406800D01*
X118597300Y-82375500D02*
X123108500Y-77864300D01*
X144418000Y-70383800D02*
X146007300Y-71973100D01*
X144526500Y-78649500D02*
X145129000Y-79252000D01*
X123108500Y-77864300D02*
X123108500Y-77557900D01*
X144209300Y-88449100D02*
X144209300Y-90750000D01*
X145129000Y-87529400D02*
X144209300Y-88449100D01*
X145608600Y-111390900D02*
X144188500Y-109970800D01*
X118549800Y-99391200D02*
X118164200Y-99005600D01*
X143998200Y-107712500D02*
X143998200Y-96468300D01*
X144188500Y-109970800D02*
X144188500Y-107902800D01*
X145129000Y-79252000D02*
X145129000Y-87529400D01*
%TO.N,/AD6*%
X151982000Y-68794100D02*
X151119900Y-69656200D01*
X149454300Y-91891800D02*
X149454300Y-92537100D01*
X147248900Y-107331000D02*
X147889300Y-107971400D01*
X150995700Y-96318900D02*
X150995700Y-91551400D01*
X149671700Y-113242200D02*
X152007000Y-115577500D01*
X149612800Y-96709000D02*
X146698900Y-99622900D01*
X151119900Y-69656200D02*
X151119900Y-87143900D01*
X147889300Y-108978200D02*
X149671700Y-110760600D01*
X146698900Y-99622900D02*
X146698900Y-102874200D01*
X149612800Y-92695600D02*
X149612800Y-96709000D01*
X147248900Y-103424200D02*
X147248900Y-107331000D01*
X151119900Y-87143900D02*
X152038700Y-88062700D01*
X152007000Y-115577500D02*
X152007000Y-120494900D01*
X149671700Y-110760600D02*
X149671700Y-113242200D01*
X150995700Y-91551400D02*
X150597900Y-91153600D01*
X147889300Y-107971400D02*
X147889300Y-108978200D01*
X150597900Y-91153600D02*
X150192500Y-91153600D01*
X149454300Y-92537100D02*
X149612800Y-92695600D01*
X150192500Y-91153600D02*
X149454300Y-91891800D01*
X152038700Y-88062700D02*
X152038700Y-89712800D01*
X151402800Y-96726000D02*
X150995700Y-96318900D01*
X151982000Y-63969000D02*
X151982000Y-68794100D01*
X146698900Y-102874200D02*
X147248900Y-103424200D01*
X152007000Y-125320000D02*
X152007000Y-120494900D01*
X152038700Y-89712800D02*
X150597900Y-91153600D01*
%TO.N,/AD7*%
X154526000Y-125306000D02*
X154526000Y-120480900D01*
X155214300Y-119792600D02*
X155214300Y-106570400D01*
X155474300Y-104457700D02*
X155474300Y-99460000D01*
X121523600Y-77466600D02*
X123649000Y-75341200D01*
X155474300Y-99460000D02*
X154646300Y-98632000D01*
X153531100Y-87489500D02*
X154821400Y-88779800D01*
X155214300Y-106570400D02*
X156064400Y-105720300D01*
X154501000Y-68780100D02*
X153932400Y-69348700D01*
X154821400Y-88779800D02*
X154821400Y-89842900D01*
X154821400Y-89842900D02*
X155300800Y-90322300D01*
X154501000Y-63955000D02*
X154501000Y-68780100D01*
X121523600Y-78176000D02*
X121523600Y-77466600D01*
X155300800Y-90322300D02*
X155300800Y-97977500D01*
X154526000Y-120480900D02*
X155214300Y-119792600D01*
X123649000Y-75341200D02*
X124262900Y-75341200D01*
X117381400Y-86290700D02*
X117381400Y-82318200D01*
X153932400Y-69348700D02*
X153932400Y-76026900D01*
X156064400Y-105720300D02*
X156064400Y-105047800D01*
X153932400Y-76026900D02*
X153531100Y-76428200D01*
X117381400Y-82318200D02*
X121523600Y-78176000D01*
X153531100Y-76428200D02*
X153531100Y-87489500D01*
X156064400Y-105047800D02*
X155474300Y-104457700D01*
X155300800Y-97977500D02*
X154646300Y-98632000D01*
%TO.N,/Chip_Enable*%
X122240200Y-89046600D02*
X122240200Y-86538000D01*
X150179400Y-92236800D02*
X150179400Y-97585900D01*
X150179400Y-97585900D02*
X149827300Y-97938000D01*
X127212300Y-98218000D02*
X127212300Y-94018700D01*
X128878800Y-101086500D02*
X128878800Y-99884500D01*
X128878800Y-99884500D02*
X127212300Y-98218000D01*
X127212300Y-94018700D02*
X122240200Y-89046600D01*
%TO.N,/A10*%
X152141000Y-97062500D02*
X152141000Y-91878800D01*
X133158800Y-88069700D02*
X133158800Y-95867900D01*
X134298100Y-97007200D02*
X134298100Y-99278300D01*
X151547800Y-97655700D02*
X152141000Y-97062500D01*
X109416700Y-96241000D02*
X106063700Y-92888000D01*
X150918000Y-97655700D02*
X151547800Y-97655700D01*
X133281500Y-87947000D02*
X133158800Y-88069700D01*
X109416700Y-97085200D02*
X109416700Y-96241000D01*
X133158800Y-95867900D02*
X134298100Y-97007200D01*
X152141000Y-91878800D02*
X151735300Y-91473100D01*
%TO.N,/Output_Enable*%
X135044500Y-99344200D02*
X135314000Y-99613700D01*
X110262200Y-94539500D02*
X105621800Y-89899100D01*
X119435300Y-98572700D02*
X123512600Y-102650000D01*
X135044500Y-92520200D02*
X135044500Y-99344200D01*
X110262200Y-98572700D02*
X110262200Y-94539500D01*
X123512600Y-102650000D02*
X123512600Y-103015400D01*
X105621800Y-82524800D02*
X105790000Y-82356600D01*
X105621800Y-89899100D02*
X105621800Y-82524800D01*
%TO.N,/A11*%
X157066100Y-87718900D02*
X157598000Y-88250800D01*
X157598000Y-96342300D02*
X160236400Y-98980700D01*
X108618800Y-84970700D02*
X108642200Y-84994100D01*
X108642200Y-86540500D02*
X114398800Y-92297100D01*
X139570200Y-87181900D02*
X138698900Y-88053200D01*
X114398800Y-104071200D02*
X115624200Y-105296600D01*
X160236400Y-107023300D02*
X160075500Y-107184200D01*
X133985900Y-102932200D02*
X133985900Y-103908600D01*
X138698900Y-95197300D02*
X137923700Y-95972500D01*
X108642200Y-84994100D02*
X108642200Y-86540500D01*
X134321200Y-102596900D02*
X133985900Y-102932200D01*
X160236400Y-98980700D02*
X160236400Y-107023300D01*
X114398800Y-92297100D02*
X114398800Y-104071200D01*
X137923700Y-99470200D02*
X138075800Y-99622300D01*
X139570200Y-82072100D02*
X139570200Y-87181900D01*
X157598000Y-88250800D02*
X157598000Y-96342300D01*
X140098500Y-81543800D02*
X139570200Y-82072100D01*
X138698900Y-88053200D02*
X138698900Y-95197300D01*
X137923700Y-95972500D02*
X137923700Y-99470200D01*
%TO.N,/A9*%
X168297400Y-119104700D02*
X168297400Y-76083800D01*
X122908300Y-75445200D02*
X120848500Y-77505000D01*
X120848500Y-78214500D02*
X116656300Y-82406700D01*
X120848500Y-77505000D02*
X120848500Y-78214500D01*
X113650900Y-89887200D02*
X113650900Y-89229000D01*
X157401100Y-106944500D02*
X157314700Y-106858100D01*
X122908300Y-74581200D02*
X122908300Y-75445200D01*
X113650900Y-89229000D02*
X110069200Y-85647300D01*
X157892700Y-119603700D02*
X157401100Y-119112100D01*
X116656300Y-87847300D02*
X116958500Y-88149500D01*
X115935700Y-92172000D02*
X113650900Y-89887200D01*
X157401100Y-119112100D02*
X157401100Y-106944500D01*
X116656300Y-82406700D02*
X116656300Y-87847300D01*
X168297400Y-76083800D02*
X168294500Y-76080900D01*
X119797100Y-106048300D02*
X115935700Y-102186900D01*
X115935700Y-102186900D02*
X115935700Y-92172000D01*
%TO.N,/A8*%
X114849000Y-102129900D02*
X114849000Y-92110800D01*
X121021700Y-106881900D02*
X119601000Y-106881900D01*
X114849000Y-92110800D02*
X109264400Y-86526200D01*
X152663200Y-113511300D02*
X153385100Y-113511300D01*
X109350400Y-82018300D02*
X108519200Y-81187100D01*
X150637800Y-110453500D02*
X150637800Y-111485900D01*
X121737100Y-107597300D02*
X121021700Y-106881900D01*
X109350400Y-85288100D02*
X109350400Y-82018300D01*
X109264400Y-85374100D02*
X109350400Y-85288100D01*
X148948500Y-107036000D02*
X148948500Y-108764200D01*
X109264400Y-86526200D02*
X109264400Y-85374100D01*
X119601000Y-106881900D02*
X114849000Y-102129900D01*
X150637800Y-111485900D02*
X152663200Y-113511300D01*
X148948500Y-108764200D02*
X150637800Y-110453500D01*
X149733500Y-106251000D02*
X148948500Y-107036000D01*
%TO.N,/A13*%
X147149000Y-102687700D02*
X147699000Y-103237700D01*
X128181100Y-104900100D02*
X128181100Y-103646100D01*
X151121800Y-104321700D02*
X153275600Y-106475500D01*
X130054000Y-99684600D02*
X128112500Y-97743100D01*
X128644500Y-83819200D02*
X128644500Y-83998000D01*
X148240900Y-104321700D02*
X151121800Y-104321700D01*
X130054000Y-101773200D02*
X130054000Y-99684600D01*
X147699000Y-103779800D02*
X148240900Y-104321700D01*
X152518900Y-90683400D02*
X152643600Y-90808100D01*
X128112500Y-93488300D02*
X126251300Y-91627100D01*
X130035600Y-82428100D02*
X128644500Y-83819200D01*
X149858100Y-100025500D02*
X147751100Y-100025500D01*
X128181100Y-103646100D02*
X130054000Y-101773200D01*
X147699000Y-103237700D02*
X147699000Y-103779800D01*
X129883200Y-106602200D02*
X128181100Y-104900100D01*
X152518900Y-88158300D02*
X152518900Y-90683400D01*
X152643600Y-90808100D02*
X152643600Y-97240000D01*
X152643600Y-97240000D02*
X149858100Y-100025500D01*
X147149000Y-100627600D02*
X147149000Y-102687700D01*
X128112500Y-97743100D02*
X128112500Y-93488300D01*
X126251300Y-84273100D02*
X125976200Y-83998000D01*
X152781400Y-87895800D02*
X152518900Y-88158300D01*
X147751100Y-100025500D02*
X147149000Y-100627600D01*
X129883200Y-107540000D02*
X129883200Y-106602200D01*
X126251300Y-91627100D02*
X126251300Y-84273100D01*
%TO.N,/A14*%
X138578700Y-105168900D02*
X138578700Y-107632100D01*
X141880600Y-97774600D02*
X141158800Y-97052800D01*
X141133800Y-90220900D02*
X143114300Y-92201400D01*
X141880600Y-107504700D02*
X141880600Y-97774600D01*
X142531600Y-108155700D02*
X141880600Y-107504700D01*
X143114300Y-92201400D02*
X143114300Y-92802200D01*
X139430100Y-98133100D02*
X139430100Y-104317500D01*
X141158800Y-94757700D02*
X141158800Y-97052800D01*
X142531600Y-109957500D02*
X142531600Y-108155700D01*
X143114300Y-92802200D02*
X141158800Y-94757700D01*
X140961500Y-90220900D02*
X141133800Y-90220900D01*
X141158800Y-97052800D02*
X140510400Y-97052800D01*
X140510400Y-97052800D02*
X139430100Y-98133100D01*
X139430100Y-104317500D02*
X138578700Y-105168900D01*
%TO.N,/{slash}write*%
X133549400Y-111525600D02*
X133549400Y-118253500D01*
X113629900Y-71560000D02*
X105052800Y-80137100D01*
X116539300Y-110377700D02*
X110249700Y-104088100D01*
X110078300Y-103425200D02*
X110078300Y-104088100D01*
X133549400Y-111525600D02*
X132577300Y-111525600D01*
X120775200Y-71560000D02*
X113629900Y-71560000D01*
X133549400Y-108903900D02*
X133549400Y-111525600D01*
X121046600Y-115056400D02*
X120890400Y-115056400D01*
X116539300Y-110705300D02*
X116539300Y-110377700D01*
X110249700Y-104088100D02*
X110078300Y-104088100D01*
X105052800Y-80137100D02*
X105052800Y-98399700D01*
X105052800Y-98399700D02*
X110078300Y-103425200D01*
X120890400Y-115056400D02*
X116539300Y-110705300D01*
X133549400Y-118253500D02*
X133155600Y-118647300D01*
D18*
%TO.N,/VCC*%
X131058500Y-81819700D02*
X132912600Y-79965600D01*
X156499000Y-69491100D02*
X156147300Y-69139400D01*
X136168900Y-116987300D02*
X136965900Y-117784300D01*
X136844000Y-64017000D02*
X136844000Y-69104200D01*
X133610200Y-69913400D02*
X136034800Y-69913400D01*
X157019000Y-64021000D02*
X157019000Y-68971100D01*
X157019000Y-68971100D02*
X156499000Y-69491100D01*
X131058500Y-82970600D02*
X131058500Y-81819700D01*
X133099800Y-70423800D02*
X133610200Y-69913400D01*
X155803900Y-79558000D02*
X154256200Y-81105700D01*
X136965900Y-117784300D02*
X136869000Y-117881200D01*
X157044000Y-120421900D02*
X156840900Y-120218800D01*
X156499000Y-69491100D02*
X155803900Y-70186200D01*
X155789500Y-118738700D02*
X155789500Y-112637900D01*
X136869000Y-120417900D02*
X138050400Y-120417900D01*
X136168900Y-112438900D02*
X136168900Y-116987300D01*
X136869000Y-117881200D02*
X136869000Y-120417900D01*
X132912600Y-79965600D02*
X133099800Y-79778400D01*
X157044000Y-125372000D02*
X157044000Y-120421900D01*
X128862500Y-85166600D02*
X131058500Y-82970600D01*
X133099800Y-79778400D02*
X133099800Y-70423800D01*
X136034800Y-69913400D02*
X136828000Y-69120200D01*
X156840900Y-120218800D02*
X156840900Y-119790100D01*
X136869000Y-125368000D02*
X136869000Y-120417900D01*
X156840900Y-119790100D02*
X155789500Y-118738700D01*
X155803900Y-70186200D02*
X155803900Y-79558000D01*
X136844000Y-69104200D02*
X136828000Y-69120200D01*
X155789500Y-112637900D02*
X155945100Y-112482300D01*
D17*
%TO.N,/AD8*%
X127919400Y-87986300D02*
X131460200Y-91527100D01*
X134789500Y-100815300D02*
X135380100Y-100815300D01*
X141769300Y-108255100D02*
X140702400Y-107188200D01*
X107962700Y-99238000D02*
X110941400Y-102216700D01*
X110941400Y-102216700D02*
X110941400Y-104082100D01*
X127919400Y-83424400D02*
X127919400Y-87986300D01*
X142388100Y-119004000D02*
X142388100Y-112971800D01*
X142388100Y-112971800D02*
X141769300Y-112353000D01*
X141769300Y-112353000D02*
X141769300Y-108255100D01*
X140479400Y-106142600D02*
X140702400Y-106142600D01*
X110941400Y-104082100D02*
X110941500Y-104082100D01*
X131460200Y-91527100D02*
X131460200Y-97150900D01*
X136716500Y-104198900D02*
X136408500Y-104506900D01*
X140702400Y-106142600D02*
X140702400Y-99063100D01*
X135380100Y-100815300D02*
X136716500Y-102151700D01*
X140702400Y-107188200D02*
X140702400Y-106142600D01*
X131460200Y-97150900D02*
X132855700Y-98546400D01*
X132249700Y-79094100D02*
X127919400Y-83424400D01*
X132855700Y-98546400D02*
X132855700Y-98881500D01*
X136716500Y-102151700D02*
X136716500Y-104198900D01*
X132249700Y-73876800D02*
X132249700Y-79094100D01*
X142229800Y-119162300D02*
X142388100Y-119004000D01*
X132855700Y-98881500D02*
X134789500Y-100815300D01*
X110941500Y-104082100D02*
X118401700Y-111542300D01*
X140702400Y-99063100D02*
X141155500Y-98610000D01*
%TO.N,/AD9*%
X142788000Y-107138900D02*
X142788000Y-97019800D01*
X143739200Y-91334700D02*
X143739200Y-88439500D01*
X143739200Y-88439500D02*
X142808300Y-87508600D01*
X143288300Y-118261900D02*
X143288300Y-110862900D01*
X143706800Y-110444400D02*
X143706800Y-108057700D01*
X107504200Y-95428000D02*
X107541200Y-95391000D01*
X121677400Y-91347000D02*
X126480000Y-96149600D01*
X144417900Y-95389900D02*
X144417900Y-92013400D01*
X143288300Y-110862900D02*
X143706800Y-110444400D01*
X143706800Y-108057700D02*
X142788000Y-107138900D01*
X144389500Y-119363100D02*
X143288300Y-118261900D01*
X142808300Y-74925700D02*
X145258300Y-72475700D01*
X142808300Y-87508600D02*
X142808300Y-74925700D01*
X144417900Y-92013400D02*
X143739200Y-91334700D01*
X121677400Y-91245100D02*
X121677400Y-91347000D01*
X105840900Y-95428000D02*
X107504200Y-95428000D01*
X142788000Y-97019800D02*
X144417900Y-95389900D01*
%TO.N,/AD10*%
X122183200Y-74280900D02*
X122608000Y-73856100D01*
X124449400Y-112432700D02*
X124449400Y-108900200D01*
X141938000Y-118231200D02*
X141041300Y-119127900D01*
X115756100Y-86101600D02*
X115756100Y-81131900D01*
X115756100Y-88616900D02*
X115756100Y-86101600D01*
X112428000Y-86101600D02*
X115756100Y-86101600D01*
X141938000Y-113158300D02*
X141938000Y-118231200D01*
X115756100Y-81131900D02*
X122183200Y-74704800D01*
X122608000Y-73856100D02*
X123571700Y-73856100D01*
X116431200Y-89292000D02*
X115756100Y-88616900D01*
X139754300Y-106876800D02*
X141262700Y-108385200D01*
X124449400Y-108900200D02*
X116431200Y-100882000D01*
X122183200Y-74704800D02*
X122183200Y-74280900D01*
X141262700Y-112483000D02*
X141938000Y-113158300D01*
X123571700Y-73856100D02*
X125013900Y-72413900D01*
X140155300Y-98462500D02*
X140155300Y-104228900D01*
X141262700Y-108385200D02*
X141262700Y-112483000D01*
X139754300Y-104629900D02*
X139754300Y-106876800D01*
X116431200Y-100882000D02*
X116431200Y-89292000D01*
X140155300Y-104228900D02*
X139754300Y-104629900D01*
%TO.N,/AD11*%
X137321400Y-99938000D02*
X138066800Y-100683400D01*
X137321400Y-94735100D02*
X137321400Y-99938000D01*
X137311200Y-87842600D02*
X138190100Y-88721500D01*
X137311200Y-72423900D02*
X137311200Y-87842600D01*
X138190100Y-88721500D02*
X138190100Y-93866400D01*
X138190100Y-93866400D02*
X137321400Y-94735100D01*
X140752100Y-68983000D02*
X137311200Y-72423900D01*
X137844700Y-115635500D02*
X140084100Y-117874900D01*
X138066800Y-106352500D02*
X137844700Y-106574600D01*
X137246500Y-94735100D02*
X137321400Y-94735100D01*
X137844700Y-106574600D02*
X137844700Y-115635500D01*
X113235800Y-92159700D02*
X108884100Y-87808000D01*
X140084200Y-119656600D02*
X140793400Y-120365800D01*
X138066800Y-100683400D02*
X138066800Y-106352500D01*
X140084100Y-119656600D02*
X140084200Y-119656600D01*
X140084100Y-117874900D02*
X140084100Y-119656600D01*
X126220200Y-97479500D02*
X121347800Y-92607100D01*
%TO.N,/AD12*%
X137166600Y-101056300D02*
X137166600Y-105089900D01*
X136487800Y-109725100D02*
X134862100Y-111350800D01*
X135912300Y-98454900D02*
X135769600Y-98312200D01*
X134862100Y-111350800D02*
X134862100Y-119329900D01*
X134049300Y-70850500D02*
X133962300Y-70763500D01*
X101212400Y-98952400D02*
X101212400Y-82728000D01*
X135769600Y-98312200D02*
X135769600Y-92219800D01*
X135912300Y-98454900D02*
X136137400Y-98680000D01*
X136137400Y-98680000D02*
X136137400Y-100027100D01*
X137166600Y-105089900D02*
X136487800Y-105768700D01*
X136137400Y-100027100D02*
X137166600Y-101056300D01*
X135769600Y-92219800D02*
X135413000Y-91863200D01*
X134049300Y-87237900D02*
X134049300Y-70850500D01*
X118058900Y-115798900D02*
X101212400Y-98952400D01*
X135413000Y-91863200D02*
X135413000Y-88601600D01*
X135413000Y-88601600D02*
X134049300Y-87237900D01*
X134862100Y-119329900D02*
X134488800Y-119703200D01*
X136487800Y-105768700D02*
X136487800Y-109725100D01*
%TO.N,/AD13*%
X125174500Y-113251800D02*
X125174500Y-108925400D01*
X117099500Y-96087800D02*
X117099500Y-89323600D01*
X125192000Y-98918800D02*
X125979600Y-98918800D01*
X125174500Y-108925400D02*
X117099500Y-100850400D01*
X117099500Y-89323600D02*
X116206200Y-88430300D01*
X125063700Y-119872800D02*
X125063700Y-113362600D01*
X116206200Y-88430300D02*
X116206200Y-81831100D01*
X117099500Y-100850400D02*
X117099500Y-96087800D01*
X116206200Y-81831100D02*
X118208500Y-79828800D01*
X117954100Y-75994100D02*
X117954100Y-75655500D01*
X117099500Y-96087800D02*
X117173100Y-96087800D01*
X125063700Y-113362600D02*
X125174500Y-113251800D01*
X117954100Y-75655500D02*
X120125600Y-73484000D01*
X125348500Y-120157600D02*
X125063700Y-119872800D01*
X122240600Y-95967400D02*
X125192000Y-98918800D01*
%TO.N,/AD14*%
X127123600Y-119119200D02*
X126963300Y-119279500D01*
X127441100Y-116751100D02*
X127123600Y-117068600D01*
X127441100Y-105644300D02*
X127441100Y-116751100D01*
X127280900Y-105484100D02*
X127441100Y-105644300D01*
X132635500Y-92065800D02*
X130388800Y-89819100D01*
X127933800Y-102230500D02*
X127280900Y-102883400D01*
X130388800Y-88381000D02*
X131673300Y-87096500D01*
X130388800Y-89819100D02*
X130388800Y-88381000D01*
X131673300Y-87096500D02*
X131673300Y-82644400D01*
X127933800Y-99980300D02*
X127933800Y-102230500D01*
X131673300Y-82644400D02*
X133221600Y-81096100D01*
X127280900Y-102883400D02*
X127280900Y-105484100D01*
X127123600Y-117068600D02*
X127123600Y-119119200D01*
X132635500Y-96370100D02*
X132635500Y-92065800D01*
%TO.N,/AD15*%
X120239100Y-95062400D02*
X120610000Y-94691500D01*
X126830800Y-101840100D02*
X126416200Y-101840100D01*
X126990900Y-109478100D02*
X126990900Y-114257100D01*
X126922600Y-101840100D02*
X126830800Y-101840100D01*
X120610000Y-82025000D02*
X120928400Y-81706600D01*
X126289100Y-114958900D02*
X126289100Y-118163500D01*
X126830800Y-101840100D02*
X126830800Y-109318000D01*
X126830800Y-109318000D02*
X126990900Y-109478100D01*
X126416200Y-101840100D02*
X120239100Y-95663000D01*
X120239100Y-95663000D02*
X120239100Y-95062400D01*
X126990900Y-114257100D02*
X126289100Y-114958900D01*
X120610000Y-94691500D02*
X120610000Y-82025000D01*
%TO.N,/ALE_L*%
X127469300Y-88321800D02*
X130611000Y-91463500D01*
X130611000Y-91463500D02*
X130611000Y-92745300D01*
X133896100Y-68814100D02*
X129459100Y-73251100D01*
X131010100Y-97337400D02*
X132405500Y-98732800D01*
X111702900Y-86401900D02*
X115664700Y-90363700D01*
X129459100Y-81248000D02*
X127469300Y-83237800D01*
X134325000Y-63989000D02*
X134325000Y-68814100D01*
X134148700Y-119017900D02*
X133763700Y-119402900D01*
X125818700Y-93650500D02*
X122531900Y-90363700D01*
X134350000Y-125340000D02*
X134350000Y-120514900D01*
X127469300Y-83237800D02*
X127469300Y-88321800D01*
X132405500Y-98732800D02*
X132405500Y-99067900D01*
X130611000Y-92745300D02*
X131010100Y-93144400D01*
X135648900Y-104957500D02*
X135799300Y-105107900D01*
X132405500Y-99067900D02*
X134706500Y-101368900D01*
X111702900Y-82860200D02*
X111702900Y-86401900D01*
X135648900Y-104056300D02*
X135648900Y-104957500D01*
X134706500Y-101368900D02*
X135297100Y-101368900D01*
X135297100Y-101368900D02*
X136266400Y-102338200D01*
X122531900Y-90363700D02*
X122243200Y-90363700D01*
X135799300Y-107794500D02*
X134148700Y-109445100D01*
X135799300Y-105107900D02*
X135799300Y-107794500D01*
X134275100Y-120514900D02*
X134350000Y-120514900D01*
X136266400Y-103438800D02*
X135648900Y-104056300D01*
X136266400Y-102338200D02*
X136266400Y-103438800D01*
X133763700Y-120003500D02*
X134275100Y-120514900D01*
X134325000Y-68814100D02*
X133896100Y-68814100D01*
X131010100Y-93144400D02*
X131010100Y-97337400D01*
X109310900Y-80468200D02*
X111702900Y-82860200D01*
X133763700Y-119402900D02*
X133763700Y-120003500D01*
X129459100Y-73251100D02*
X129459100Y-81248000D01*
X134148700Y-109445100D02*
X134148700Y-119017900D01*
%TO.N,/ALE_H*%
X117697200Y-99564100D02*
X117824700Y-99691600D01*
X136219700Y-95305200D02*
X136637400Y-95722900D01*
X139372000Y-68842100D02*
X134943600Y-73270500D01*
X124653100Y-77997100D02*
X123450900Y-76794900D01*
X137616700Y-100869800D02*
X137616700Y-105941100D01*
X137616700Y-105941100D02*
X137364600Y-106193200D01*
X136637400Y-99890500D02*
X137616700Y-100869800D01*
X122846000Y-76794900D02*
X121973700Y-77667200D01*
X123450900Y-76794900D02*
X122846000Y-76794900D01*
X118106500Y-96261000D02*
X117697200Y-96670300D01*
X135921400Y-91735000D02*
X136219700Y-92033300D01*
X134499400Y-79509600D02*
X134499400Y-87013000D01*
X118106500Y-82229700D02*
X118106500Y-96261000D01*
X135921400Y-88435000D02*
X135921400Y-91735000D01*
X134943600Y-73270500D02*
X134943600Y-79065400D01*
X134499400Y-87013000D02*
X135921400Y-88435000D01*
X136637400Y-95722900D02*
X136637400Y-99890500D01*
X121973700Y-78362500D02*
X118106500Y-82229700D01*
X136219700Y-92033300D02*
X136219700Y-95305200D01*
X139372000Y-64017000D02*
X139372000Y-68842100D01*
X121973700Y-77667200D02*
X121973700Y-78362500D01*
X139397000Y-118968400D02*
X139397000Y-125368000D01*
X137364600Y-116936000D02*
X139397000Y-118968400D01*
X137364600Y-106193200D02*
X137364600Y-116936000D01*
X117697200Y-96670300D02*
X117697200Y-99564100D01*
X124653100Y-78165200D02*
X124653100Y-77997100D01*
X134943600Y-79065400D02*
X134499400Y-79509600D01*
%TO.N,/12V_Rear*%
X147002900Y-95144500D02*
X147002900Y-88425500D01*
X144898400Y-107339500D02*
X144898400Y-97249000D01*
X146967000Y-125335000D02*
X146967000Y-120509900D01*
X145088700Y-107529800D02*
X144898400Y-107339500D01*
X146967000Y-120509900D02*
X147337900Y-120139000D01*
X147918100Y-87510300D02*
X147918100Y-69785200D01*
X147337900Y-120139000D02*
X147337900Y-111847000D01*
X144898400Y-97249000D02*
X147002900Y-95144500D01*
X145088700Y-109597800D02*
X145088700Y-107529800D01*
X147002900Y-88425500D02*
X147918100Y-87510300D01*
X146942000Y-63984000D02*
X146942000Y-68809100D01*
X147918100Y-69785200D02*
X146942000Y-68809100D01*
X147337900Y-111847000D02*
X145088700Y-109597800D01*
%TO.N,/12V_2_Rear*%
X148554100Y-92910100D02*
X148712600Y-93068600D01*
X148771500Y-111133600D02*
X148771500Y-113615200D01*
X145798600Y-98258600D02*
X145798600Y-103247200D01*
X149462000Y-63957000D02*
X149462000Y-68782100D01*
X148712600Y-95344600D02*
X145798600Y-98258600D01*
X145798600Y-103247200D02*
X146348700Y-103797300D01*
X150365900Y-119604000D02*
X149487000Y-120482900D01*
X149259300Y-88419600D02*
X149259300Y-90408200D01*
X146348700Y-103797300D02*
X146348700Y-107704100D01*
X149487000Y-125308000D02*
X149487000Y-120482900D01*
X149462000Y-68782100D02*
X148371900Y-69872200D01*
X148554100Y-91113400D02*
X148554100Y-92910100D01*
X146989100Y-109351200D02*
X148771500Y-111133600D01*
X149259300Y-90408200D02*
X148554100Y-91113400D01*
X148771500Y-113615200D02*
X150365900Y-115209600D01*
X148712600Y-93068600D02*
X148712600Y-95344600D01*
X148371900Y-69872200D02*
X148371900Y-87532200D01*
X148371900Y-87532200D02*
X149259300Y-88419600D01*
X146989100Y-108344500D02*
X146989100Y-109351200D01*
X146348700Y-107704100D02*
X146989100Y-108344500D01*
X150365900Y-115209600D02*
X150365900Y-119604000D01*
%TO.N,/CIC_14*%
X159543000Y-67372100D02*
X159543000Y-64015000D01*
X155312900Y-88425500D02*
X156444000Y-87294400D01*
X156444000Y-87294400D02*
X156444000Y-70471100D01*
X158696200Y-119381500D02*
X158058500Y-118743800D01*
X158058500Y-118743800D02*
X158058500Y-101150600D01*
X156444000Y-70471100D02*
X159543000Y-67372100D01*
X155750900Y-98843000D02*
X155750900Y-90135700D01*
X159568000Y-125366000D02*
X158696200Y-124494200D01*
X155750900Y-90135700D02*
X155312900Y-89697700D01*
X155312900Y-89697700D02*
X155312900Y-88425500D01*
X158058500Y-101150600D02*
X155750900Y-98843000D01*
X158696200Y-124494200D02*
X158696200Y-119381500D01*
%TO.N,/{slash}INT1*%
X164538200Y-70586800D02*
X162069000Y-68117600D01*
X164538200Y-108246400D02*
X164538200Y-70586800D01*
X162094000Y-125356000D02*
X162094000Y-120530900D01*
X162094000Y-120530900D02*
X162094000Y-110690600D01*
X162069000Y-68117600D02*
X162069000Y-64005000D01*
X162094000Y-110690600D02*
X164538200Y-108246400D01*
%TO.N,/{slash}NMI*%
X164612000Y-125352000D02*
X165491300Y-124472700D01*
X165491300Y-124472700D02*
X165491300Y-64905300D01*
X165491300Y-64905300D02*
X164587000Y-64001000D01*
%TO.N,/VIDEO_SYNC*%
X166705400Y-124910400D02*
X166705400Y-64387600D01*
X166705400Y-64387600D02*
X167107000Y-63986000D01*
X167132000Y-125337000D02*
X166705400Y-124910400D01*
%TO.N,/RAUDIO*%
X175951700Y-119250200D02*
X175951700Y-65238700D01*
X174707000Y-125320000D02*
X174707000Y-120494900D01*
X175951700Y-65238700D02*
X174682000Y-63969000D01*
X174707000Y-120494900D02*
X175951700Y-119250200D01*
%TO.N,/{slash}read_top*%
X122734000Y-72958600D02*
X122060600Y-72285200D01*
X122060600Y-72285200D02*
X113541300Y-72285200D01*
X113541300Y-72285200D02*
X107764600Y-78061900D01*
X107764600Y-78061900D02*
X107764600Y-82631200D01*
X107764600Y-82631200D02*
X106397800Y-83998000D01*
%TO.N,/12V_Front*%
X146491400Y-73562000D02*
X146491400Y-69403300D01*
X146542700Y-94968100D02*
X146542700Y-88473000D01*
X145579300Y-87509600D02*
X145579300Y-74474100D01*
X144448300Y-107526000D02*
X144448300Y-97062500D01*
X146610300Y-111756000D02*
X144638600Y-109784300D01*
X144638600Y-107716300D02*
X144448300Y-107526000D01*
X146542700Y-88473000D02*
X145579300Y-87509600D01*
X144448300Y-97062500D02*
X146542700Y-94968100D01*
X145579300Y-74474100D02*
X146491400Y-73562000D01*
X146610300Y-119815600D02*
X146610300Y-111756000D01*
X146491400Y-69403300D02*
X146402100Y-69314000D01*
X144638600Y-109784300D02*
X144638600Y-107716300D01*
%TO.N,/12V_2_Front*%
X149004200Y-91299900D02*
X149004200Y-92723600D01*
X147439200Y-109164700D02*
X149221600Y-110947100D01*
X146798800Y-103610700D02*
X146798800Y-107517600D01*
X149004200Y-92723600D02*
X149162700Y-92882100D01*
X150816000Y-120303400D02*
X150708600Y-120410800D01*
X146248700Y-103060600D02*
X146798800Y-103610700D01*
X150669700Y-71066100D02*
X150669700Y-87368900D01*
X149162700Y-95531100D02*
X146248700Y-98445100D01*
X149221600Y-110947100D02*
X149221600Y-113428700D01*
X149446000Y-69842400D02*
X150669700Y-71066100D01*
X149162700Y-92882100D02*
X149162700Y-95531100D01*
X149745400Y-90558700D02*
X149004200Y-91299900D01*
X150816000Y-115023100D02*
X150816000Y-120303400D01*
X147439200Y-108158000D02*
X147439200Y-109164700D01*
X149745400Y-88293200D02*
X149745400Y-90558700D01*
X146798800Y-107517600D02*
X147439200Y-108158000D01*
X146248700Y-98445100D02*
X146248700Y-103060600D01*
X149221600Y-113428700D02*
X150816000Y-115023100D01*
X150669700Y-87368900D02*
X149745400Y-88293200D01*
%TO.N,/CIC_15*%
X160395400Y-94068200D02*
X161032000Y-94704800D01*
X161032000Y-119081900D02*
X159849000Y-120264900D01*
X159527000Y-69115400D02*
X159447600Y-69194800D01*
X161032000Y-94704800D02*
X161032000Y-119081900D01*
X159447600Y-69194800D02*
X159447600Y-87527900D01*
X159447600Y-87527900D02*
X160395400Y-88475700D01*
X160395400Y-88475700D02*
X160395400Y-94068200D01*
%TO.N,/CIC_11*%
X161732400Y-87546000D02*
X161732400Y-69133700D01*
X161501900Y-94312900D02*
X160845600Y-93656600D01*
X160845600Y-93656600D02*
X160845600Y-88432800D01*
X161276700Y-120252600D02*
X161501900Y-120027400D01*
X160845600Y-88432800D02*
X161732400Y-87546000D01*
X161732400Y-69133700D02*
X161706100Y-69107400D01*
X161501900Y-120027400D02*
X161501900Y-94312900D01*
%TO.N,/{slash}COLD_RESET*%
X108552400Y-100873600D02*
X107193800Y-99515000D01*
X162823700Y-112870900D02*
X164023800Y-112870900D01*
X165028900Y-111865800D02*
X165028900Y-69601400D01*
X164023800Y-112870900D02*
X165028900Y-111865800D01*
X107655400Y-98485400D02*
X108309000Y-98485400D01*
X112303400Y-102479800D02*
X112303400Y-104303100D01*
X107193800Y-99515000D02*
X107193800Y-98947000D01*
X112303400Y-104303100D02*
X118080500Y-110080200D01*
X164023800Y-112870900D02*
X164023800Y-120223100D01*
X165028900Y-69601400D02*
X164540700Y-69113200D01*
X107193800Y-98947000D02*
X107655400Y-98485400D01*
X108309000Y-98485400D02*
X112303400Y-102479800D01*
%TO.N,/EEPROM_DAT*%
X167569200Y-69234200D02*
X167569200Y-120234700D01*
X167457000Y-69122000D02*
X167569200Y-69234200D01*
%TO.N,/LAUDIO*%
X173440200Y-70957000D02*
X173440200Y-120396500D01*
X175227200Y-69170000D02*
X173440200Y-70957000D01*
%TO.N,/{slash}read_bottom*%
X126238900Y-102911800D02*
X119781700Y-96454600D01*
X126238900Y-113849400D02*
X126238900Y-102911800D01*
X119781700Y-96454600D02*
X119781700Y-84085600D01*
%TO.N,/Button*%
X194691000Y-91087000D02*
X194691000Y-89966900D01*
X194730000Y-84735000D02*
X194730000Y-89927900D01*
X111258000Y-76619900D02*
X111812900Y-77174800D01*
X194730000Y-89927900D02*
X194691000Y-89966900D01*
X111812900Y-77174800D02*
X118647300Y-77174800D01*
X118647300Y-77174800D02*
X121256500Y-74565600D01*
%TD*%
M02*
