%TF.GenerationSoftware,KiCad,Pcbnew,(6.0.2)*%
%TF.CreationDate,2022-10-22T16:21:59-05:00*%
%TF.ProjectId,REF1451,52454631-3435-4312-9e6b-696361645f70,rev?*%
%TF.SameCoordinates,Original*%
%TF.FileFunction,Copper,L1,Top*%
%TF.FilePolarity,Positive*%
%FSLAX46Y46*%
G04 Gerber Fmt 4.6, Leading zero omitted, Abs format (unit mm)*
G04 Created by KiCad (PCBNEW (6.0.2)) date 2022-10-22 16:21:59*
%MOMM*%
%LPD*%
G01*
G04 APERTURE LIST*
%TA.AperFunction,NonConductor*%
%ADD10C,0.000001*%
%TD*%
%TA.AperFunction,SMDPad,CuDef*%
%ADD11R,0.700000X2.270000*%
%TD*%
%TA.AperFunction,SMDPad,CuDef*%
%ADD12R,2.270000X0.700000*%
%TD*%
%TA.AperFunction,SMDPad,CuDef*%
%ADD13R,1.700000X1.630000*%
%TD*%
%TA.AperFunction,SMDPad,CuDef*%
%ADD14R,1.630000X1.710000*%
%TD*%
%TA.AperFunction,ComponentPad*%
%ADD15C,4.680000*%
%TD*%
%TA.AperFunction,SMDPad,CuDef*%
%ADD16R,1.530000X9.000000*%
%TD*%
%TA.AperFunction,SMDPad,CuDef*%
%ADD17R,2.000000X0.750000*%
%TD*%
%TA.AperFunction,SMDPad,CuDef*%
%ADD18R,0.750000X2.000000*%
%TD*%
%TA.AperFunction,ComponentPad*%
%ADD19R,1.590000X1.590000*%
%TD*%
%TA.AperFunction,SMDPad,CuDef*%
%ADD20R,1.630000X1.700000*%
%TD*%
%TA.AperFunction,ComponentPad*%
%ADD21R,1.600000X1.600000*%
%TD*%
%TA.AperFunction,ComponentPad*%
%ADD22C,1.600000*%
%TD*%
%TA.AperFunction,ViaPad*%
%ADD23C,0.800000*%
%TD*%
%TA.AperFunction,Conductor*%
%ADD24C,0.250000*%
%TD*%
%TA.AperFunction,Conductor*%
%ADD25C,0.500000*%
%TD*%
G04 APERTURE END LIST*
D10*
X177744200Y-61397700D02*
G75*
G03*
X177744200Y-61397700I0J0D01*
G01*
X177744200Y-62939700D02*
G75*
G03*
X177744200Y-62939700I0J0D01*
G01*
D11*
%TO.P,U2,1,A18*%
%TO.N,/A18*%
X137360500Y-110675000D03*
%TO.P,U2,2,A16*%
%TO.N,/A16*%
X138629500Y-110674000D03*
%TO.P,U2,3,A15*%
%TO.N,/A15*%
X139939500Y-110673000D03*
%TO.P,U2,4,A12*%
%TO.N,/A12*%
X141209500Y-110673000D03*
D12*
%TO.P,U2,5,A7*%
%TO.N,/A7*%
X143072500Y-108768000D03*
%TO.P,U2,6,A6*%
%TO.N,/A6*%
X143075500Y-107538000D03*
%TO.P,U2,7,A5*%
%TO.N,/A5*%
X143073500Y-106231000D03*
%TO.P,U2,8,A4*%
%TO.N,/A4*%
X143074500Y-104960000D03*
%TO.P,U2,9,A3*%
%TO.N,/A3*%
X143076500Y-103728000D03*
%TO.P,U2,10,A2*%
%TO.N,/A2*%
X143073500Y-102417000D03*
%TO.P,U2,11,A1*%
%TO.N,/A1*%
X143074500Y-101149000D03*
%TO.P,U2,12,A0*%
%TO.N,/A0*%
X143074500Y-99878000D03*
%TO.P,U2,13,Ad8*%
%TO.N,/AD8*%
X143074500Y-98610000D03*
D11*
%TO.P,U2,14,Ad9*%
%TO.N,/AD9*%
X141249500Y-96704000D03*
%TO.P,U2,15,Ad10*%
%TO.N,/AD10*%
X139979500Y-96705000D03*
%TO.P,U2,16,GND*%
%TO.N,/GND*%
X138669500Y-96703000D03*
%TO.P,U2,17,Ad11*%
%TO.N,/AD11*%
X137398500Y-96701000D03*
%TO.P,U2,18,Ad12*%
%TO.N,/AD12*%
X136087500Y-96704000D03*
%TO.P,U2,19,Ad13*%
%TO.N,/AD13*%
X134821500Y-96701000D03*
%TO.P,U2,20,Ad14*%
%TO.N,/AD14*%
X133590500Y-96703000D03*
D12*
%TO.P,U2,21,Ad15*%
%TO.N,/AD15*%
X131644500Y-98609000D03*
%TO.P,U2,22,CE#*%
%TO.N,/Chip_Enable*%
X131644500Y-99881000D03*
%TO.P,U2,23,A10*%
%TO.N,/A10*%
X131643500Y-101149000D03*
%TO.P,U2,24,OE#*%
%TO.N,/Output_Enable*%
X131644500Y-102420000D03*
%TO.P,U2,25,A11*%
%TO.N,/A11*%
X131645500Y-103727000D03*
%TO.P,U2,26,A9*%
%TO.N,/A9*%
X131644500Y-104959000D03*
%TO.P,U2,27,A8*%
%TO.N,/A8*%
X131647500Y-106228000D03*
%TO.P,U2,28,A13*%
%TO.N,/A13*%
X131644500Y-107540000D03*
%TO.P,U2,29,A14*%
%TO.N,/A14*%
X131643500Y-108771000D03*
D11*
%TO.P,U2,30,A17*%
%TO.N,/A17*%
X133548500Y-110675000D03*
%TO.P,U2,31,WE#*%
%TO.N,/{slash}write*%
X134779500Y-110672000D03*
%TO.P,U2,32,VCC*%
%TO.N,/VCC*%
X136050500Y-110673000D03*
%TD*%
D13*
%TO.P,C2,1*%
%TO.N,/VCC*%
X109882400Y-107603100D03*
%TO.P,C2,2*%
%TO.N,/GND*%
X113100400Y-107603100D03*
%TD*%
D14*
%TO.P,R1,1*%
%TO.N,/Button*%
X170349600Y-101804000D03*
%TO.P,R1,2*%
%TO.N,/VCC*%
X170342600Y-105031000D03*
%TD*%
D15*
%TO.P,Hole4,1*%
%TO.N,N/C*%
X191634000Y-116655000D03*
%TD*%
D13*
%TO.P,C1,1*%
%TO.N,/VCC*%
X111180400Y-72674100D03*
%TO.P,C1,2*%
%TO.N,/GND*%
X114398400Y-72674100D03*
%TD*%
D15*
%TO.P,Hole2,1*%
%TO.N,N/C*%
X102177000Y-116610000D03*
%TD*%
%TO.P,Hole1,1*%
%TO.N,N/C*%
X106028000Y-62798000D03*
%TD*%
D16*
%TO.P,J2,1,Pin_1*%
%TO.N,/GND*%
X116659000Y-63995000D03*
%TO.P,J2,2,Pin_2*%
X119177000Y-63995000D03*
%TO.P,J2,3,Pin_3*%
%TO.N,/AD15*%
X121702000Y-63995000D03*
%TO.P,J2,4,Pin_4*%
%TO.N,/AD14*%
X124229000Y-63995000D03*
%TO.P,J2,5,Pin_5*%
%TO.N,/AD13*%
X126748000Y-63995000D03*
%TO.P,J2,6,Pin_6*%
%TO.N,/GND*%
X129267000Y-63995000D03*
%TO.P,J2,7,Pin_7*%
%TO.N,/AD12*%
X131790000Y-63995000D03*
%TO.P,J2,8,Pin_8*%
%TO.N,/{slash}write*%
X134309000Y-63995000D03*
%TO.P,J2,9,Pin_9*%
%TO.N,/VCC*%
X136828000Y-63995000D03*
%TO.P,J2,10,Pin_10*%
%TO.N,/{slash}read_top*%
X139356000Y-63995000D03*
%TO.P,J2,11,Pin_11*%
%TO.N,/AD11*%
X141881000Y-63995000D03*
%TO.P,J2,12,Pin_12*%
%TO.N,/AD10*%
X144402000Y-63995000D03*
%TO.P,J2,13,Pin_13*%
%TO.N,/12V_Front*%
X146926000Y-63995000D03*
%TO.P,J2,14,Pin_14*%
%TO.N,/12V_2_Front*%
X149446000Y-63995000D03*
%TO.P,J2,15,Pin_15*%
%TO.N,/AD9*%
X151966000Y-63995000D03*
%TO.P,J2,16,Pin_16*%
%TO.N,/AD8*%
X154485000Y-63995000D03*
%TO.P,J2,17,Pin_17*%
%TO.N,/VCC*%
X157003000Y-63995000D03*
%TO.P,J2,18,Pin_18*%
%TO.N,/CIC_15*%
X159527000Y-63995000D03*
%TO.P,J2,19,Pin_19*%
%TO.N,/CIC_11*%
X162053000Y-63995000D03*
%TO.P,J2,20,Pin_20*%
%TO.N,/{slash}COLD_RESET*%
X164571000Y-63995000D03*
%TO.P,J2,21,Pin_21*%
%TO.N,/EEPROM_DAT*%
X167091000Y-63995000D03*
%TO.P,J2,22,Pin_22*%
%TO.N,/GND*%
X169610000Y-63995000D03*
%TO.P,J2,23,Pin_23*%
X172140000Y-63995000D03*
%TO.P,J2,24,Pin_24*%
%TO.N,/LAUDIO*%
X174666000Y-63995000D03*
%TO.P,J2,25,Pin_25*%
%TO.N,/GND*%
X177185000Y-63995000D03*
%TD*%
D15*
%TO.P,Hole3,1*%
%TO.N,N/C*%
X188459000Y-62837000D03*
%TD*%
D17*
%TO.P,U3,1,GND*%
%TO.N,/GND*%
X99595000Y-90348000D03*
%TO.P,U3,2,I/O*%
%TO.N,/A16*%
X99595000Y-91618000D03*
%TO.P,U3,3,I/O*%
%TO.N,/A10*%
X99595000Y-92888000D03*
%TO.P,U3,4,VCC*%
%TO.N,/VCC*%
X99595000Y-94158000D03*
%TO.P,U3,5,I/O*%
%TO.N,/AD9*%
X99595000Y-95428000D03*
%TO.P,U3,6,I/O*%
%TO.N,unconnected-(U3-Pad6)*%
X99595000Y-96698000D03*
%TO.P,U3,7,I/O*%
%TO.N,unconnected-(U3-Pad7)*%
X99595000Y-97968000D03*
%TO.P,U3,8,I/O*%
%TO.N,/AD8*%
X99595000Y-99238000D03*
%TO.P,U3,9,TDO*%
%TO.N,unconnected-(U3-Pad9)*%
X99595000Y-100508000D03*
D18*
%TO.P,U3,10,I/O*%
%TO.N,unconnected-(U3-Pad10)*%
X101560000Y-102473000D03*
%TO.P,U3,11,I/O*%
%TO.N,unconnected-(U3-Pad11)*%
X102830000Y-102473000D03*
%TO.P,U3,12,I/O*%
%TO.N,/AD0*%
X104100000Y-102473000D03*
%TO.P,U3,13,I/O*%
%TO.N,/AD1*%
X105370000Y-102473000D03*
%TO.P,U3,14,GND*%
%TO.N,/GND*%
X106640000Y-102473000D03*
%TO.P,U3,15,I/O*%
%TO.N,unconnected-(U3-Pad15)*%
X107910000Y-102473000D03*
%TO.P,U3,16,GCLK/I*%
%TO.N,/{slash}COLD_RESET*%
X109180000Y-102473000D03*
%TO.P,U3,17,ACLK/I*%
%TO.N,/{slash}write*%
X110450000Y-102473000D03*
%TO.P,U3,18,VCC*%
%TO.N,/VCC*%
X111720000Y-102473000D03*
%TO.P,U3,19,GCLK/I*%
%TO.N,unconnected-(U3-Pad19)*%
X112990000Y-102473000D03*
%TO.P,U3,20,GCLK/I*%
%TO.N,/ALE_H*%
X114260000Y-102473000D03*
%TO.P,U3,21,I/O*%
%TO.N,/AD3*%
X115530000Y-102473000D03*
%TO.P,U3,22,I/O*%
%TO.N,/AD2*%
X116800000Y-102473000D03*
%TO.P,U3,23,I/O*%
%TO.N,unconnected-(U3-Pad23)*%
X118070000Y-102473000D03*
%TO.P,U3,24,I/O*%
%TO.N,unconnected-(U3-Pad24)*%
X119340000Y-102473000D03*
%TO.P,U3,25,I/O*%
%TO.N,/AD5*%
X120610000Y-102473000D03*
%TO.P,U3,26,I/O*%
%TO.N,unconnected-(U3-Pad26)*%
X121880000Y-102473000D03*
D17*
%TO.P,U3,27,TDI*%
%TO.N,unconnected-(U3-Pad27)*%
X123845000Y-100508000D03*
%TO.P,U3,28,I/O*%
%TO.N,unconnected-(U3-Pad28)*%
X123845000Y-99238000D03*
%TO.P,U3,29,I/O*%
%TO.N,/A15*%
X123845000Y-97968000D03*
%TO.P,U3,30,I/O*%
%TO.N,/AD4*%
X123845000Y-96698000D03*
%TO.P,U3,31,I/O*%
%TO.N,unconnected-(U3-Pad31)*%
X123845000Y-95428000D03*
%TO.P,U3,32,I/O*%
%TO.N,/A3*%
X123845000Y-94158000D03*
%TO.P,U3,33,I/O*%
%TO.N,/A6*%
X123845000Y-92888000D03*
%TO.P,U3,34,I/O*%
%TO.N,/AD6*%
X123845000Y-91618000D03*
%TO.P,U3,35,GND*%
%TO.N,/GND*%
X123845000Y-90348000D03*
%TO.P,U3,36,I/O*%
%TO.N,/AD7*%
X123845000Y-89078000D03*
%TO.P,U3,37,I/O*%
%TO.N,/A7*%
X123845000Y-87808000D03*
%TO.P,U3,38,I/O*%
%TO.N,/Chip_Enable*%
X123845000Y-86538000D03*
%TO.P,U3,39,VCC*%
%TO.N,/VCC*%
X123845000Y-85268000D03*
%TO.P,U3,40,I/O*%
%TO.N,/A13*%
X123845000Y-83998000D03*
%TO.P,U3,41,I/O*%
%TO.N,/A14*%
X123845000Y-82728000D03*
%TO.P,U3,42,TRSTB*%
%TO.N,unconnected-(U3-Pad42)*%
X123845000Y-81458000D03*
%TO.P,U3,43,TMS*%
%TO.N,unconnected-(U3-Pad43)*%
X123845000Y-80188000D03*
D18*
%TO.P,U3,44,I/O*%
%TO.N,/AD14*%
X121880000Y-78223000D03*
%TO.P,U3,45,I/O*%
%TO.N,/AD15*%
X120610000Y-78223000D03*
%TO.P,U3,46,I/O*%
%TO.N,/AD13*%
X119340000Y-78223000D03*
%TO.P,U3,47,I/O*%
%TO.N,/A4*%
X118070000Y-78223000D03*
%TO.P,U3,48,GND*%
%TO.N,/GND*%
X116800000Y-78223000D03*
%TO.P,U3,49,I/O*%
%TO.N,/A5*%
X115530000Y-78223000D03*
%TO.P,U3,50,GCLK/I*%
%TO.N,/{slash}read_bottom*%
X114260000Y-78223000D03*
%TO.P,U3,51,ACLK/I*%
%TO.N,/GND*%
X112990000Y-78223000D03*
%TO.P,U3,52,VCC*%
%TO.N,/VCC*%
X111720000Y-78223000D03*
%TO.P,U3,53,GCLK/I*%
%TO.N,/Button*%
X110450000Y-78223000D03*
%TO.P,U3,54,GCLK/I*%
%TO.N,/ALE_L*%
X109180000Y-78223000D03*
%TO.P,U3,55,I/O*%
%TO.N,/A2*%
X107910000Y-78223000D03*
%TO.P,U3,56,I/O*%
%TO.N,/A8*%
X106640000Y-78223000D03*
%TO.P,U3,57,I/O*%
%TO.N,/A1*%
X105370000Y-78223000D03*
%TO.P,U3,58,I/O*%
%TO.N,/A9*%
X104100000Y-78223000D03*
%TO.P,U3,59,I/O*%
%TO.N,/Output_Enable*%
X102830000Y-78223000D03*
%TO.P,U3,60,I/O*%
%TO.N,/A0*%
X101560000Y-78223000D03*
D17*
%TO.P,U3,61,TCK*%
%TO.N,/GND*%
X99595000Y-80188000D03*
%TO.P,U3,62,STM*%
%TO.N,unconnected-(U3-Pad62)*%
X99595000Y-81458000D03*
%TO.P,U3,63,I/O*%
%TO.N,/AD12*%
X99595000Y-82728000D03*
%TO.P,U3,64,I/O*%
%TO.N,/{slash}read_top*%
X99595000Y-83998000D03*
%TO.P,U3,65,I/O*%
%TO.N,/A11*%
X99595000Y-85268000D03*
%TO.P,U3,66,I/O*%
%TO.N,/AD10*%
X99595000Y-86538000D03*
%TO.P,U3,67,I/O*%
%TO.N,/AD11*%
X99595000Y-87808000D03*
%TO.P,U3,68,I/O*%
%TO.N,/A12*%
X99595000Y-89078000D03*
%TD*%
D11*
%TO.P,U1,1,A18*%
%TO.N,/A18*%
X157189500Y-110698000D03*
%TO.P,U1,2,A16*%
%TO.N,/A16*%
X158458500Y-110697000D03*
%TO.P,U1,3,A15*%
%TO.N,/A15*%
X159768500Y-110696000D03*
%TO.P,U1,4,A12*%
%TO.N,/A12*%
X161038500Y-110696000D03*
D12*
%TO.P,U1,5,A7*%
%TO.N,/A7*%
X162901500Y-108791000D03*
%TO.P,U1,6,A6*%
%TO.N,/A6*%
X162904500Y-107561000D03*
%TO.P,U1,7,A5*%
%TO.N,/A5*%
X162902500Y-106254000D03*
%TO.P,U1,8,A4*%
%TO.N,/A4*%
X162903500Y-104983000D03*
%TO.P,U1,9,A3*%
%TO.N,/A3*%
X162905500Y-103751000D03*
%TO.P,U1,10,A2*%
%TO.N,/A2*%
X162902500Y-102440000D03*
%TO.P,U1,11,A1*%
%TO.N,/A1*%
X162903500Y-101172000D03*
%TO.P,U1,12,A0*%
%TO.N,/A0*%
X162903500Y-99901000D03*
%TO.P,U1,13,Ad0*%
%TO.N,/AD0*%
X162903500Y-98633000D03*
D11*
%TO.P,U1,14,Ad1*%
%TO.N,/AD1*%
X161078500Y-96727000D03*
%TO.P,U1,15,Ad2*%
%TO.N,/AD2*%
X159808500Y-96728000D03*
%TO.P,U1,16,GND*%
%TO.N,/GND*%
X158498500Y-96726000D03*
%TO.P,U1,17,Ad3*%
%TO.N,/AD3*%
X157227500Y-96724000D03*
%TO.P,U1,18,Ad4*%
%TO.N,/AD4*%
X155916500Y-96727000D03*
%TO.P,U1,19,Ad5*%
%TO.N,/AD5*%
X154650500Y-96724000D03*
%TO.P,U1,20,Ad6*%
%TO.N,/AD6*%
X153419500Y-96726000D03*
D12*
%TO.P,U1,21,Ad7*%
%TO.N,/AD7*%
X151473500Y-98632000D03*
%TO.P,U1,22,CE#*%
%TO.N,/Chip_Enable*%
X151473500Y-99904000D03*
%TO.P,U1,23,A10*%
%TO.N,/A10*%
X151472500Y-101172000D03*
%TO.P,U1,24,OE#*%
%TO.N,/Output_Enable*%
X151473500Y-102443000D03*
%TO.P,U1,25,A11*%
%TO.N,/A11*%
X151474500Y-103750000D03*
%TO.P,U1,26,A9*%
%TO.N,/A9*%
X151473500Y-104982000D03*
%TO.P,U1,27,A8*%
%TO.N,/A8*%
X151476500Y-106251000D03*
%TO.P,U1,28,A13*%
%TO.N,/A13*%
X151473500Y-107563000D03*
%TO.P,U1,29,A14*%
%TO.N,/A14*%
X151472500Y-108794000D03*
D11*
%TO.P,U1,30,A17*%
%TO.N,/A17*%
X153377500Y-110698000D03*
%TO.P,U1,31,WE#*%
%TO.N,/{slash}write*%
X154608500Y-110695000D03*
%TO.P,U1,32,VCC*%
%TO.N,/VCC*%
X155879500Y-110696000D03*
%TD*%
D19*
%TO.P,SW1,1,1*%
%TO.N,/GND*%
X190205000Y-91084000D03*
X190245000Y-84734000D03*
%TO.P,SW1,2,2*%
%TO.N,/Button*%
X194691000Y-91087000D03*
X194730000Y-84735000D03*
%TD*%
D20*
%TO.P,C3,1*%
%TO.N,/VCC*%
X167796900Y-101795400D03*
%TO.P,C3,2*%
%TO.N,/GND*%
X167796900Y-105013400D03*
%TD*%
D16*
%TO.P,J4,1,Pin_1*%
%TO.N,/GND*%
X116705000Y-125369000D03*
%TO.P,J4,2,Pin_2*%
X119223000Y-125383000D03*
%TO.P,J4,3,Pin_3*%
%TO.N,/AD15*%
X121748000Y-125371000D03*
%TO.P,J4,4,Pin_4*%
%TO.N,/AD14*%
X124275000Y-125365000D03*
%TO.P,J4,5,Pin_5*%
%TO.N,/AD13*%
X126794000Y-125379000D03*
%TO.P,J4,6,Pin_6*%
%TO.N,/GND*%
X129313000Y-125365000D03*
%TO.P,J4,7,Pin_7*%
%TO.N,/AD12*%
X131836000Y-125354000D03*
%TO.P,J4,8,Pin_8*%
%TO.N,/{slash}write*%
X134355000Y-125340000D03*
%TO.P,J4,9,Pin_9*%
%TO.N,/VCC*%
X136874000Y-125368000D03*
%TO.P,J4,10,Pin_10*%
%TO.N,/{slash}read_bottom*%
X139402000Y-125368000D03*
%TO.P,J4,11,Pin_11*%
%TO.N,/AD11*%
X141927000Y-125359000D03*
%TO.P,J4,12,Pin_12*%
%TO.N,/AD10*%
X144448000Y-125351000D03*
%TO.P,J4,13,Pin_13*%
%TO.N,/12V_Front*%
X146972000Y-125335000D03*
%TO.P,J4,14,Pin_14*%
%TO.N,/12V_2_Front*%
X149492000Y-125308000D03*
%TO.P,J4,15,Pin_15*%
%TO.N,/AD9*%
X152012000Y-125320000D03*
%TO.P,J4,16,Pin_16*%
%TO.N,/AD8*%
X154531000Y-125306000D03*
%TO.P,J4,17,Pin_17*%
%TO.N,/VCC*%
X157049000Y-125372000D03*
%TO.P,J4,18,Pin_18*%
%TO.N,/CIC_15*%
X159573000Y-125366000D03*
%TO.P,J4,19,Pin_19*%
%TO.N,/CIC_11*%
X162099000Y-125356000D03*
%TO.P,J4,20,Pin_20*%
%TO.N,/{slash}COLD_RESET*%
X164617000Y-125352000D03*
%TO.P,J4,21,Pin_21*%
%TO.N,/EEPROM_DAT*%
X167137000Y-125337000D03*
%TO.P,J4,22,Pin_22*%
%TO.N,/GND*%
X169656000Y-125337000D03*
%TO.P,J4,23,Pin_23*%
X172186000Y-125321000D03*
%TO.P,J4,24,Pin_24*%
%TO.N,/LAUDIO*%
X174712000Y-125320000D03*
%TO.P,J4,25,Pin_25*%
%TO.N,/GND*%
X177231000Y-125379000D03*
%TD*%
D21*
%TO.P,J1,1,1*%
%TO.N,N/C*%
X163369000Y-86383700D03*
D22*
%TO.P,J1,2,2*%
X160599000Y-86383700D03*
%TO.P,J1,3,3*%
X157829000Y-86383700D03*
%TO.P,J1,4,4*%
X155059000Y-86383700D03*
%TO.P,J1,5,5*%
X152289000Y-86383700D03*
%TO.P,J1,6,6*%
X149519000Y-86383700D03*
%TO.P,J1,7,7*%
X146749000Y-86383700D03*
%TO.P,J1,8,8*%
X143979000Y-86383700D03*
%TO.P,J1,9,9*%
X141209000Y-86383700D03*
%TO.P,J1,10,10*%
X138439000Y-86383700D03*
%TO.P,J1,11,11*%
X135669000Y-86383700D03*
%TO.P,J1,12,12*%
X132899000Y-86383700D03*
%TO.P,J1,13,13*%
X130129000Y-86383700D03*
%TO.P,J1,14,P14*%
X161984000Y-89223700D03*
%TO.P,J1,15,P15*%
X159214000Y-89223700D03*
%TO.P,J1,16,P16*%
X156444000Y-89223700D03*
%TO.P,J1,17,P17*%
X153674000Y-89223700D03*
%TO.P,J1,18,P18*%
X150904000Y-89223700D03*
%TO.P,J1,19,P19*%
X148134000Y-89223700D03*
%TO.P,J1,20,P20*%
X145364000Y-89223700D03*
%TO.P,J1,21,P21*%
X142594000Y-89223700D03*
%TO.P,J1,22,P22*%
X139824000Y-89223700D03*
%TO.P,J1,23,P23*%
X137054000Y-89223700D03*
%TO.P,J1,24,P24*%
X134284000Y-89223700D03*
%TO.P,J1,25,P25*%
X131514000Y-89223700D03*
%TD*%
D23*
%TO.N,/A18*%
X151509900Y-110551400D03*
X153510400Y-108550900D03*
%TO.N,/A16*%
X120075900Y-108279600D03*
X108184900Y-91419500D03*
X139218300Y-108899700D03*
X139218300Y-114983700D03*
%TO.N,/A15*%
X120965700Y-98664100D03*
X125211900Y-106498400D03*
X141212800Y-115583900D03*
X140506600Y-108837400D03*
%TO.N,/A12*%
X117189800Y-107514400D03*
X144883500Y-116034000D03*
X144016000Y-111439300D03*
X108885000Y-89078000D03*
%TO.N,/A7*%
X127755100Y-89704700D03*
X149706000Y-107802500D03*
X153521900Y-107488200D03*
X134494400Y-106800200D03*
%TO.N,/A6*%
X145813900Y-108831300D03*
X149169500Y-116311900D03*
X129530900Y-92591300D03*
X134565200Y-105721700D03*
%TO.N,/A5*%
X160049700Y-113487500D03*
X132577300Y-109871600D03*
X130534900Y-109871600D03*
X121343500Y-83156900D03*
X135073500Y-103606100D03*
X158811100Y-105687600D03*
X148069100Y-116220100D03*
X145623600Y-105914700D03*
%TO.N,/A4*%
X148171500Y-105046900D03*
X155292300Y-105301100D03*
%TO.N,/A3*%
X149736300Y-103525000D03*
X153665600Y-103906100D03*
%TO.N,/A2*%
X141284200Y-84056700D03*
X121489900Y-73544100D03*
X138084100Y-73143600D03*
X108489700Y-79852500D03*
X153945700Y-102408000D03*
X148424200Y-103355900D03*
X154575700Y-90622600D03*
%TO.N,/A1*%
X120184000Y-74590100D03*
X148324200Y-102200900D03*
X112488000Y-75035100D03*
X163392600Y-88668900D03*
X163012200Y-97054600D03*
X153212200Y-101705900D03*
%TO.N,/A0*%
X148324200Y-101200700D03*
X153222100Y-100705400D03*
X110918600Y-93083400D03*
X135541300Y-102659400D03*
X130284900Y-96587400D03*
X107912500Y-85903000D03*
X125510300Y-99903700D03*
X120964200Y-95362700D03*
%TO.N,/AD0*%
X115364100Y-110864600D03*
X104645600Y-100831300D03*
X156308500Y-100426000D03*
X156675800Y-117546800D03*
%TO.N,/AD1*%
X127060800Y-81775900D03*
X121799400Y-70979700D03*
X106266600Y-100866600D03*
X129752100Y-70854700D03*
%TO.N,/AD2*%
X159712300Y-94989300D03*
X126827200Y-70313400D03*
X121535500Y-104083900D03*
X128727300Y-70513500D03*
X126493500Y-79222000D03*
X157176300Y-74828200D03*
X125469300Y-80602400D03*
X126493500Y-74235500D03*
%TO.N,/GND*%
X138669500Y-98450000D03*
X171671200Y-120153500D03*
X123428200Y-70153300D03*
X142389200Y-92501800D03*
X129020600Y-120222500D03*
X159772000Y-116890100D03*
X116954800Y-69143400D03*
X176965800Y-119923300D03*
X158712500Y-98482200D03*
X117275200Y-120261300D03*
X129160000Y-69120900D03*
X169769800Y-69102000D03*
X125504600Y-90348000D03*
%TO.N,/AD3*%
X128906300Y-104539100D03*
X132824300Y-112654200D03*
X154710600Y-100002100D03*
X152318700Y-112065900D03*
%TO.N,/AD4*%
X143692700Y-93673500D03*
X142294600Y-95930500D03*
%TO.N,/AD5*%
X144526500Y-78649500D03*
X118164200Y-100852900D03*
X145623200Y-94843300D03*
X123108500Y-77557900D03*
%TO.N,/AD6*%
X151402800Y-96726000D03*
%TO.N,/AD7*%
X117381400Y-86290700D03*
X124262900Y-75341200D03*
X154646300Y-98632000D03*
X153932400Y-76026900D03*
%TO.N,/Chip_Enable*%
X128878800Y-101086500D03*
X149827300Y-97938000D03*
X150179400Y-92236800D03*
X122240200Y-86538000D03*
%TO.N,/A10*%
X134298100Y-99278300D03*
X109416700Y-97085200D03*
X150918000Y-97655700D03*
X151735300Y-91473100D03*
X106063700Y-92888000D03*
X133281500Y-87947000D03*
%TO.N,/Output_Enable*%
X135314000Y-99613700D03*
X135044500Y-92520200D03*
X119435300Y-98572700D03*
X110262200Y-98572700D03*
X123512600Y-103015400D03*
X105790000Y-82356600D03*
%TO.N,/A11*%
X134321200Y-102596900D03*
X108618800Y-84970700D03*
X157066100Y-87718900D03*
X140098500Y-81543800D03*
X160075500Y-107184200D03*
X115624200Y-105296600D03*
X138075800Y-99622300D03*
X133985900Y-103908600D03*
%TO.N,/A9*%
X168297400Y-119104700D03*
X119797100Y-106048300D03*
X110069200Y-85647300D03*
X157892700Y-119603700D03*
X122908300Y-74581200D03*
X168294500Y-76080900D03*
X113650900Y-89887200D03*
X116958500Y-88149500D03*
X157314700Y-106858100D03*
%TO.N,/A8*%
X121737100Y-107597300D03*
X153385100Y-113511300D03*
X108519200Y-81187100D03*
X149733500Y-106251000D03*
%TO.N,/A13*%
X130035600Y-82428100D03*
X125976200Y-83998000D03*
X152781400Y-87895800D03*
X153275600Y-106475500D03*
X129883200Y-107540000D03*
X128644500Y-83998000D03*
%TO.N,/A14*%
X140961500Y-90220900D03*
X142531600Y-109957500D03*
X138578700Y-107632100D03*
%TO.N,/{slash}write*%
X120775200Y-71560000D03*
X110078300Y-104088100D03*
X121046600Y-115056400D03*
X133155600Y-118647300D03*
X132577300Y-111525600D03*
X133549400Y-108903900D03*
%TO.N,/VCC*%
X138050400Y-120417900D03*
X155945100Y-112482300D03*
X132912600Y-79965600D03*
X128862500Y-85166600D03*
X136828000Y-69120200D03*
X156840900Y-119790100D03*
X136168900Y-112438900D03*
X154256200Y-81105700D03*
X156147300Y-69139400D03*
X136965900Y-117784300D03*
%TO.N,/AD8*%
X107962700Y-99238000D03*
X136408500Y-104506900D03*
X132249700Y-73876800D03*
X140479400Y-106142600D03*
X141155500Y-98610000D03*
X142229800Y-119162300D03*
X118401700Y-111542300D03*
%TO.N,/AD9*%
X107541200Y-95391000D03*
X121677400Y-91245100D03*
X145258300Y-72475700D03*
X126480000Y-96149600D03*
X105840900Y-95428000D03*
X144389500Y-119363100D03*
X142788000Y-97019800D03*
%TO.N,/AD10*%
X112428000Y-86101600D03*
X141041300Y-119127900D03*
X125013900Y-72413900D03*
X140155300Y-98462500D03*
X124449400Y-112432700D03*
%TO.N,/AD11*%
X108884100Y-87808000D03*
X121347800Y-92607100D03*
X126220200Y-97479500D03*
X140752100Y-68983000D03*
X137246500Y-94735100D03*
X113235800Y-92159700D03*
X140793400Y-120365800D03*
%TO.N,/AD12*%
X134488800Y-119703200D03*
X101212400Y-82728000D03*
X133962300Y-70763500D03*
X135912300Y-98454900D03*
X118058900Y-115798900D03*
%TO.N,/AD13*%
X122240600Y-95967400D03*
X125348500Y-120157600D03*
X125979600Y-98918800D03*
X117954100Y-75994100D03*
X120125600Y-73484000D03*
X118208500Y-79828800D03*
X117173100Y-96087800D03*
%TO.N,/AD14*%
X127933800Y-99980300D03*
X126963300Y-119279500D03*
X132635500Y-96370100D03*
X133221600Y-81096100D03*
%TO.N,/AD15*%
X126289100Y-118163500D03*
X126922600Y-101840100D03*
X120928400Y-81706600D03*
%TO.N,/ALE_L*%
X115664700Y-90363700D03*
X125818700Y-93650500D03*
X109310900Y-80468200D03*
X130611000Y-92745300D03*
X122243200Y-90363700D03*
%TO.N,/ALE_H*%
X117824700Y-99691600D03*
X134943600Y-79065400D03*
X124653100Y-78165200D03*
%TO.N,/{slash}read_top*%
X106397800Y-83998000D03*
X122734000Y-72958600D03*
%TO.N,/12V_Front*%
X146402100Y-69314000D03*
X146610300Y-119815600D03*
%TO.N,/12V_2_Front*%
X149446000Y-69842400D03*
X150708600Y-120410800D03*
%TO.N,/CIC_15*%
X159527000Y-69115400D03*
X159849000Y-120264900D03*
%TO.N,/CIC_11*%
X161706100Y-69107400D03*
X161276700Y-120252600D03*
%TO.N,/{slash}COLD_RESET*%
X162823700Y-112870900D03*
X108552400Y-100873600D03*
X164023800Y-120223100D03*
X164540700Y-69113200D03*
X118080500Y-110080200D03*
%TO.N,/EEPROM_DAT*%
X167569200Y-120234700D03*
X167457000Y-69122000D03*
%TO.N,/LAUDIO*%
X173440200Y-120396500D03*
X175227200Y-69170000D03*
%TO.N,/{slash}read_bottom*%
X119781700Y-84085600D03*
X126238900Y-113849400D03*
%TO.N,/Button*%
X111258000Y-76619900D03*
X121256500Y-74565600D03*
%TD*%
D24*
%TO.N,/A18*%
X144230200Y-112608200D02*
X146287000Y-110551400D01*
X137360500Y-112135100D02*
X140511300Y-112135100D01*
X157189500Y-110698000D02*
X157189500Y-109237900D01*
X140984400Y-112608200D02*
X144230200Y-112608200D01*
X146287000Y-110551400D02*
X151509900Y-110551400D01*
X137360500Y-110675000D02*
X137360500Y-112135100D01*
X157189500Y-109237900D02*
X156502500Y-108550900D01*
X156502500Y-108550900D02*
X153510400Y-108550900D01*
X140511300Y-112135100D02*
X140984400Y-112608200D01*
%TO.N,/A16*%
X120075900Y-108279600D02*
X120118700Y-108322400D01*
X120118700Y-108322400D02*
X126193800Y-108322400D01*
X156832100Y-113783500D02*
X158458500Y-112157100D01*
X139218300Y-114983700D02*
X139343300Y-114858700D01*
X146009800Y-114236500D02*
X154214400Y-114236500D01*
X154214400Y-114236500D02*
X154667400Y-113783500D01*
X138904100Y-109213900D02*
X139218300Y-108899700D01*
X132642800Y-114771400D02*
X134774800Y-114771400D01*
X126193800Y-108322400D02*
X132642800Y-114771400D01*
X138629500Y-109213900D02*
X138904100Y-109213900D01*
X107986400Y-91618000D02*
X108184900Y-91419500D01*
X99595000Y-91618000D02*
X107986400Y-91618000D01*
X134774800Y-114771400D02*
X134987100Y-114983700D01*
X154667400Y-113783500D02*
X156832100Y-113783500D01*
X158458500Y-110697000D02*
X158458500Y-112157100D01*
X134987100Y-114983700D02*
X139218300Y-114983700D01*
X145387600Y-114858700D02*
X146009800Y-114236500D01*
X139343300Y-114858700D02*
X145387600Y-114858700D01*
X138629500Y-110674000D02*
X138629500Y-109213900D01*
%TO.N,/A15*%
X146196300Y-114686600D02*
X154400900Y-114686600D01*
X138780500Y-115721400D02*
X138492900Y-115433800D01*
X145574100Y-115308800D02*
X146196300Y-114686600D01*
X154853900Y-114233600D02*
X157641600Y-114233600D01*
X141212800Y-115583900D02*
X141075300Y-115721400D01*
X134800600Y-115433800D02*
X134588300Y-115221500D01*
X126212200Y-109004800D02*
X119733700Y-109004800D01*
X132428900Y-115221500D02*
X126212200Y-109004800D01*
X139939500Y-109942900D02*
X139939500Y-110673000D01*
X159719100Y-112156100D02*
X159768500Y-112156100D01*
X139939500Y-109212900D02*
X140315000Y-108837400D01*
X123845000Y-97968000D02*
X121661800Y-97968000D01*
X140315000Y-108837400D02*
X140506600Y-108837400D01*
X159768500Y-110696000D02*
X159768500Y-112156100D01*
X141075300Y-115721400D02*
X138780500Y-115721400D01*
X119348500Y-108619600D02*
X119348500Y-107980400D01*
X141487900Y-115308800D02*
X145574100Y-115308800D01*
X120830500Y-106498400D02*
X125211900Y-106498400D01*
X138492900Y-115433800D02*
X134800600Y-115433800D01*
X121661800Y-97968000D02*
X120965700Y-98664100D01*
X119733700Y-109004800D02*
X119348500Y-108619600D01*
X119348500Y-107980400D02*
X120830500Y-106498400D01*
X134588300Y-115221500D02*
X132428900Y-115221500D01*
X157641600Y-114233600D02*
X159719100Y-112156100D01*
X141212800Y-115583900D02*
X141487900Y-115308800D01*
X154400900Y-114686600D02*
X154853900Y-114233600D01*
X139939500Y-109942900D02*
X139939500Y-109212900D01*
%TO.N,/A12*%
X145657600Y-115861900D02*
X146382800Y-115136700D01*
X160480600Y-112714000D02*
X161038500Y-112156100D01*
X138731500Y-116309000D02*
X138306400Y-115883900D01*
X134401800Y-115671600D02*
X132242300Y-115671600D01*
X99595000Y-89078000D02*
X108885000Y-89078000D01*
X146382800Y-115136700D02*
X154587400Y-115136700D01*
X132242300Y-115671600D02*
X126025600Y-109454900D01*
X161038500Y-110696000D02*
X161038500Y-112156100D01*
X126025600Y-109454900D02*
X119130300Y-109454900D01*
X138306400Y-115883900D02*
X134614100Y-115883900D01*
X144839400Y-115861900D02*
X144392300Y-116309000D01*
X144392300Y-116309000D02*
X138731500Y-116309000D01*
X157828100Y-114683700D02*
X159797800Y-112714000D01*
X155040400Y-114683700D02*
X157828100Y-114683700D01*
X144839400Y-115861900D02*
X145657600Y-115861900D01*
X141209500Y-112133100D02*
X143322200Y-112133100D01*
X159797800Y-112714000D02*
X160480600Y-112714000D01*
X144883500Y-115906000D02*
X144883500Y-116034000D01*
X141209500Y-110673000D02*
X141209500Y-112133100D01*
X134614100Y-115883900D02*
X134401800Y-115671600D01*
X143322200Y-112133100D02*
X144016000Y-111439300D01*
X119130300Y-109454900D02*
X117189800Y-107514400D01*
X144839400Y-115861900D02*
X144883500Y-115906000D01*
X154587400Y-115136700D02*
X155040400Y-114683700D01*
%TO.N,/A7*%
X139475000Y-106800200D02*
X139992600Y-107317800D01*
X143052100Y-108768000D02*
X143072500Y-108768000D01*
X159312300Y-107634400D02*
X160468900Y-108791000D01*
X145341200Y-109576600D02*
X147931900Y-109576600D01*
X144532600Y-108768000D02*
X145341200Y-109576600D01*
X123845000Y-87808000D02*
X125858400Y-87808000D01*
X134494400Y-106800200D02*
X139475000Y-106800200D01*
X143052100Y-108768000D02*
X141612400Y-108768000D01*
X140162200Y-107317800D02*
X141612400Y-108768000D01*
X143072500Y-108768000D02*
X144532600Y-108768000D01*
X153521900Y-107488200D02*
X153668100Y-107634400D01*
X125858400Y-87808000D02*
X127755100Y-89704700D01*
X147931900Y-109576600D02*
X149706000Y-107802500D01*
X139992600Y-107317800D02*
X140162200Y-107317800D01*
X153668100Y-107634400D02*
X159312300Y-107634400D01*
X160468900Y-108791000D02*
X162901500Y-108791000D01*
%TO.N,/A6*%
X164364600Y-107561000D02*
X164364600Y-110198000D01*
X155322100Y-116311900D02*
X149169500Y-116311900D01*
X159613700Y-114948900D02*
X159061000Y-114948900D01*
X144535600Y-107538000D02*
X145813900Y-108816300D01*
X143075500Y-107538000D02*
X141518000Y-107538000D01*
X143075500Y-107538000D02*
X144535600Y-107538000D01*
X158426000Y-115583900D02*
X156050100Y-115583900D01*
X139033100Y-105721700D02*
X134565200Y-105721700D01*
X123845000Y-92888000D02*
X125170100Y-92888000D01*
X140179100Y-106867700D02*
X139033100Y-105721700D01*
X159061000Y-114948900D02*
X158426000Y-115583900D01*
X141518000Y-107538000D02*
X140847700Y-106867700D01*
X129234200Y-92888000D02*
X129530900Y-92591300D01*
X162904500Y-107561000D02*
X164364600Y-107561000D01*
X164364600Y-110198000D02*
X159613700Y-114948900D01*
X156050100Y-115583900D02*
X155322100Y-116311900D01*
X145813900Y-108816300D02*
X145813900Y-108831300D01*
X140847700Y-106867700D02*
X140179100Y-106867700D01*
X125170100Y-92888000D02*
X129234200Y-92888000D01*
%TO.N,/A5*%
X158239500Y-115133800D02*
X155226900Y-115133800D01*
X159885800Y-113487500D02*
X158239500Y-115133800D01*
X162902500Y-106254000D02*
X161442400Y-106254000D01*
X141593300Y-106231000D02*
X138968400Y-103606100D01*
X119138800Y-83156900D02*
X121343500Y-83156900D01*
X115530000Y-79548100D02*
X119138800Y-83156900D01*
X161442400Y-106254000D02*
X160876000Y-105687600D01*
X160876000Y-105687600D02*
X158811100Y-105687600D01*
X143073500Y-106231000D02*
X144533600Y-106231000D01*
X144849900Y-105914700D02*
X145623600Y-105914700D01*
X144533600Y-106231000D02*
X144849900Y-105914700D01*
X138968400Y-103606100D02*
X135073500Y-103606100D01*
X115530000Y-78223000D02*
X115530000Y-79548100D01*
X160049700Y-113487500D02*
X159885800Y-113487500D01*
X130534900Y-109871600D02*
X132577300Y-109871600D01*
X148702400Y-115586800D02*
X148069100Y-116220100D01*
X154773900Y-115586800D02*
X148702400Y-115586800D01*
X143073500Y-106231000D02*
X141593300Y-106231000D01*
X155226900Y-115133800D02*
X154773900Y-115586800D01*
%TO.N,/A4*%
X148084600Y-104960000D02*
X148171500Y-105046900D01*
X164813700Y-97799700D02*
X164813700Y-104532900D01*
X143074500Y-104960000D02*
X148084600Y-104960000D01*
X153833300Y-87087300D02*
X155059000Y-88313000D01*
X163633600Y-104983000D02*
X164363600Y-104983000D01*
X125347000Y-78496800D02*
X129571500Y-78496800D01*
X117483400Y-79528600D02*
X117483400Y-80129100D01*
X122501200Y-79690300D02*
X123301200Y-78890300D01*
X124953500Y-78890300D02*
X125347000Y-78496800D01*
X164813700Y-104532900D02*
X164363600Y-104983000D01*
X162903500Y-104983000D02*
X161443400Y-104983000D01*
X133343600Y-82268900D02*
X149820300Y-82268900D01*
X118070000Y-78223000D02*
X118070000Y-78942000D01*
X122501200Y-81159300D02*
X122501200Y-79690300D01*
X155630900Y-104962500D02*
X155292300Y-105301100D01*
X118070000Y-78942000D02*
X117483400Y-79528600D01*
X163633600Y-104983000D02*
X162903500Y-104983000D01*
X155059000Y-88313000D02*
X155059000Y-89440200D01*
X156329800Y-90711000D02*
X157725000Y-90711000D01*
X153833300Y-86281900D02*
X153833300Y-87087300D01*
X129571500Y-78496800D02*
X133343600Y-82268900D01*
X149820300Y-82268900D02*
X153833300Y-86281900D01*
X161422900Y-104962500D02*
X155630900Y-104962500D01*
X161443400Y-104983000D02*
X161422900Y-104962500D01*
X119786000Y-82431700D02*
X121228800Y-82431700D01*
X157725000Y-90711000D02*
X164813700Y-97799700D01*
X123301200Y-78890300D02*
X124953500Y-78890300D01*
X155059000Y-89440200D02*
X156329800Y-90711000D01*
X117483400Y-80129100D02*
X119786000Y-82431700D01*
X121228800Y-82431700D02*
X122501200Y-81159300D01*
%TO.N,/A3*%
X149149300Y-103525000D02*
X149736300Y-103525000D01*
X148038000Y-100475600D02*
X148624600Y-100475600D01*
X125170100Y-94158000D02*
X125395000Y-94382900D01*
X138356000Y-93076500D02*
X138795800Y-93516300D01*
X131656900Y-93020300D02*
X134519200Y-93020300D01*
X149049300Y-100900300D02*
X149049300Y-102501500D01*
X130744400Y-93932800D02*
X131656900Y-93020300D01*
X135344900Y-93245300D02*
X135513700Y-93076500D01*
X148724500Y-104081100D02*
X144889700Y-104081100D01*
X134744200Y-93245300D02*
X135344900Y-93245300D01*
X143076500Y-103728000D02*
X144536600Y-103728000D01*
X128211200Y-94382900D02*
X128661300Y-93932800D01*
X125395000Y-94382900D02*
X128211200Y-94382900D01*
X148624600Y-100475600D02*
X149049300Y-100900300D01*
X149149300Y-103656300D02*
X148724500Y-104081100D01*
X149149300Y-102601500D02*
X149149300Y-103525000D01*
X123845000Y-94158000D02*
X125170100Y-94158000D01*
X162905500Y-103751000D02*
X161445400Y-103751000D01*
X135513700Y-93076500D02*
X138356000Y-93076500D01*
X161290300Y-103906100D02*
X161445400Y-103751000D01*
X138795800Y-93516300D02*
X141078700Y-93516300D01*
X153665600Y-103906100D02*
X161290300Y-103906100D01*
X141078700Y-93516300D02*
X148038000Y-100475600D01*
X144889700Y-104081100D02*
X144536600Y-103728000D01*
X128661300Y-93932800D02*
X130744400Y-93932800D01*
X149149300Y-103525000D02*
X149149300Y-103656300D01*
X134519200Y-93020300D02*
X134744200Y-93245300D01*
X149049300Y-102501500D02*
X149149300Y-102601500D01*
%TO.N,/A2*%
X144533600Y-102417000D02*
X145472500Y-103355900D01*
X145364000Y-86169200D02*
X145364000Y-86671700D01*
X124480900Y-73143600D02*
X123940700Y-73683800D01*
X107910000Y-79548100D02*
X108185300Y-79548100D01*
X145472500Y-103355900D02*
X148424200Y-103355900D01*
X162902500Y-102440000D02*
X161442400Y-102440000D01*
X121629600Y-73683800D02*
X121489900Y-73544100D01*
X154575700Y-90622500D02*
X154575700Y-90622600D01*
X152526900Y-89224700D02*
X152526900Y-89786900D01*
X161410400Y-102408000D02*
X161442400Y-102440000D01*
X138084100Y-73143600D02*
X124480900Y-73143600D01*
X153945700Y-102408000D02*
X161410400Y-102408000D01*
X143251500Y-84056700D02*
X145364000Y-86169200D01*
X151265100Y-87962900D02*
X152526900Y-89224700D01*
X141284200Y-84056700D02*
X143251500Y-84056700D01*
X153362500Y-90622500D02*
X154575700Y-90622500D01*
X107910000Y-78223000D02*
X107910000Y-79548100D01*
X145364000Y-86671700D02*
X146655200Y-87962900D01*
X143073500Y-102417000D02*
X144533600Y-102417000D01*
X152526900Y-89786900D02*
X153362500Y-90622500D01*
X108185300Y-79548100D02*
X108489700Y-79852500D01*
X123940700Y-73683800D02*
X121629600Y-73683800D01*
X146655200Y-87962900D02*
X151265100Y-87962900D01*
%TO.N,/A1*%
X122969200Y-75756400D02*
X121350300Y-75756400D01*
X164363600Y-98136900D02*
X164363600Y-101172000D01*
X163392600Y-88668900D02*
X162243900Y-87520200D01*
X145586500Y-102200900D02*
X148324200Y-102200900D01*
X153235200Y-101682900D02*
X153212200Y-101705900D01*
X163012200Y-97054600D02*
X163281300Y-97054600D01*
X105370000Y-78223000D02*
X105370000Y-76897900D01*
X107232800Y-75035100D02*
X112488000Y-75035100D01*
X121350300Y-75756400D02*
X120184000Y-74590100D01*
X144534600Y-101149000D02*
X145586500Y-102200900D01*
X160932500Y-101682900D02*
X153235200Y-101682900D01*
X131346300Y-77440000D02*
X130429100Y-76522800D01*
X153258300Y-77440000D02*
X131346300Y-77440000D01*
X162243900Y-87520200D02*
X162243900Y-86425600D01*
X162243900Y-86425600D02*
X153258300Y-77440000D01*
X162903500Y-101172000D02*
X164363600Y-101172000D01*
X105370000Y-76897900D02*
X107232800Y-75035100D01*
X123735600Y-76522800D02*
X122969200Y-75756400D01*
X163281300Y-97054600D02*
X164363600Y-98136900D01*
X162903500Y-101172000D02*
X161443400Y-101172000D01*
X130429100Y-76522800D02*
X123735600Y-76522800D01*
X143074500Y-101149000D02*
X144534600Y-101149000D01*
X161443400Y-101172000D02*
X160932500Y-101682900D01*
%TO.N,/A0*%
X118684900Y-93083400D02*
X120964200Y-95362700D01*
X105189200Y-83177300D02*
X107896500Y-83177300D01*
X101560000Y-78223000D02*
X101560000Y-79548100D01*
X136875100Y-102659400D02*
X135541300Y-102659400D01*
X153222100Y-100705400D02*
X153290900Y-100774200D01*
X143074500Y-99878000D02*
X144534600Y-99878000D01*
X110918600Y-93083400D02*
X118684900Y-93083400D01*
X143074500Y-99878000D02*
X139656500Y-99878000D01*
X101560000Y-79548100D02*
X105189200Y-83177300D01*
X126968600Y-99903700D02*
X130284900Y-96587400D01*
X160193300Y-101151100D02*
X161443400Y-99901000D01*
X156008200Y-101151100D02*
X160193300Y-101151100D01*
X108735700Y-85903000D02*
X107912500Y-85903000D01*
X155631300Y-100774200D02*
X156008200Y-101151100D01*
X153290900Y-100774200D02*
X155631300Y-100774200D01*
X144534600Y-99878000D02*
X145857300Y-101200700D01*
X125510300Y-99903700D02*
X126968600Y-99903700D01*
X109371200Y-85267500D02*
X108735700Y-85903000D01*
X109371200Y-84652000D02*
X109371200Y-85267500D01*
X145857300Y-101200700D02*
X148324200Y-101200700D01*
X139656500Y-99878000D02*
X136875100Y-102659400D01*
X107896500Y-83177300D02*
X109371200Y-84652000D01*
X162903500Y-99901000D02*
X161443400Y-99901000D01*
%TO.N,/AD0*%
X147954100Y-117395300D02*
X148105600Y-117546800D01*
X115364100Y-110864600D02*
X115421400Y-110807300D01*
X115421400Y-110807300D02*
X125495700Y-110807300D01*
X147582300Y-117395300D02*
X147954100Y-117395300D01*
X134241100Y-116784100D02*
X137933400Y-116784100D01*
X104329000Y-101147900D02*
X104645600Y-100831300D01*
X131260200Y-116571800D02*
X134028800Y-116571800D01*
X156308500Y-100426000D02*
X159650400Y-100426000D01*
X162903500Y-98633000D02*
X161443400Y-98633000D01*
X134028800Y-116571800D02*
X134241100Y-116784100D01*
X138358500Y-117209200D02*
X147396200Y-117209200D01*
X104100000Y-101147900D02*
X104329000Y-101147900D01*
X125495700Y-110807300D02*
X131260200Y-116571800D01*
X159650400Y-100426000D02*
X161443400Y-98633000D01*
X137933400Y-116784100D02*
X138358500Y-117209200D01*
X148105600Y-117546800D02*
X156675800Y-117546800D01*
X104100000Y-102473000D02*
X104100000Y-101147900D01*
X147396200Y-117209200D02*
X147582300Y-117395300D01*
%TO.N,/AD1*%
X129368100Y-71238700D02*
X129752100Y-70854700D01*
X126553300Y-71238700D02*
X129368100Y-71238700D01*
X151883900Y-90348900D02*
X144889100Y-90348900D01*
X129760100Y-83178000D02*
X128358000Y-81775900D01*
X142753300Y-87087300D02*
X142753300Y-86335100D01*
X123834600Y-70772400D02*
X126087000Y-70772400D01*
X142753300Y-86335100D02*
X141200000Y-84781800D01*
X140966000Y-84781800D02*
X139362200Y-83178000D01*
X105985300Y-101147900D02*
X106266600Y-100866600D01*
X161078500Y-95266900D02*
X157921600Y-92110000D01*
X128358000Y-81775900D02*
X127060800Y-81775900D01*
X105370000Y-102473000D02*
X105370000Y-101147900D01*
X121799400Y-70979700D02*
X123627300Y-70979700D01*
X153645000Y-92110000D02*
X151883900Y-90348900D01*
X143979100Y-89438900D02*
X143979100Y-88313100D01*
X143979100Y-88313100D02*
X142753300Y-87087300D01*
X141200000Y-84781800D02*
X140966000Y-84781800D01*
X144889100Y-90348900D02*
X143979100Y-89438900D01*
X105370000Y-101147900D02*
X105985300Y-101147900D01*
X161078500Y-96727000D02*
X161078500Y-95266900D01*
X157921600Y-92110000D02*
X153645000Y-92110000D01*
X126087000Y-70772400D02*
X126553300Y-71238700D01*
X139362200Y-83178000D02*
X129760100Y-83178000D01*
X123627300Y-70979700D02*
X123834600Y-70772400D01*
%TO.N,/AD2*%
X131582800Y-74235500D02*
X132175500Y-74828200D01*
X132175500Y-74828200D02*
X157176300Y-74828200D01*
X125469300Y-80602400D02*
X125469300Y-80246200D01*
X116800000Y-102473000D02*
X116800000Y-103798100D01*
X127027300Y-70513500D02*
X126827200Y-70313400D01*
X116800000Y-103798100D02*
X121249700Y-103798100D01*
X159808500Y-95085500D02*
X159712300Y-94989300D01*
X125469300Y-80246200D02*
X126493500Y-79222000D01*
X126493500Y-74235500D02*
X131582800Y-74235500D01*
X128727300Y-70513500D02*
X127027300Y-70513500D01*
X159808500Y-96728000D02*
X159808500Y-95085500D01*
X121249700Y-103798100D02*
X121535500Y-104083900D01*
D25*
%TO.N,/GND*%
X174154000Y-70029000D02*
X172140000Y-68015000D01*
X177185000Y-69934200D02*
X177185000Y-70428900D01*
X172140000Y-67519000D02*
X170741900Y-68917100D01*
X158498500Y-96726000D02*
X158498500Y-98311100D01*
X108812500Y-108868200D02*
X113100400Y-108868200D01*
X172186000Y-120901700D02*
X171671200Y-120386900D01*
X122336400Y-117305500D02*
X126646000Y-117305500D01*
X129267000Y-68945100D02*
X129160000Y-69052100D01*
X129213000Y-120414900D02*
X129313000Y-120414900D01*
X113100400Y-116814300D02*
X116705000Y-120418900D01*
X119223000Y-125383000D02*
X119223000Y-120432900D01*
X145120800Y-92501800D02*
X142389200Y-92501800D01*
X126646000Y-117305500D02*
X129020600Y-119680100D01*
X116705000Y-125369000D02*
X116705000Y-120418900D01*
X158712500Y-98482200D02*
X158541400Y-98311100D01*
X116954800Y-68963100D02*
X116954800Y-69143400D01*
X177185000Y-69934200D02*
X177090200Y-70029000D01*
X113100400Y-107603100D02*
X113100400Y-108868200D01*
X116673000Y-69134400D02*
X114398400Y-71409000D01*
X158498500Y-96726000D02*
X158498500Y-95140900D01*
X167796900Y-116279200D02*
X167796900Y-105013400D01*
X116673000Y-68963100D02*
X116659000Y-68949100D01*
X99595000Y-80188000D02*
X98144900Y-80188000D01*
X141928400Y-92041000D02*
X139407200Y-92041000D01*
X139407200Y-92041000D02*
X138586200Y-91220000D01*
X177090200Y-70029000D02*
X174154000Y-70029000D01*
X98144900Y-80188000D02*
X98144900Y-90348000D01*
X117275200Y-120418900D02*
X116705000Y-120418900D01*
X177185000Y-68959100D02*
X177185000Y-69934200D01*
X126376600Y-91220000D02*
X125504600Y-90348000D01*
X113702700Y-76060200D02*
X114398400Y-76060200D01*
X169769800Y-68917100D02*
X169610000Y-68917100D01*
X106640000Y-102473000D02*
X106640000Y-103748000D01*
X114398400Y-76060200D02*
X116087300Y-76060200D01*
X114398400Y-71409000D02*
X106326000Y-71409000D01*
X129160000Y-69120900D02*
X128871600Y-69409300D01*
X142389200Y-92501800D02*
X141928400Y-92041000D01*
X176965800Y-120163700D02*
X176965800Y-119923300D01*
X114398400Y-73939200D02*
X114398400Y-76060200D01*
X190245000Y-84734000D02*
X190245000Y-83488900D01*
X138669500Y-96703000D02*
X138669500Y-98450000D01*
X116659000Y-63999000D02*
X116659000Y-68949100D01*
X114398400Y-72674100D02*
X114398400Y-73939200D01*
X112990000Y-78070500D02*
X112990000Y-76772900D01*
X106640000Y-106695700D02*
X108812500Y-108868200D01*
X119223000Y-120418900D02*
X117275200Y-120418900D01*
X99595000Y-78140000D02*
X99595000Y-80188000D01*
X167186000Y-116890100D02*
X159772000Y-116890100D01*
X116673000Y-68963100D02*
X116673000Y-69134400D01*
X171671200Y-120386900D02*
X171671200Y-120153500D01*
X138586200Y-91220000D02*
X126376600Y-91220000D01*
X119177000Y-68959200D02*
X119173100Y-68963100D01*
X177185000Y-64009000D02*
X177185000Y-68959100D01*
X98144900Y-101114400D02*
X98144900Y-90348000D01*
X172140000Y-68015000D02*
X172140000Y-67519000D01*
X123845000Y-90348000D02*
X125504600Y-90348000D01*
X172140000Y-67519000D02*
X172140000Y-66426000D01*
X171671200Y-120153500D02*
X172288100Y-119536600D01*
X116800000Y-78223000D02*
X116800000Y-76772900D01*
X172186000Y-121192200D02*
X172186000Y-120901700D01*
X99595000Y-90348000D02*
X98144900Y-90348000D01*
X172186000Y-125321000D02*
X172186000Y-121192200D01*
X106640000Y-103932200D02*
X100962700Y-103932200D01*
X124172200Y-69409300D02*
X123428200Y-70153300D01*
X129020600Y-120222500D02*
X129213000Y-120414900D01*
X119223000Y-120432900D02*
X119223000Y-120418900D01*
X157554000Y-94196400D02*
X146815400Y-94196400D01*
X170741900Y-68917100D02*
X169769800Y-68917100D01*
X177231000Y-125379000D02*
X177231000Y-120428900D01*
X169610000Y-63967000D02*
X169610000Y-68917100D01*
X116954800Y-68963100D02*
X116673000Y-68963100D01*
X171671200Y-120386900D02*
X169656000Y-120386900D01*
X177231000Y-120428900D02*
X176965800Y-120163700D01*
X171671200Y-120153500D02*
X167796900Y-116279200D01*
X100962700Y-103932200D02*
X98144900Y-101114400D01*
X169769800Y-68917100D02*
X169769800Y-69102000D01*
X169656000Y-125337000D02*
X169656000Y-120386900D01*
X158498500Y-95140900D02*
X157554000Y-94196400D01*
X106640000Y-103748000D02*
X106640000Y-103932200D01*
X116087300Y-76060200D02*
X116800000Y-76772900D01*
X119173100Y-68963100D02*
X116954800Y-68963100D01*
X146815400Y-94196400D02*
X145120800Y-92501800D01*
X113100400Y-108868200D02*
X113100400Y-116814300D01*
X128871600Y-69409300D02*
X124172200Y-69409300D01*
X119223000Y-120418900D02*
X122336400Y-117305500D01*
X117275200Y-120418900D02*
X117275200Y-120261300D01*
X158541400Y-98311100D02*
X158498500Y-98311100D01*
X112990000Y-78070500D02*
X112990000Y-78223000D01*
X129020600Y-119680100D02*
X129020600Y-120222500D01*
X114398400Y-72674100D02*
X114398400Y-71409000D01*
X106640000Y-103932200D02*
X106640000Y-106695700D01*
X172140000Y-63951000D02*
X172140000Y-66426000D01*
X106326000Y-71409000D02*
X99595000Y-78140000D01*
X119177000Y-64013000D02*
X119177000Y-68959200D01*
X129160000Y-69052100D02*
X129160000Y-69120900D01*
X112990000Y-76772900D02*
X113702700Y-76060200D01*
X129313000Y-125365000D02*
X129313000Y-120414900D01*
X177185000Y-70428900D02*
X190245000Y-83488900D01*
X167796900Y-116279200D02*
X167186000Y-116890100D01*
X176579100Y-119536600D02*
X176965800Y-119923300D01*
X129267000Y-63995000D02*
X129267000Y-68945100D01*
X172288100Y-119536600D02*
X176579100Y-119536600D01*
D24*
%TO.N,/AD3*%
X144828100Y-113508400D02*
X146270600Y-112065900D01*
X132824300Y-112654200D02*
X134567400Y-112654200D01*
X140386200Y-113283300D02*
X140611300Y-113508400D01*
X128598900Y-104846500D02*
X128906300Y-104539100D01*
X116578400Y-104846500D02*
X128598900Y-104846500D01*
X115530000Y-102473000D02*
X115530000Y-103798100D01*
X137553700Y-113283300D02*
X140386200Y-113283300D01*
X156528600Y-98184100D02*
X154710600Y-100002100D01*
X137210300Y-113626700D02*
X137553700Y-113283300D01*
X134567400Y-112654200D02*
X135539900Y-113626700D01*
X146270600Y-112065900D02*
X152318700Y-112065900D01*
X140611300Y-113508400D02*
X144828100Y-113508400D01*
X115530000Y-103798100D02*
X116578400Y-104846500D01*
X157227500Y-98184100D02*
X156528600Y-98184100D01*
X157227500Y-96724000D02*
X157227500Y-98184100D01*
X135539900Y-113626700D02*
X137210300Y-113626700D01*
%TO.N,/AD4*%
X135531400Y-93695400D02*
X135700200Y-93526600D01*
X145479100Y-93673500D02*
X146577100Y-94771500D01*
X128397700Y-94833000D02*
X128847800Y-94382900D01*
X134557700Y-93695400D02*
X135531400Y-93695400D01*
X140552700Y-93966400D02*
X142294600Y-95708300D01*
X123845000Y-96698000D02*
X125170100Y-96698000D01*
X138169500Y-93526600D02*
X138609300Y-93966400D01*
X142294600Y-95708300D02*
X142294600Y-95930500D01*
X128847800Y-94382900D02*
X130930900Y-94382900D01*
X126771200Y-94833000D02*
X128397700Y-94833000D01*
X130930900Y-94382900D02*
X131843400Y-93470400D01*
X146577100Y-94771500D02*
X155421100Y-94771500D01*
X155421100Y-94771500D02*
X155916500Y-95266900D01*
X135700200Y-93526600D02*
X138169500Y-93526600D01*
X143692700Y-93673500D02*
X145479100Y-93673500D01*
X134332700Y-93470400D02*
X134557700Y-93695400D01*
X125170100Y-96698000D02*
X125170100Y-96434100D01*
X155916500Y-96727000D02*
X155916500Y-95266900D01*
X138609300Y-93966400D02*
X140552700Y-93966400D01*
X131843400Y-93470400D02*
X134332700Y-93470400D01*
X125170100Y-96434100D02*
X126771200Y-94833000D01*
%TO.N,/AD5*%
X130004200Y-77440000D02*
X123226400Y-77440000D01*
X118459200Y-101147900D02*
X118164200Y-100852900D01*
X145623200Y-94843300D02*
X146043800Y-95263900D01*
X120610000Y-102473000D02*
X120610000Y-101147900D01*
X144526500Y-78649500D02*
X144217200Y-78340200D01*
X144217200Y-78340200D02*
X130904400Y-78340200D01*
X120610000Y-101147900D02*
X118459200Y-101147900D01*
X130904400Y-78340200D02*
X130004200Y-77440000D01*
X123226400Y-77440000D02*
X123108500Y-77557900D01*
X146043800Y-95263900D02*
X154650500Y-95263900D01*
X154650500Y-96724000D02*
X154650500Y-95263900D01*
%TO.N,/AD6*%
X139168900Y-92616100D02*
X138347900Y-91795100D01*
X153419500Y-96726000D02*
X151402800Y-96726000D01*
X123845000Y-91618000D02*
X125170100Y-91618000D01*
X125347200Y-91795100D02*
X125170100Y-91618000D01*
X151402800Y-96726000D02*
X145587800Y-96726000D01*
X138347900Y-91795100D02*
X125347200Y-91795100D01*
X145587800Y-96726000D02*
X141477900Y-92616100D01*
X141477900Y-92616100D02*
X139168900Y-92616100D01*
%TO.N,/AD7*%
X120168700Y-89078000D02*
X117381400Y-86290700D01*
X132100900Y-76026900D02*
X131643500Y-75569500D01*
X124491200Y-75569500D02*
X124262900Y-75341200D01*
X153932400Y-76026900D02*
X132100900Y-76026900D01*
X131643500Y-75569500D02*
X124491200Y-75569500D01*
X151473500Y-98632000D02*
X154646300Y-98632000D01*
X123845000Y-89078000D02*
X120168700Y-89078000D01*
%TO.N,/Chip_Enable*%
X126259800Y-86538000D02*
X125170100Y-86538000D01*
X149408500Y-91465900D02*
X139645500Y-91465900D01*
X151473500Y-99904000D02*
X150013400Y-99904000D01*
X139645500Y-91465900D02*
X138824500Y-90644900D01*
X123845000Y-86538000D02*
X125170100Y-86538000D01*
X123295000Y-86538000D02*
X123845000Y-86538000D01*
X123295000Y-86538000D02*
X122519900Y-86538000D01*
X150179400Y-92236800D02*
X149408500Y-91465900D01*
X130366700Y-90644900D02*
X126259800Y-86538000D01*
X138824500Y-90644900D02*
X130366700Y-90644900D01*
X130184400Y-99881000D02*
X128978900Y-101086500D01*
X150013400Y-99904000D02*
X150013400Y-98124100D01*
X122519900Y-86538000D02*
X122240200Y-86538000D01*
X128978900Y-101086500D02*
X128878800Y-101086500D01*
X131644500Y-99881000D02*
X130184400Y-99881000D01*
X150013400Y-98124100D02*
X149827300Y-97938000D01*
%TO.N,/A10*%
X150012400Y-100590200D02*
X149095200Y-99673000D01*
X133103600Y-101149000D02*
X133103600Y-100472800D01*
X130913500Y-101149000D02*
X130183400Y-101149000D01*
X149095200Y-99673000D02*
X149095200Y-97644200D01*
X151735300Y-91473100D02*
X151278000Y-91015800D01*
X131643500Y-101149000D02*
X133103600Y-101149000D01*
X151278000Y-91015800D02*
X139983300Y-91015800D01*
X137368400Y-87947000D02*
X133281500Y-87947000D01*
X126622400Y-102565300D02*
X128767100Y-102565300D01*
X99595000Y-92888000D02*
X106063700Y-92888000D01*
X138179100Y-88757700D02*
X137368400Y-87947000D01*
X149544900Y-97194500D02*
X150456800Y-97194500D01*
X133103600Y-100472800D02*
X134298100Y-99278300D01*
X151472500Y-101172000D02*
X150012400Y-101172000D01*
X120240600Y-98964400D02*
X123551600Y-102275400D01*
X149095200Y-97644200D02*
X149544900Y-97194500D01*
X138179100Y-89211600D02*
X138179100Y-88757700D01*
X128767100Y-102565300D02*
X130183400Y-101149000D01*
X126332500Y-102275400D02*
X126622400Y-102565300D01*
X123551600Y-102275400D02*
X126332500Y-102275400D01*
X130913500Y-101149000D02*
X131643500Y-101149000D01*
X150456800Y-97194500D02*
X150918000Y-97655700D01*
X150012400Y-101172000D02*
X150012400Y-100590200D01*
X109416700Y-97085200D02*
X118973300Y-97085200D01*
X120240600Y-98352500D02*
X120240600Y-98964400D01*
X118973300Y-97085200D02*
X120240600Y-98352500D01*
X139983300Y-91015800D02*
X138179100Y-89211600D01*
%TO.N,/Output_Enable*%
X102830000Y-78223000D02*
X102830000Y-79548100D01*
X148224500Y-100025500D02*
X141265200Y-93066200D01*
X110262200Y-98572700D02*
X119435300Y-98572700D01*
X138436300Y-92520200D02*
X135044500Y-92520200D01*
X130184400Y-102420000D02*
X129589000Y-103015400D01*
X102830000Y-79548100D02*
X102981500Y-79548100D01*
X148811100Y-100025500D02*
X148224500Y-100025500D01*
X149499400Y-101929000D02*
X149499400Y-100713800D01*
X138982300Y-93066200D02*
X138436300Y-92520200D01*
X151473500Y-102443000D02*
X150013400Y-102443000D01*
X131644500Y-102420000D02*
X133104600Y-102420000D01*
X133104600Y-102420000D02*
X133104600Y-101823100D01*
X149499400Y-100713800D02*
X148811100Y-100025500D01*
X130914500Y-102420000D02*
X130184400Y-102420000D01*
X141265200Y-93066200D02*
X138982300Y-93066200D01*
X150013400Y-102443000D02*
X149499400Y-101929000D01*
X130914500Y-102420000D02*
X131644500Y-102420000D01*
X133104600Y-101823100D02*
X135314000Y-99613700D01*
X102981500Y-79548100D02*
X105790000Y-82356600D01*
X129589000Y-103015400D02*
X123512600Y-103015400D01*
%TO.N,/A11*%
X130915500Y-103727000D02*
X131645500Y-103727000D01*
X101217400Y-84970700D02*
X100920100Y-85268000D01*
X157066100Y-87718900D02*
X156444000Y-87096800D01*
X130915500Y-103727000D02*
X130185400Y-103727000D01*
X99595000Y-85268000D02*
X100920100Y-85268000D01*
X158124500Y-106026400D02*
X159282300Y-107184200D01*
X131645500Y-103727000D02*
X133105600Y-103727000D01*
X154760500Y-106026400D02*
X158124500Y-106026400D01*
X138075800Y-99622300D02*
X137295800Y-99622300D01*
X115624200Y-105296600D02*
X129174300Y-105296600D01*
X152934600Y-103750000D02*
X152934600Y-104200500D01*
X159282300Y-107184200D02*
X160075500Y-107184200D01*
X156444000Y-87096800D02*
X156444000Y-86100300D01*
X152934600Y-104200500D02*
X154760500Y-106026400D01*
X133985900Y-103908600D02*
X133287200Y-103908600D01*
X129174300Y-105296600D02*
X130185400Y-104285500D01*
X151474500Y-103750000D02*
X152934600Y-103750000D01*
X133287200Y-103908600D02*
X133105600Y-103727000D01*
X130185400Y-104285500D02*
X130185400Y-103727000D01*
X156444000Y-86100300D02*
X151887500Y-81543800D01*
X108618800Y-84970700D02*
X101217400Y-84970700D01*
X137295800Y-99622300D02*
X134321200Y-102596900D01*
X151887500Y-81543800D02*
X140098500Y-81543800D01*
%TO.N,/A9*%
X155122500Y-76080900D02*
X168294500Y-76080900D01*
X110069200Y-84713200D02*
X110069200Y-85647300D01*
X122908300Y-74581200D02*
X125098100Y-74581200D01*
X151473500Y-104982000D02*
X152933600Y-104982000D01*
X113650900Y-89887200D02*
X115388600Y-88149500D01*
X115388600Y-88149500D02*
X116958500Y-88149500D01*
X125098100Y-74581200D02*
X125636100Y-75119200D01*
X130914500Y-104959000D02*
X131644500Y-104959000D01*
X104904100Y-79548100D02*
X110069200Y-84713200D01*
X104100000Y-79548100D02*
X104904100Y-79548100D01*
X154809700Y-106858100D02*
X157314700Y-106858100D01*
X125636100Y-75119200D02*
X131829900Y-75119200D01*
X158391700Y-119104700D02*
X157892700Y-119603700D01*
X130184400Y-104959000D02*
X129396500Y-105746900D01*
X131829900Y-75119200D02*
X131989000Y-75278300D01*
X129396500Y-105746900D02*
X120098500Y-105746900D01*
X131989000Y-75278300D02*
X154319900Y-75278300D01*
X168297400Y-119104700D02*
X158391700Y-119104700D01*
X130914500Y-104959000D02*
X130184400Y-104959000D01*
X120098500Y-105746900D02*
X119797100Y-106048300D01*
X154319900Y-75278300D02*
X155122500Y-76080900D01*
X104100000Y-78223000D02*
X104100000Y-79548100D01*
X152933600Y-104982000D02*
X154809700Y-106858100D01*
%TO.N,/A8*%
X140040400Y-114210700D02*
X140238300Y-114408600D01*
X138163100Y-114210700D02*
X140040400Y-114210700D01*
X106640000Y-78223000D02*
X106640000Y-79548100D01*
X145823300Y-113786400D02*
X153110000Y-113786400D01*
X121737100Y-107597300D02*
X128978500Y-107597300D01*
X130094100Y-106228000D02*
X131647500Y-106228000D01*
X151476500Y-106251000D02*
X150016400Y-106251000D01*
X106640000Y-79548100D02*
X106880200Y-79548100D01*
X145201100Y-114408600D02*
X145823300Y-113786400D01*
X134961300Y-114321300D02*
X135166900Y-114526900D01*
X128978500Y-110470500D02*
X132829300Y-114321300D01*
X140238300Y-114408600D02*
X145201100Y-114408600D01*
X128978500Y-107597300D02*
X128978500Y-107343600D01*
X106880200Y-79548100D02*
X108519200Y-81187100D01*
X128978500Y-107343600D02*
X130094100Y-106228000D01*
X153110000Y-113786400D02*
X153385100Y-113511300D01*
X132829300Y-114321300D02*
X134961300Y-114321300D01*
X137846900Y-114526900D02*
X138163100Y-114210700D01*
X150016400Y-106251000D02*
X149733500Y-106251000D01*
X128978500Y-107597300D02*
X128978500Y-110470500D01*
X135166900Y-114526900D02*
X137846900Y-114526900D01*
%TO.N,/A13*%
X152188100Y-107563000D02*
X151473500Y-107563000D01*
X125976200Y-83998000D02*
X128644500Y-83998000D01*
X131644500Y-107540000D02*
X130184400Y-107540000D01*
X130326500Y-82719000D02*
X147500400Y-82719000D01*
X152209900Y-87895800D02*
X152781400Y-87895800D01*
X151063300Y-86281900D02*
X151063300Y-86749200D01*
X130184400Y-107540000D02*
X129883200Y-107540000D01*
X153275600Y-106475500D02*
X152188100Y-107563000D01*
X151063300Y-86749200D02*
X152209900Y-87895800D01*
X130035600Y-82428100D02*
X130326500Y-82719000D01*
X123845000Y-83998000D02*
X125976200Y-83998000D01*
X147500400Y-82719000D02*
X151063300Y-86281900D01*
%TO.N,/A14*%
X133675800Y-107632100D02*
X138578700Y-107632100D01*
X123845000Y-82728000D02*
X125170100Y-82728000D01*
X151472500Y-108794000D02*
X150012400Y-108794000D01*
X139983300Y-86317500D02*
X139983300Y-87087300D01*
X148725700Y-110080700D02*
X150012400Y-108794000D01*
X125170100Y-82728000D02*
X128673500Y-82728000D01*
X137293900Y-83628100D02*
X139983300Y-86317500D01*
X129573600Y-83628100D02*
X137293900Y-83628100D01*
X139983300Y-87087300D02*
X140961500Y-88065500D01*
X131643500Y-108771000D02*
X132536900Y-108771000D01*
X142654800Y-110080700D02*
X148725700Y-110080700D01*
X132536900Y-108771000D02*
X133675800Y-107632100D01*
X128673500Y-82728000D02*
X129573600Y-83628100D01*
X140961500Y-88065500D02*
X140961500Y-90220900D01*
X142531600Y-109957500D02*
X142654800Y-110080700D01*
%TO.N,/A17*%
X133548500Y-110675000D02*
X133548500Y-112135100D01*
X137023800Y-113176600D02*
X137367200Y-112833200D01*
X144455100Y-113058300D02*
X146172600Y-111340800D01*
X153100200Y-112158100D02*
X153377500Y-112158100D01*
X146172600Y-111340800D02*
X152619100Y-111340800D01*
X153043800Y-111765500D02*
X153043800Y-112101700D01*
X133548500Y-112135100D02*
X134684900Y-112135100D01*
X153377500Y-110698000D02*
X153377500Y-112158100D01*
X152619100Y-111340800D02*
X153043800Y-111765500D01*
X140797800Y-113058300D02*
X144455100Y-113058300D01*
X135726400Y-113176600D02*
X137023800Y-113176600D01*
X134684900Y-112135100D02*
X135726400Y-113176600D01*
X140572700Y-112833200D02*
X140797800Y-113058300D01*
X137367200Y-112833200D02*
X140572700Y-112833200D01*
X153043800Y-112101700D02*
X153100200Y-112158100D01*
%TO.N,/{slash}write*%
X135260500Y-119997500D02*
X134743100Y-120514900D01*
X123983200Y-71742100D02*
X120957300Y-71742100D01*
X110368300Y-103798100D02*
X110078300Y-104088100D01*
X134687400Y-69173500D02*
X134687400Y-71118600D01*
X134779500Y-109941900D02*
X134779500Y-109211900D01*
X125903400Y-71225400D02*
X124499900Y-71225400D01*
X154608500Y-110695000D02*
X154608500Y-112155100D01*
X134779500Y-109211900D02*
X134471500Y-108903900D01*
X131256000Y-71488700D02*
X131014900Y-71729800D01*
X132577300Y-111525600D02*
X132088300Y-112014600D01*
X135147800Y-113871200D02*
X135353400Y-114076800D01*
X153977400Y-112786200D02*
X154608500Y-112155100D01*
X134471500Y-108903900D02*
X133549400Y-108903900D01*
X135260500Y-119423300D02*
X135260500Y-119997500D01*
X127198400Y-115056400D02*
X130789300Y-118647300D01*
X140424800Y-113958500D02*
X145014600Y-113958500D01*
X130789300Y-118647300D02*
X133155600Y-118647300D01*
X133015700Y-113871200D02*
X135147800Y-113871200D01*
X134309000Y-68795100D02*
X134687400Y-69173500D01*
X132088300Y-112014600D02*
X132088300Y-112943800D01*
X121046600Y-115056400D02*
X127198400Y-115056400D01*
X145636800Y-113336300D02*
X152534800Y-113336300D01*
X140226900Y-113760600D02*
X140424800Y-113958500D01*
X134484500Y-118647300D02*
X135260500Y-119423300D01*
X137713000Y-113760600D02*
X140226900Y-113760600D01*
X137396800Y-114076800D02*
X137713000Y-113760600D01*
X131014900Y-71729800D02*
X126407800Y-71729800D01*
X135353400Y-114076800D02*
X137396800Y-114076800D01*
X134317300Y-71488700D02*
X131256000Y-71488700D01*
X134355000Y-125340000D02*
X134355000Y-120514900D01*
X120957300Y-71742100D02*
X120775200Y-71560000D01*
X134743100Y-120514900D02*
X134355000Y-120514900D01*
X152534800Y-113336300D02*
X153084900Y-112786200D01*
X134779500Y-109941900D02*
X134779500Y-110672000D01*
X110450000Y-103798100D02*
X110368300Y-103798100D01*
X133155600Y-118647300D02*
X134484500Y-118647300D01*
X145014600Y-113958500D02*
X145636800Y-113336300D01*
X153084900Y-112786200D02*
X153977400Y-112786200D01*
X126407800Y-71729800D02*
X125903400Y-71225400D01*
X132088300Y-112943800D02*
X133015700Y-113871200D01*
X110450000Y-102473000D02*
X110450000Y-103798100D01*
X134309000Y-63970000D02*
X134309000Y-68795100D01*
X124499900Y-71225400D02*
X123983200Y-71742100D01*
X134687400Y-71118600D02*
X134317300Y-71488700D01*
D25*
%TO.N,/VCC*%
X147344000Y-117970400D02*
X147157900Y-117784300D01*
X168429500Y-101795400D02*
X167796900Y-101795400D01*
X166531800Y-96006200D02*
X160599000Y-90073400D01*
X136050500Y-110673000D02*
X136050500Y-112258100D01*
X112135800Y-77807200D02*
X112135800Y-76589600D01*
X111720000Y-102473000D02*
X111720000Y-104500400D01*
X147715800Y-117970400D02*
X147344000Y-117970400D01*
X106691000Y-94158000D02*
X113278100Y-87570900D01*
X111720000Y-78223000D02*
X112135800Y-77807200D01*
X159270200Y-86859200D02*
X159270200Y-86023900D01*
X168429500Y-101795400D02*
X169062000Y-101795400D01*
X148274400Y-118529000D02*
X147715800Y-117970400D01*
X157003000Y-68952100D02*
X156334600Y-68952100D01*
X113338100Y-74682900D02*
X112594400Y-73939200D01*
X156334600Y-68952100D02*
X156147300Y-69139400D01*
X154352000Y-81105700D02*
X154256200Y-81105700D01*
X157049000Y-120421900D02*
X156840900Y-120213800D01*
X111720000Y-101747900D02*
X111720000Y-101022900D01*
X154256200Y-81105700D02*
X153844200Y-80693700D01*
X113338100Y-75387300D02*
X113338100Y-74682900D01*
X134005000Y-79965600D02*
X132912600Y-79965600D01*
X169062000Y-102845900D02*
X169062000Y-101795400D01*
X155879500Y-110696000D02*
X155879500Y-112416700D01*
X136874000Y-120417900D02*
X138050400Y-120417900D01*
X123845000Y-85268000D02*
X125295100Y-85268000D01*
X111510200Y-101022900D02*
X106691000Y-96203700D01*
X99595000Y-94158000D02*
X100870100Y-94158000D01*
X170342600Y-105031000D02*
X170342600Y-103725900D01*
X155579800Y-118529000D02*
X148274400Y-118529000D01*
X169942000Y-103725900D02*
X169062000Y-102845900D01*
X156840900Y-119790100D02*
X155579800Y-118529000D01*
X111720000Y-101022900D02*
X111510200Y-101022900D01*
X166531800Y-101795400D02*
X166531800Y-96006200D01*
X111720000Y-78223000D02*
X111720000Y-79673100D01*
X113278100Y-87570900D02*
X113278100Y-85268000D01*
X113278100Y-85268000D02*
X111720000Y-83709900D01*
X112594400Y-73939200D02*
X111180400Y-73939200D01*
X160856900Y-116040000D02*
X159419900Y-116040000D01*
X160599000Y-90073400D02*
X160599000Y-88188000D01*
X136168900Y-112376500D02*
X136168900Y-112438900D01*
X136828000Y-63998000D02*
X136828000Y-69120200D01*
X147157900Y-117784300D02*
X136965900Y-117784300D01*
X167796900Y-101795400D02*
X166531800Y-101795400D01*
X111720000Y-83709900D02*
X111720000Y-79673100D01*
X134733100Y-80693700D02*
X134005000Y-79965600D01*
X157003000Y-64002000D02*
X157003000Y-68952100D01*
X157049000Y-125372000D02*
X157049000Y-120421900D01*
X170342600Y-103725900D02*
X169942000Y-103725900D01*
X155879500Y-112416700D02*
X155945100Y-112482300D01*
X136050500Y-112258100D02*
X136168900Y-112376500D01*
X100870100Y-94158000D02*
X106691000Y-94158000D01*
X156840900Y-118619000D02*
X156840900Y-119790100D01*
X166531800Y-101795400D02*
X166531800Y-110365100D01*
X136874000Y-125368000D02*
X136874000Y-120417900D01*
X160599000Y-88188000D02*
X159270200Y-86859200D01*
X111720000Y-104500400D02*
X109882400Y-106338000D01*
X125396500Y-85166600D02*
X128862500Y-85166600D01*
X111720000Y-101747900D02*
X111720000Y-102473000D01*
X112135800Y-76589600D02*
X113338100Y-75387300D01*
X125295100Y-85268000D02*
X125396500Y-85166600D01*
X159270200Y-86023900D02*
X154352000Y-81105700D01*
X106691000Y-96203700D02*
X106691000Y-94158000D01*
X166531800Y-110365100D02*
X160856900Y-116040000D01*
X111180400Y-72674100D02*
X111180400Y-73939200D01*
X159419900Y-116040000D02*
X156840900Y-118619000D01*
X153844200Y-80693700D02*
X134733100Y-80693700D01*
X156840900Y-120213800D02*
X156840900Y-119790100D01*
X109882400Y-107603100D02*
X109882400Y-106338000D01*
X123845000Y-85268000D02*
X113278100Y-85268000D01*
D24*
%TO.N,/AD8*%
X149369300Y-73876800D02*
X132249700Y-73876800D01*
X148036100Y-119104100D02*
X147569600Y-118637600D01*
X137317800Y-118554500D02*
X136648100Y-118554500D01*
X134054600Y-117234200D02*
X133842300Y-117021900D01*
X140479400Y-106142600D02*
X138843700Y-104506900D01*
X153154200Y-119104100D02*
X148036100Y-119104100D01*
X138843700Y-104506900D02*
X136408500Y-104506900D01*
X131073700Y-117021900D02*
X125594100Y-111542300D01*
X142229800Y-119162300D02*
X141470300Y-118402800D01*
X142754500Y-118637600D02*
X142229800Y-119162300D01*
X154531000Y-125306000D02*
X154531000Y-120480900D01*
X99595000Y-99238000D02*
X107962700Y-99238000D01*
X137469500Y-118402800D02*
X137317800Y-118554500D01*
X133842300Y-117021900D02*
X131073700Y-117021900D01*
X154485000Y-68761100D02*
X149369300Y-73876800D01*
X125594100Y-111542300D02*
X118401700Y-111542300D01*
X141614400Y-98610000D02*
X141155500Y-98610000D01*
X141470300Y-118402800D02*
X137469500Y-118402800D01*
X143074500Y-98610000D02*
X141614400Y-98610000D01*
X154531000Y-120480900D02*
X153154200Y-119104100D01*
X136648100Y-118554500D02*
X135327800Y-117234200D01*
X135327800Y-117234200D02*
X134054600Y-117234200D01*
X147569600Y-118637600D02*
X142754500Y-118637600D01*
X154485000Y-63936000D02*
X154485000Y-68761100D01*
%TO.N,/AD9*%
X138422800Y-94416500D02*
X139674600Y-94416500D01*
X151966000Y-68775100D02*
X148265400Y-72475700D01*
X134371200Y-94145500D02*
X135717900Y-94145500D01*
X152012000Y-125320000D02*
X152012000Y-120494900D01*
X141249500Y-96704000D02*
X142472200Y-96704000D01*
X135717900Y-94145500D02*
X135886700Y-93976700D01*
X151966000Y-63950000D02*
X151966000Y-68775100D01*
X147448000Y-119554300D02*
X151071400Y-119554300D01*
X127717800Y-96149600D02*
X129034400Y-94833000D01*
X132030000Y-93920500D02*
X134146200Y-93920500D01*
X139674600Y-94416500D02*
X141249500Y-95991400D01*
X111687100Y-91245100D02*
X107541200Y-95391000D01*
X129034400Y-94833000D02*
X131117500Y-94833000D01*
X141249500Y-95991400D02*
X141249500Y-96704000D01*
X131117500Y-94833000D02*
X132030000Y-93920500D01*
X151071400Y-119554300D02*
X152012000Y-120494900D01*
X135886700Y-93976700D02*
X137983000Y-93976700D01*
X137983000Y-93976700D02*
X138422800Y-94416500D01*
X146981400Y-119087700D02*
X147448000Y-119554300D01*
X144664900Y-119087700D02*
X146981400Y-119087700D01*
X99595000Y-95428000D02*
X105840900Y-95428000D01*
X144389500Y-119363100D02*
X144664900Y-119087700D01*
X148265400Y-72475700D02*
X145258300Y-72475700D01*
X126480000Y-96149600D02*
X127717800Y-96149600D01*
X142472200Y-96704000D02*
X142788000Y-97019800D01*
X134146200Y-93920500D02*
X134371200Y-94145500D01*
X121677400Y-91245100D02*
X111687100Y-91245100D01*
%TO.N,/AD10*%
X125847900Y-112432700D02*
X124449400Y-112432700D01*
X140819200Y-72388900D02*
X131629100Y-72388900D01*
X141041300Y-119127900D02*
X136584900Y-119127900D01*
X144448000Y-125351000D02*
X144448000Y-120525900D01*
X141041300Y-119127900D02*
X142439300Y-120525900D01*
X142439300Y-120525900D02*
X144448000Y-120525900D01*
X135141300Y-117684300D02*
X133868100Y-117684300D01*
X100920100Y-86538000D02*
X101010900Y-86628800D01*
X101010900Y-86628800D02*
X111900800Y-86628800D01*
X133868100Y-117684300D02*
X133655800Y-117472000D01*
X139979500Y-96705000D02*
X139979500Y-98286700D01*
X139979500Y-98286700D02*
X140155300Y-98462500D01*
X144402000Y-63981000D02*
X144402000Y-68806100D01*
X131629100Y-72388900D02*
X131388000Y-72630000D01*
X133655800Y-117472000D02*
X130887200Y-117472000D01*
X136584900Y-119127900D02*
X135141300Y-117684300D01*
X111900800Y-86628800D02*
X112428000Y-86101600D01*
X99595000Y-86538000D02*
X100920100Y-86538000D01*
X125230000Y-72630000D02*
X125013900Y-72413900D01*
X144402000Y-68806100D02*
X140819200Y-72388900D01*
X131388000Y-72630000D02*
X125230000Y-72630000D01*
X130887200Y-117472000D02*
X125847900Y-112432700D01*
%TO.N,/AD11*%
X129445700Y-95283100D02*
X131528800Y-95283100D01*
X140921000Y-68814100D02*
X140752100Y-68983000D01*
X134324200Y-94735100D02*
X137246500Y-94735100D01*
X137398500Y-96701000D02*
X137398500Y-95240900D01*
X141881000Y-63989000D02*
X141881000Y-68814100D01*
X132441300Y-94370600D02*
X133959700Y-94370600D01*
X121347800Y-92607100D02*
X120900400Y-92159700D01*
X141881000Y-68814100D02*
X140921000Y-68814100D01*
X126220200Y-97479500D02*
X127249300Y-97479500D01*
X99595000Y-87808000D02*
X108884100Y-87808000D01*
X137246500Y-95088900D02*
X137246500Y-94735100D01*
X137398500Y-95240900D02*
X137246500Y-95088900D01*
X141927000Y-121499400D02*
X141927000Y-125359000D01*
X133959700Y-94370600D02*
X134324200Y-94735100D01*
X140793400Y-120365800D02*
X141927000Y-121499400D01*
X131528800Y-95283100D02*
X132441300Y-94370600D01*
X120900400Y-92159700D02*
X113235800Y-92159700D01*
X127249300Y-97479500D02*
X129445700Y-95283100D01*
%TO.N,/AD12*%
X131836000Y-119703200D02*
X131836000Y-120528900D01*
X131836000Y-119703200D02*
X134488800Y-119703200D01*
X133962300Y-70763500D02*
X133744400Y-70763500D01*
X131208600Y-119703200D02*
X131836000Y-119703200D01*
X99595000Y-82728000D02*
X101212400Y-82728000D01*
X118058900Y-115798900D02*
X127304300Y-115798900D01*
X133744400Y-70763500D02*
X131790000Y-68809100D01*
X131836000Y-125354000D02*
X131836000Y-120528900D01*
X136087500Y-98279700D02*
X135912300Y-98454900D01*
X131790000Y-63984000D02*
X131790000Y-68809100D01*
X127304300Y-115798900D02*
X131208600Y-119703200D01*
X136087500Y-96704000D02*
X136087500Y-98279700D01*
%TO.N,/AD13*%
X122240600Y-95967400D02*
X122120200Y-96087800D01*
X120010200Y-73368600D02*
X120125600Y-73484000D01*
X125979600Y-98918800D02*
X126872300Y-98918800D01*
X126748000Y-68834100D02*
X123369100Y-68834100D01*
X118857900Y-76897900D02*
X117954100Y-75994100D01*
X126872300Y-98918800D02*
X130057900Y-95733200D01*
X126397700Y-120157600D02*
X126794000Y-120553900D01*
X119340000Y-76897900D02*
X118857900Y-76897900D01*
X126748000Y-64009000D02*
X126748000Y-68834100D01*
X120010200Y-71299600D02*
X120010200Y-73368600D01*
X132628000Y-94820700D02*
X133773200Y-94820700D01*
X133773200Y-94820700D02*
X134193400Y-95240900D01*
X123369100Y-68834100D02*
X121948600Y-70254600D01*
X119340000Y-77560400D02*
X119340000Y-78223000D01*
X121948600Y-70254600D02*
X121055200Y-70254600D01*
X119340000Y-79548100D02*
X118489200Y-79548100D01*
X121055200Y-70254600D02*
X120010200Y-71299600D01*
X119340000Y-77560400D02*
X119340000Y-76897900D01*
X131715500Y-95733200D02*
X132628000Y-94820700D01*
X119340000Y-78223000D02*
X119340000Y-79548100D01*
X130057900Y-95733200D02*
X131715500Y-95733200D01*
X122120200Y-96087800D02*
X117173100Y-96087800D01*
X134193400Y-95240900D02*
X134821500Y-95240900D01*
X118489200Y-79548100D02*
X118208500Y-79828800D01*
X134821500Y-96701000D02*
X134821500Y-95240900D01*
X126794000Y-125379000D02*
X126794000Y-120553900D01*
X125348500Y-120157600D02*
X126397700Y-120157600D01*
%TO.N,/AD14*%
X131159800Y-77890100D02*
X130242600Y-76972900D01*
X123373300Y-76797100D02*
X121980800Y-76797100D01*
X121676800Y-69804500D02*
X124229000Y-67252300D01*
X134643400Y-79790500D02*
X144458400Y-79790500D01*
X124229000Y-67252300D02*
X124229000Y-63995000D01*
X132635500Y-96250900D02*
X133590500Y-95295900D01*
X121880000Y-78223000D02*
X121880000Y-76897900D01*
X119361900Y-74877400D02*
X119361900Y-71311300D01*
X121880000Y-76897900D02*
X121382400Y-76897900D01*
X133221600Y-81096100D02*
X133017700Y-81096100D01*
X120868700Y-69804500D02*
X121676800Y-69804500D01*
X145297200Y-78380600D02*
X144806700Y-77890100D01*
X125201200Y-119279500D02*
X124275000Y-120205700D01*
X132609500Y-79240400D02*
X134093300Y-79240400D01*
X121382400Y-76897900D02*
X119361900Y-74877400D01*
X130242600Y-76972900D02*
X123549100Y-76972900D01*
X126963300Y-119279500D02*
X125201200Y-119279500D01*
X144458400Y-79790500D02*
X145297200Y-78951700D01*
X119361900Y-71311300D02*
X120868700Y-69804500D01*
X133590500Y-96703000D02*
X133590500Y-95295900D01*
X121980800Y-76797100D02*
X121880000Y-76897900D01*
X134093300Y-79240400D02*
X134643400Y-79790500D01*
X127933800Y-99980300D02*
X131544000Y-96370100D01*
X132182100Y-79667800D02*
X132609500Y-79240400D01*
X133017700Y-81096100D02*
X132182100Y-80260500D01*
X124275000Y-120205700D02*
X124275000Y-120539900D01*
X131544000Y-96370100D02*
X132635500Y-96370100D01*
X132182100Y-80260500D02*
X132182100Y-79667800D01*
X144806700Y-77890100D02*
X131159800Y-77890100D01*
X145297200Y-78951700D02*
X145297200Y-78380600D01*
X123549100Y-76972900D02*
X123373300Y-76797100D01*
X132635500Y-96370100D02*
X132635500Y-96250900D01*
X124275000Y-125365000D02*
X124275000Y-120539900D01*
%TO.N,/AD15*%
X121748000Y-125371000D02*
X121748000Y-120545900D01*
X131644500Y-98609000D02*
X130184400Y-98609000D01*
X120610000Y-78223000D02*
X120610000Y-76897900D01*
X124130400Y-118163500D02*
X121748000Y-120545900D01*
X127099400Y-101840100D02*
X130184400Y-98755100D01*
X126922600Y-101840100D02*
X127099400Y-101840100D01*
X120610000Y-81388200D02*
X120928400Y-81706600D01*
X121206200Y-68826100D02*
X121702000Y-68826100D01*
X121702000Y-64001000D02*
X121702000Y-68826100D01*
X120610000Y-78885500D02*
X120610000Y-79548100D01*
X126289100Y-118163500D02*
X124130400Y-118163500D01*
X120610000Y-78885500D02*
X120610000Y-78223000D01*
X120610000Y-76897900D02*
X118909900Y-75197800D01*
X118909900Y-71122400D02*
X121206200Y-68826100D01*
X120610000Y-79548100D02*
X120610000Y-81388200D01*
X118909900Y-75197800D02*
X118909900Y-71122400D01*
X130184400Y-98755100D02*
X130184400Y-98609000D01*
%TO.N,/ALE_L*%
X129873600Y-93482700D02*
X125986500Y-93482700D01*
X109310900Y-80468200D02*
X109310900Y-78353900D01*
X130611000Y-92745300D02*
X129873600Y-93482700D01*
X125986500Y-93482700D02*
X125818700Y-93650500D01*
X109310900Y-78353900D02*
X109180000Y-78223000D01*
X122243200Y-90363700D02*
X115664700Y-90363700D01*
%TO.N,/ALE_H*%
X134668500Y-78790300D02*
X134943600Y-79065400D01*
X130501600Y-78790300D02*
X134668500Y-78790300D01*
X117790600Y-99691600D02*
X117824700Y-99691600D01*
X114260000Y-102473000D02*
X114260000Y-101147900D01*
X124653100Y-78165200D02*
X124790700Y-78027600D01*
X124790700Y-78027600D02*
X129738900Y-78027600D01*
X114260000Y-101147900D02*
X116334300Y-101147900D01*
X116334300Y-101147900D02*
X117790600Y-99691600D01*
X129738900Y-78027600D02*
X130501600Y-78790300D01*
%TO.N,/{slash}read_top*%
X125716900Y-71675500D02*
X124686400Y-71675500D01*
X136240300Y-71938800D02*
X131442500Y-71938800D01*
X124686400Y-71675500D02*
X123403300Y-72958600D01*
X131442500Y-71938800D02*
X131201400Y-72179900D01*
X139356000Y-63998000D02*
X139356000Y-68823100D01*
X123403300Y-72958600D02*
X122734000Y-72958600D01*
X126221300Y-72179900D02*
X125716900Y-71675500D01*
X99595000Y-83998000D02*
X106397800Y-83998000D01*
X131201400Y-72179900D02*
X126221300Y-72179900D01*
X139356000Y-68823100D02*
X136240300Y-71938800D01*
%TO.N,/12V_Front*%
X146926000Y-68790100D02*
X146402100Y-69314000D01*
X146972000Y-120177300D02*
X146972000Y-120509900D01*
X146972000Y-125335000D02*
X146972000Y-120509900D01*
X146926000Y-63965000D02*
X146926000Y-68790100D01*
X146610300Y-119815600D02*
X146972000Y-120177300D01*
%TO.N,/12V_2_Front*%
X149492000Y-125308000D02*
X149492000Y-120482900D01*
X150636500Y-120482900D02*
X150708600Y-120410800D01*
X149446000Y-69842400D02*
X149446000Y-63938000D01*
X149492000Y-120482900D02*
X150636500Y-120482900D01*
%TO.N,/CIC_15*%
X159527000Y-69115400D02*
X159527000Y-63996000D01*
X159573000Y-125366000D02*
X159573000Y-120540900D01*
X159573000Y-120540900D02*
X159849000Y-120264900D01*
%TO.N,/CIC_11*%
X161555000Y-120530900D02*
X161276700Y-120252600D01*
X161706100Y-69107400D02*
X162002400Y-68811100D01*
X162099000Y-125356000D02*
X162099000Y-120530900D01*
X162099000Y-120530900D02*
X161555000Y-120530900D01*
X162053000Y-63986000D02*
X162053000Y-68811100D01*
X162002400Y-68811100D02*
X162053000Y-68811100D01*
%TO.N,/{slash}COLD_RESET*%
X138545000Y-116759100D02*
X138119900Y-116334000D01*
X148233800Y-117038400D02*
X148140600Y-116945200D01*
X134215300Y-116121700D02*
X132055800Y-116121700D01*
X156924400Y-116272800D02*
X156158800Y-117038400D01*
X164571000Y-63982000D02*
X164571000Y-68807100D01*
X109180000Y-101147900D02*
X108826700Y-101147900D01*
X164571000Y-68807100D02*
X164540700Y-68837400D01*
X162823700Y-112870900D02*
X160229700Y-115464900D01*
X159181600Y-115464900D02*
X158373700Y-116272800D01*
X164617000Y-125352000D02*
X164617000Y-120526900D01*
X134427600Y-116334000D02*
X134215300Y-116121700D01*
X109180000Y-102473000D02*
X109180000Y-101147900D01*
X132055800Y-116121700D02*
X126014300Y-110080200D01*
X158373700Y-116272800D02*
X156924400Y-116272800D01*
X126014300Y-110080200D02*
X118080500Y-110080200D01*
X164023800Y-120223100D02*
X164327600Y-120526900D01*
X160229700Y-115464900D02*
X159181600Y-115464900D01*
X148140600Y-116945200D02*
X147768800Y-116945200D01*
X164540700Y-68837400D02*
X164540700Y-69113200D01*
X108826700Y-101147900D02*
X108552400Y-100873600D01*
X164327600Y-120526900D02*
X164617000Y-120526900D01*
X156158800Y-117038400D02*
X148233800Y-117038400D01*
X147768800Y-116945200D02*
X147582700Y-116759100D01*
X138119900Y-116334000D02*
X134427600Y-116334000D01*
X147582700Y-116759100D02*
X138545000Y-116759100D01*
%TO.N,/EEPROM_DAT*%
X167137000Y-125337000D02*
X167137000Y-120511900D01*
X167127100Y-68792100D02*
X167091000Y-68792100D01*
X167292000Y-120511900D02*
X167569200Y-120234700D01*
X167457000Y-69122000D02*
X167127100Y-68792100D01*
X167091000Y-68792100D02*
X167091000Y-63967000D01*
X167137000Y-120511900D02*
X167292000Y-120511900D01*
%TO.N,/LAUDIO*%
X174712000Y-125320000D02*
X174712000Y-120494900D01*
X173538600Y-120494900D02*
X173440200Y-120396500D01*
X174712000Y-120494900D02*
X173538600Y-120494900D01*
X174832300Y-68775100D02*
X174666000Y-68775100D01*
X174666000Y-68775100D02*
X174666000Y-63950000D01*
X175227200Y-69170000D02*
X174832300Y-68775100D01*
%TO.N,/{slash}read_bottom*%
X114260000Y-78223000D02*
X114260000Y-79548100D01*
X114260000Y-79548100D02*
X118797500Y-84085600D01*
X118797500Y-84085600D02*
X119781700Y-84085600D01*
X130700700Y-117922100D02*
X126628000Y-113849400D01*
X139402000Y-125368000D02*
X139402000Y-120542900D01*
X133469300Y-117922100D02*
X130700700Y-117922100D01*
X136406500Y-119586100D02*
X134971800Y-118151400D01*
X139402000Y-120542900D02*
X138445200Y-119586100D01*
X133698600Y-118151400D02*
X133469300Y-117922100D01*
X126628000Y-113849400D02*
X126238900Y-113849400D01*
X138445200Y-119586100D02*
X136406500Y-119586100D01*
X134971800Y-118151400D02*
X133698600Y-118151400D01*
%TO.N,/Button*%
X123922100Y-76072700D02*
X130648600Y-76072700D01*
X182853900Y-101804000D02*
X171489700Y-101804000D01*
X111258000Y-76619900D02*
X110980000Y-76897900D01*
X131503000Y-76927100D02*
X156408800Y-76927100D01*
X194730000Y-84735000D02*
X193609900Y-84735000D01*
X110450000Y-78223000D02*
X110450000Y-76897900D01*
X121997200Y-75306300D02*
X123155700Y-75306300D01*
X193570900Y-91087000D02*
X182853900Y-101804000D01*
X194691000Y-91087000D02*
X193570900Y-91087000D01*
X121256500Y-74565600D02*
X121997200Y-75306300D01*
X156408800Y-76927100D02*
X165344300Y-85862600D01*
X110980000Y-76897900D02*
X110450000Y-76897900D01*
X170349600Y-101804000D02*
X171489700Y-101804000D01*
X123155700Y-75306300D02*
X123922100Y-76072700D01*
X192482300Y-85862600D02*
X193609900Y-84735000D01*
X130648600Y-76072700D02*
X131503000Y-76927100D01*
X165344300Y-85862600D02*
X192482300Y-85862600D01*
%TD*%
M02*
